<!-- Generated by IcoMoon.io -->
<svg version="1.1" xmlns="http://www.w3.org/2000/svg" width="32" height="32" viewBox="0 0 32 32">
<title>bricks-wall</title>
<path fill="#f6f7f7" d="M9 17.933v-5c0 0-0.4 0-1 0h-7c-0.6 0-1 0-1 0v5c0 0.6 0 1 0 1h9c0 0 0-0.4 0-1z"></path>
<path fill="#ffc935" d="M31 12.933h-7c-0.6 0-1 0-1 0v5c0 0.6 0 1 0 1h9c0 0 0-0.4 0-1v-5c0 0-0.4 0-1 0z"></path>
<path fill="#f6f7f7" d="M12 12.933h-1v6c0 0 0.4 0 1 0h8c0.6 0 1 0 1 0v-5c0-0.6 0-1 0-1h-9z"></path>
<path fill="#f6f7f7" d="M5 10.934h10c0 0 0-0.4 0-1v-4c0-0.6 0-1 0-1l-9 0c-0.6 0-1 0-1 0v5c0 0.6-0 1-0 1z"></path>
<path fill="#f6f7f7" d="M17 10.933h10c0 0 0-0.4 0-1v-5c0 0-0.4 0-1 0h-8c-0.6 0-1 0-1 0v5c0 0.6 0 1 0 1z"></path>
<path fill="#ffc935" d="M14 20.933l-9 0.047c0 0 0 0.354 0 0.953v5c0 0 0.4 0 1 0h9c0 0 0-0.4 0-1v-5c0 0-0.4 0-1 0z"></path>
<path fill="#f6f7f7" d="M26 20.933h-8c-0.6 0-1 0-1 0v5c0 0.6 0 1 0 1h10c0 0 0-0.4 0-1v-5c0 0-0.4 0-1 0z"></path>
</svg>
