<!-- Generated by IcoMoon.io -->
<svg version="1.1" xmlns="http://www.w3.org/2000/svg" width="32" height="32" viewBox="0 0 32 32">
<title>building</title>
<path fill="none" stroke="#f6f7f7" stroke-linejoin="round" stroke-linecap="square" stroke-miterlimit="4" stroke-width="5.3333" d="M12.854 1.594l17.813 8.539"></path>
<path fill="none" stroke="#f6f7f7" stroke-linejoin="round" stroke-linecap="square" stroke-miterlimit="4" stroke-width="5.3333" d="M14.584 11.029l-12.984 6.036"></path>
<path fill="#f6f7f7" d="M29.527 29.886v-19.208l-15.335-8.003v28.012h14.483c0.226 0 0.443-0.084 0.602-0.234s0.25-0.354 0.25-0.566zM25.045 16.666c0.387-0.536 0.594-1.165 0.594-1.809 0.009-0.43-0.077-0.857-0.251-1.256s-0.434-0.761-0.763-1.065-0.721-0.544-1.153-0.705c-0.432-0.161-0.894-0.24-1.36-0.232-0.697 0-1.379 0.191-1.959 0.549s-1.032 0.867-1.299 1.462c-0.267 0.595-0.337 1.25-0.201 1.882s0.472 1.212 0.965 1.668c0.493 0.455 1.121 0.766 1.806 0.891s1.393 0.061 2.037-0.185 1.195-0.664 1.583-1.2zM17.104 18.666h10.133v12h-10.133v-12z"></path>
<path fill="#ffc935" d="M25.044 16.666c0.387-0.536 0.594-1.165 0.594-1.809 0.009-0.43-0.077-0.857-0.251-1.256s-0.434-0.761-0.763-1.065-0.721-0.544-1.153-0.705c-0.432-0.161-0.894-0.24-1.36-0.232-0.697 0-1.379 0.191-1.959 0.549s-1.032 0.867-1.299 1.462c-0.267 0.595-0.337 1.25-0.201 1.882s0.472 1.212 0.965 1.668 1.121 0.766 1.806 0.891c0.684 0.126 1.393 0.061 2.037-0.185s1.195-0.664 1.583-1.2z"></path>
<path fill="#f6f7f7" stroke="#f6f7f7" stroke-linejoin="miter" stroke-linecap="butt" stroke-miterlimit="4" stroke-width="5.3333" d="M27.733 1.599v7.467l-4.267-2.133v-5.333h4.267z"></path>
<path fill="none" stroke="#f6f7f7" stroke-linejoin="round" stroke-linecap="square" stroke-miterlimit="4" stroke-width="5.3333" d="M1.061 30.685h29.878"></path>
<path fill="#f6f7f7" d="M2.668 30.029v-13.547l12.799-5.815v20.265h-11.999c-0.107 0.007-0.214-0.011-0.314-0.054s-0.191-0.109-0.266-0.195-0.134-0.188-0.172-0.301c-0.038-0.113-0.054-0.233-0.048-0.354zM12.854 20.399h-6.4v6.4h6.4v-6.4z"></path>
</svg>
