<!-- Generated by IcoMoon.io -->
<svg version="1.1" xmlns="http://www.w3.org/2000/svg" width="32" height="32" viewBox="0 0 32 32">
<title>calendar</title>
<path fill="#f6f7f7" d="M30.524 8.62h-29.582v-2.279c0-0.426 0.501-0.76 1.138-0.76h3.413v1.52c0 0 0.501 0 1.138 0s1.138 0 1.138 0v-1.52h15.929l0.036 1.544h2.24v-1.544h3.413c0.637 0 1.138 0.334 1.138 0.76v2.279zM13.458 22.616l-7.623-5.106 1.593-1.064 6.030 4.012 10.581-7.051 1.593 1.064-12.174 8.145zM29.387 4.061h-3.413v-1.52c0 0-0.501 0-1.138 0s-1.138 0-1.138 0v1.52h-15.929v-1.52c0 0-0.501 0-1.138 0s-1.138 0-1.138 0v1.52h-3.413c-1.889 0-3.413 1.018-3.413 2.279v22.034h34.133v-22.034c0-1.261-1.525-2.279-3.413-2.279z"></path>
<path fill="#ffc935" d="M5.494 7.1v-4.559h2.276v4.559h-2.276z"></path>
<path fill="#ffc935" d="M23.694 7.1v-4.559h2.276v4.559h-2.276z"></path>
</svg>
