<!-- Generated by IcoMoon.io -->
<svg version="1.1" xmlns="http://www.w3.org/2000/svg" width="32" height="32" viewBox="0 0 32 32">
<title>computer-construction</title>
<path fill="#ffc935" d="M24.888 28.761c0 0-3.684-1.033-4.13-2.388 0-0.123 0-0.246-0.112-0.246h-9.938c0 0.123 0 0.246-0.112 0.246-0.335 1.355-4.030 2.51-4.030 2.51s0 0.152 0 0.891c0 0.739 0 1.281 0 1.281l18.321 0.101c0 0 0-0.587 0-1.326s0-1.069 0-1.069z"></path>
<path fill="#f6f7f7" d="M28.016 0.907h-24.565c-1.898 0-3.35 0-3.35 0v20.099c0 1.898 0 3.35 0 3.35h31.264c0 0 0-1.452 0-3.35v-20.099c0 0-1.452 0-3.35 0zM24.666 18.773h-17.865c-0.67 0-1.117-0.447-1.117-1.117s0.447-1.117 1.117-1.117h0.223v-0.223c0-2.010 0.67-3.796 1.786-5.36l1.34 3.858 1.869-0.721-1.534-5.481c0-0.335 0.223-0.67 0.558-0.893 2.903-1.452 6.365-1.452 9.268 0 0.335 0.223 0.558 0.558 0.558 0.893l-1.569 5.481 1.955 0.721 1.289-3.858c1.117 1.563 1.787 3.35 1.787 5.36v0.223h0.335c0.67 0 1.117 0.447 1.117 1.117s-0.447 1.117-1.117 1.117z"></path>
</svg>
