<!-- Generated by IcoMoon.io -->
<svg version="1.1" xmlns="http://www.w3.org/2000/svg" width="46" height="32" viewBox="0 0 46 32">
<title>drilling</title>
<path fill="#c2cdc6" d="M24.429 12.937c0.097-0.127 0.178-0.267 0.246-0.404 0.196-0.393 0.356-0.908 0.485-1.485 0.259-1.16 0.41-2.658 0.438-4.159s-0.068-3.028-0.314-4.247c-0.123-0.608-0.286-1.158-0.502-1.594-0.103-0.209-0.393-0.597-0.542-0.766l18.14 0.189c3.036 0.577 5.527 7.328 1.236 12.062l-19.189 0.404z"></path>
<path fill="#c2cdc6" d="M23.562 12.752c0 0-2.231-1.631-2.231-6.427 0-5.277 1.973-6.043 1.973-6.043 0.394 0.081 0.641 0.599 0.774 1.104 0.163 0.619 0.24 0.854 0.355 1.424 0.229 1.138 0.324 2.599 0.297 4.062s-0.174 2.9-0.418 3.988c-0.122 0.546-0.264 0.985-0.416 1.29-0.166 0.334-0.334 0.601-0.334 0.601z"></path>
<path fill="#ffd74a" d="M0.035 20.419h41.532l-0.434-4.74h-41.097v4.74z"></path>
<path fill="#ffd74a" d="M23.588 4.538l-4.454 0.269 0.19 4.525 4.481-0.242c0 0 0.524-1.72 0.38-2.801-0.096-0.719-0.598-1.751-0.598-1.751z"></path>
<path fill="#c2cdc6" d="M20.483 3.573c0 0-14.886 0.138-16.963 1.121-0.706 0.334-1.358 0.763-1.702 1.003-0.166 0.115-0.278 0.288-0.323 0.484-0.297 1.303-1.111 5.575-1.111 5.575l3.359 6.122 5.109 1.357 2.835-4.487 5.704-3.374 3.091-0.627v-7.173z"></path>
<path fill="#c2cdc6" d="M40.154 21.889v6.585l4.345 2.478 1.032-1.023v-16.428h-5.051l-0.035 1.598c-0.509 0.142-1.049 0.33-1.432 0.476l0.58 4.848h-1.775v0.61l1.887 0.862v-0.005h0.448z"></path>
<path fill="#ffd74a" d="M40.589 26.454h-6.164v1.158c0 0 6.164-0.043 6.164 0v-1.158z"></path>
<path fill="#ffd74a" d="M41.715 25.766l-1.435 0.4c-0.262 0.664-0.167 0.92 0 1.623l1.662 0.375c0.345-0.99 0.194-1.912-0.227-2.397z"></path>
</svg>
