<!-- Generated by IcoMoon.io -->
<svg version="1.1" xmlns="http://www.w3.org/2000/svg" width="33" height="32" viewBox="0 0 33 32">
<title>house</title>
<path fill="none" stroke="#f6f7f7" stroke-linejoin="round" stroke-linecap="square" stroke-miterlimit="4" stroke-width="3.2" d="M13.254 1.595l17.813 8.539"></path>
<path fill="none" stroke="#f6f7f7" stroke-linejoin="round" stroke-linecap="square" stroke-miterlimit="4" stroke-width="3.2" d="M14.984 11.031l-12.984 6.036"></path>
<path fill="#f6f7f7" d="M29.927 29.886v-19.208l-15.335-8.003v28.012h14.483c0.226 0 0.443-0.084 0.602-0.234s0.25-0.354 0.25-0.566zM25.445 16.666c0.388-0.536 0.594-1.165 0.594-1.81 0.009-0.43-0.077-0.857-0.251-1.256s-0.434-0.761-0.763-1.065c-0.329-0.304-0.721-0.544-1.153-0.704s-0.894-0.24-1.36-0.232c-0.697 0-1.379 0.191-1.959 0.549s-1.032 0.867-1.299 1.462c-0.267 0.595-0.337 1.25-0.201 1.882s0.472 1.212 0.965 1.668 1.122 0.766 1.806 0.891c0.684 0.126 1.393 0.061 2.038-0.185s1.195-0.664 1.583-1.2zM18.571 19.733h8v10.933h-3.2v-7.733h-1.6v7.733h-3.2v-10.933z"></path>
<path fill="#ffc935" d="M25.444 16.667c0.387-0.536 0.594-1.165 0.594-1.809 0.009-0.43-0.077-0.857-0.251-1.256s-0.434-0.761-0.763-1.065c-0.329-0.304-0.721-0.544-1.153-0.705s-0.894-0.24-1.36-0.232c-0.698 0-1.379 0.191-1.959 0.549s-1.032 0.867-1.299 1.462c-0.267 0.595-0.337 1.25-0.201 1.882s0.472 1.212 0.965 1.668 1.122 0.766 1.806 0.891c0.684 0.126 1.393 0.061 2.038-0.185s1.195-0.664 1.583-1.2z"></path>
<path fill="#f6f7f7" stroke="#f6f7f7" stroke-linejoin="miter" stroke-linecap="butt" stroke-miterlimit="4" stroke-width="3.2" d="M28.133 1.6v7.467l-4.267-2.133v-5.333h4.267z"></path>
<path fill="none" stroke="#f6f7f7" stroke-linejoin="round" stroke-linecap="square" stroke-miterlimit="4" stroke-width="3.2" d="M1.46 30.688h29.878"></path>
<path fill="#f6f7f7" d="M3.068 30.029v-13.547l12.799-5.815v20.265h-11.999c-0.107 0.007-0.214-0.011-0.314-0.054s-0.191-0.109-0.266-0.194c-0.076-0.085-0.134-0.188-0.172-0.301s-0.054-0.234-0.048-0.354zM13.254 20.399h-6.4v6.4h6.4v-6.4z"></path>
</svg>
