<!-- Generated by IcoMoon.io -->
<svg version="1.1" xmlns="http://www.w3.org/2000/svg" width="33" height="32" viewBox="0 0 33 32">
<title>location</title>
<path fill="#ffc935" d="M23.051 31.171c0.879-0.307 1.348-0.668 1.348-1.037 0.020-0.246-0.174-0.491-0.569-0.72s-0.984-0.436-1.73-0.61c-0.747-0.174-1.636-0.312-2.616-0.404s-2.028-0.137-3.084-0.133c-1.582 0-3.129 0.109-4.444 0.315s-2.341 0.497-2.946 0.838c-0.605 0.341-0.764 0.716-0.455 1.078s1.071 0.695 2.189 0.956 2.544 0.439 4.096 0.511c1.552 0.072 3.16 0.035 4.622-0.106s2.711-0.381 3.59-0.688z"></path>
<path fill="#f6f7f7" stroke="#f6f7f7" stroke-linejoin="round" stroke-linecap="butt" stroke-miterlimit="4" stroke-width="3.2" d="M26.267 12.667c0-5.523-4.477-10-10-10s-10 4.477-10 10c0 8.667 10 16.667 10 16.667s10-8 10-16.667zM22.731 12.801c0 3.57-2.894 6.465-6.465 6.465s-6.465-2.894-6.465-6.465c0-3.57 2.894-6.465 6.465-6.465s6.465 2.894 6.465 6.465z"></path>
</svg>
