<!-- Generated by IcoMoon.io -->
<svg version="1.1" xmlns="http://www.w3.org/2000/svg" width="70" height="32" viewBox="0 0 70 32">
<title>logo</title>
<path fill="#f6f7f7" d="M6.4 0l14.878 16.126c2.905-3.149 3.998-4.463 6.265-6.92v5.243l-6.265 6.716-12.078-13.102v23.937h-2.801v-32z"></path>
<path fill="#ffc935" d="M34.857 32h-2.057v-8h6.229v1.6h-4.171v6.4z"></path>
<path fill="#ffc935" d="M39.831 24h4.8c0.8 0 1.379 0.183 1.737 0.549 0.366 0.358 0.549 0.937 0.549 1.737v1.143c0 0.8-0.183 1.383-0.549 1.749-0.358 0.358-0.937 0.537-1.737 0.537h-2.743v2.286h-2.057v-8zM44.86 26.286c0-0.457-0.229-0.686-0.686-0.686h-2.286v2.514h2.286c0.457 0 0.686-0.229 0.686-0.686v-1.143z"></path>
<path fill="#ffc935" d="M49.642 32.114c-0.381 0-0.773-0.038-1.177-0.114v-1.543h1.029c0.221 0 0.373-0.088 0.457-0.263 0.038-0.076 0.057-0.156 0.057-0.24 0-0.091-0.019-0.171-0.057-0.24l-3.143-5.714h2.286l2.057 4.057 1.714-4.057h2.286l-2.914 6.286c-0.267 0.602-0.587 1.051-0.96 1.349-0.411 0.32-0.956 0.48-1.634 0.48z"></path>
<path fill="#ffc935" d="M62.584 32h-2.057v-6.4h-2.857v6.4h-2.057v-8h6.971v8z"></path>
<path fill="#ffd74a" d="M50.599 8.123l-0.184 1.248h-20.014v22.63h-3.126l0-1.275-0-4.724 0.001-0.001v-16.629l-6.876-0 6.876-6.956-0-2.414h3.126v2.204l20.198 5.919zM23.427 8.096h3.849v-3.873l-3.849 3.873zM28.55 30.725h0.576v-21.355h-0.576v21.355zM28.55 8.096h0.576v-4.781h-0.576v4.781zM28.55 2.040h0.576v-0.765h-0.576v0.765zM33.735 4.368l-3.333-0.833v3.595l3.333-2.762zM34.797 5.109l-3.558 2.987h6.545l-2.987-2.987zM36.778 5.286l2.45 2.45 1.314-1.315-3.764-1.135zM41.928 6.839l-1.257 1.256h5.423l-4.166-1.256z"></path>
<path fill="#ffd74a" d="M27.276 30.725l-0 1.275v-5.999l0 4.724zM30.401 25.93v6.070l0-1.275-0-4.795z"></path>
<path fill="#ffd74a" d="M29.126 30.725h-0.576v-21.355h0.576v21.355z"></path>
<path fill="#ffd74a" d="M29.126 8.096h-0.576v-4.781h0.576v4.781z"></path>
<path fill="#ffd74a" d="M29.126 2.040h-0.576v-0.765h0.576v0.765z"></path>
<path fill="#ffc935" d="M48.341 16.612v-0.558h0.97c0 0 0-0.281 0-0.627v-2.257c0-0.346 0-0.627 0-0.627h-0.844v-2.257c0 0-0.281 0-0.627 0s-0.586 0-0.586 0l-0.041 2.257h-0.405c-0.346 0-0.627 0-0.627 0v2.884c0 0.346 0 0.627 0 0.627h0.907v1.066c0 0.346 0.281 0.627 0.627 0.627 0.254 0 0.46 0.206 0.46 0.46s-0.206 0.46-0.46 0.46c-0.172 0-0.46-0.314-0.46-0.314h-1.254c0 0.908 0.721 1.567 1.714 1.567 0.945 0 1.714-0.769 1.714-1.714-0-0.724-0.451-1.345-1.087-1.596zM48.057 14.8h-0.622v-1.003h0.622v1.003z"></path>
</svg>
