<!-- Generated by IcoMoon.io -->
<svg version="1.1" xmlns="http://www.w3.org/2000/svg" width="32" height="32" viewBox="0 0 32 32">
<title>modern-building</title>
<path fill="#f6f7f7" d="M23.083 12.562v-2.822l0.935 0.11v-2.115l-11.289-1.728-12.729 2.423v2.473l1.18-0.164v6.872h3.423v6.414l16.25 1.969 2.875-0.348v-8.232l5.107 0.016v7.596l2.373-0.287v-10.038l0.792 0.039v-1.504l-8.917-0.674zM21.934 10.717v2.475l-3.401 0.063v-2.884l3.401 0.346zM2.948 11.121l7.719-0.979v5.51l-7.719 0.256v-4.787zM6.119 22.565v-4.955h3.182v5.244l-3.182-0.289zM10.11 22.909v-5.301h2.618v-0.010h1.063v5.645l-3.681-0.334zM14.567 23.346v-5.746l4.287 0.001v6.137l-4.287-0.392z"></path>
<path fill="#ffc935" d="M10.667 10.143l-7.719 0.979v4.787l7.719-0.256v-5.51z"></path>
</svg>
