<!-- Generated by IcoMoon.io -->
<svg version="1.1" xmlns="http://www.w3.org/2000/svg" width="32" height="32" viewBox="0 0 32 32">
<title>pin-location</title>
<path fill="#f6f7f7" d="M24 10.666c0-4.413-3.587-8-8-8s-8 3.587-8 8c0 6 8 14.667 8 14.667s8-8.667 8-14.667zM13.333 10.666c0-1.467 1.2-2.667 2.667-2.667s2.667 1.2 2.667 2.667c0 1.467-1.187 2.667-2.667 2.667-1.467 0-2.667-1.2-2.667-2.667zM8 26.666c-0.736 0-1.333 0.597-1.333 1.333v0c0 0.736 0.597 1.333 1.333 1.333h16c0.736 0 1.333-0.597 1.333-1.333v0c0-0.736-0.597-1.333-1.333-1.333h-16z"></path>
</svg>
