<!-- Generated by IcoMoon.io -->
<svg version="1.1" xmlns="http://www.w3.org/2000/svg" width="32" height="32" viewBox="0 0 32 32">
<title>plan</title>
<path fill="#f6f7f7" d="M-1.6 25.362v-19.467h35.199v19.467h-11.731l8.43-3.336c0.020-0.008 0.057-0.023 0.128-0.053 0.143-0.059 0.424-0.175 0.983-0.406 0.698-0.289 1.196-0.8 1.309-1.491 0.105-0.648-0.165-1.25-0.531-1.685-0.726-0.866-2.137-1.452-3.55-0.9l-0.033 0.013v-8.004c0-0.295-0.239-0.533-0.533-0.533h-24.308c-0.295 0-0.533 0.239-0.533 0.533v11.874c0 0.295 0.239 0.533 0.533 0.533h13.8l-4.71 1.883-0.122 0.13c-0.346 0.369-0.845 0.936-1.284 1.443h-13.048zM17.519 25.362h-2.43l-0.461-0.559 7.245-2.896h4.378l-8.732 3.455zM28.605 20.976l0.048-0.019-0.048-0.057v0.076zM27.005 18.133v-0.093h-3.211v1.377l3.211-1.284zM24.63 20.805l2.374-0.949v0.949h-2.374zM22.194 20.056v-6.010l-5.4-0.054v-3.924h-3.614v3.932h-4.531v3.023h4.531v3.782h7.141l1.874-0.749zM4.83 10.068v2.83h6.749v-2.83h-6.749zM18.393 10.068v2.838l3.8 0.038v-2.876h-3.8zM27.005 10.068h-3.211v6.869h3.211v-6.87zM11.579 20.805v-2.68h-6.749v2.68h6.749zM4.83 17.023h2.218v-3.023h-2.218v3.023zM29.219 18.982l-0.102 0.040 1.098 1.309c0.149-0.062 0.339-0.14 0.582-0.241 0.327-0.135 0.34-0.261 0.341-0.269l0-0c0.007-0.045-0.002-0.192-0.177-0.4-0.354-0.421-1.062-0.704-1.742-0.439z"></path>
<path fill="#ffc935" d="M11.084 27.069c0 0 1.513-1.784 2.258-2.579l14.473-5.786c0 0-0 0 1.14-0.445 2.093-0.817 4.238 1.738 2.175 2.592-1.116 0.462-1.125 0.464-1.125 0.464l-14.539 5.753h-4.382z"></path>
</svg>
