<!-- Generated by IcoMoon.io -->
<svg version="1.1" xmlns="http://www.w3.org/2000/svg" width="58" height="32" viewBox="0 0 58 32">
<title>since</title>
<path fill="#f6f7f7" d="M9.382 22.122c0 1.252-0.612 1.877-1.835 1.877h-5.163v-3.221h1.451v1.771h3.84v-1.771l-3.499-2.197c-0.356-0.228-0.661-0.412-0.917-0.555s-0.469-0.284-0.64-0.427c-0.313-0.284-0.469-0.668-0.469-1.152v-1.216c0-0.597 0.1-1.010 0.299-1.237 0.384-0.441 0.953-0.661 1.707-0.661h4.971v3.2h-1.451v-1.749h-3.84v1.792l3.627 2.261c0.299 0.185 0.562 0.348 0.789 0.491 0.242 0.128 0.441 0.263 0.597 0.405 0.356 0.299 0.533 0.654 0.533 1.067v1.323z"></path>
<path fill="#f6f7f7" d="M16.752 22.549h1.387v1.451h-4.48v-1.451h1.344v-7.765h-1.344v-1.451h3.093v9.216zM15.877 9.408c0.299 0 0.548 0.114 0.747 0.341 0.213 0.213 0.32 0.476 0.32 0.789 0 0.299-0.107 0.555-0.32 0.768-0.199 0.199-0.455 0.299-0.768 0.299-0.299 0-0.555-0.1-0.768-0.299-0.199-0.213-0.299-0.469-0.299-0.768 0-0.313 0.107-0.576 0.32-0.789 0.213-0.228 0.469-0.341 0.768-0.341z"></path>
<path fill="#f6f7f7" d="M29.356 13.12c1.109 0 1.664 0.548 1.664 1.643v7.787h1.365v1.451h-4.117v-1.451h1.024v-7.936l-4.245 2.667v5.269h1.045v1.451h-4.117v-1.451h1.344v-7.787h-1.344v-1.429h3.072v2.219l3.541-2.219c0.228-0.142 0.484-0.213 0.768-0.213z"></path>
<path fill="#f6f7f7" d="M43.614 24h-5.312c-1.024 0-1.614-0.384-1.771-1.152-0.057-0.228-0.085-0.469-0.085-0.725v-6.912c0-0.597 0.164-1.060 0.491-1.387 0.341-0.341 0.853-0.512 1.536-0.512h5.141v2.709h-1.451v-1.237h-4.011v7.765h4.011v-1.237h1.451v2.688z"></path>
<path fill="#f6f7f7" d="M47.662 15.424c0-1.408 0.732-2.112 2.197-2.112h3.605c0.697 0 1.202 0.135 1.515 0.405s0.469 0.768 0.469 1.493v1.984l-6.080 3.84v1.515h4.395v-1.237h1.685v1.131c0 0.427-0.135 0.796-0.405 1.109-0.256 0.299-0.69 0.448-1.301 0.448h-4.373c-0.612 0-1.052-0.149-1.323-0.448-0.256-0.313-0.384-0.683-0.384-1.109v-7.019zM49.369 19.306l4.373-2.752v-1.771h-4.373v4.523z"></path>
<path fill="none" stroke="#f6f7f7" stroke-linejoin="miter" stroke-linecap="butt" stroke-miterlimit="4" stroke-width="1.6" d="M9.382 22.122c0 1.252-0.612 1.877-1.835 1.877h-5.163v-3.221h1.451v1.771h3.84v-1.771l-3.499-2.197c-0.356-0.228-0.661-0.412-0.917-0.555s-0.469-0.284-0.64-0.427c-0.313-0.284-0.469-0.668-0.469-1.152v-1.216c0-0.597 0.1-1.010 0.299-1.237 0.384-0.441 0.953-0.661 1.707-0.661h4.971v3.2h-1.451v-1.749h-3.84v1.792l3.627 2.261c0.299 0.185 0.562 0.348 0.789 0.491 0.242 0.128 0.441 0.263 0.597 0.405 0.356 0.299 0.533 0.654 0.533 1.067v1.323z"></path>
<path fill="none" stroke="#f6f7f7" stroke-linejoin="miter" stroke-linecap="butt" stroke-miterlimit="4" stroke-width="1.6" d="M16.752 22.549h1.387v1.451h-4.48v-1.451h1.344v-7.765h-1.344v-1.451h3.093v9.216zM15.877 9.408c0.299 0 0.548 0.114 0.747 0.341 0.213 0.213 0.32 0.476 0.32 0.789 0 0.299-0.107 0.555-0.32 0.768-0.199 0.199-0.455 0.299-0.768 0.299-0.299 0-0.555-0.1-0.768-0.299-0.199-0.213-0.299-0.469-0.299-0.768 0-0.313 0.107-0.576 0.32-0.789 0.213-0.228 0.469-0.341 0.768-0.341z"></path>
<path fill="none" stroke="#f6f7f7" stroke-linejoin="miter" stroke-linecap="butt" stroke-miterlimit="4" stroke-width="1.6" d="M29.356 13.12c1.109 0 1.664 0.548 1.664 1.643v7.787h1.365v1.451h-4.117v-1.451h1.024v-7.936l-4.245 2.667v5.269h1.045v1.451h-4.117v-1.451h1.344v-7.787h-1.344v-1.429h3.072v2.219l3.541-2.219c0.228-0.142 0.484-0.213 0.768-0.213z"></path>
<path fill="none" stroke="#f6f7f7" stroke-linejoin="miter" stroke-linecap="butt" stroke-miterlimit="4" stroke-width="1.6" d="M43.614 24h-5.312c-1.024 0-1.614-0.384-1.771-1.152-0.057-0.228-0.085-0.469-0.085-0.725v-6.912c0-0.597 0.164-1.060 0.491-1.387 0.341-0.341 0.853-0.512 1.536-0.512h5.141v2.709h-1.451v-1.237h-4.011v7.765h4.011v-1.237h1.451v2.688z"></path>
<path fill="none" stroke="#f6f7f7" stroke-linejoin="miter" stroke-linecap="butt" stroke-miterlimit="4" stroke-width="1.6" d="M47.662 15.424c0-1.408 0.732-2.112 2.197-2.112h3.605c0.697 0 1.202 0.135 1.515 0.405s0.469 0.768 0.469 1.493v1.984l-6.080 3.84v1.515h4.395v-1.237h1.685v1.131c0 0.427-0.135 0.796-0.405 1.109-0.256 0.299-0.69 0.448-1.301 0.448h-4.373c-0.612 0-1.052-0.149-1.323-0.448-0.256-0.313-0.384-0.683-0.384-1.109v-7.019zM49.369 19.306l4.373-2.752v-1.771h-4.373v4.523z"></path>
</svg>
