<!-- Generated by IcoMoon.io -->
<svg version="1.1" xmlns="http://www.w3.org/2000/svg" width="33" height="32" viewBox="0 0 33 32">
<title>smile</title>
<path fill="#f6f7f7" d="M16.4 32c-4.243 0-8.313-1.686-11.314-4.686s-4.686-7.070-4.686-11.314 1.686-8.313 4.686-11.314c3.001-3.001 7.070-4.686 11.314-4.686s8.313 1.686 11.314 4.686c3.001 3.001 4.686 7.070 4.686 11.314s-1.686 8.313-4.686 11.314c-3.001 3.001-7.070 4.686-11.314 4.686zM10.8 14.4c0.636 0 1.247-0.253 1.697-0.703s0.703-1.061 0.703-1.697c0-0.636-0.253-1.247-0.703-1.697s-1.061-0.703-1.697-0.703c-0.636 0-1.247 0.253-1.697 0.703s-0.703 1.061-0.703 1.697c0 0.636 0.253 1.247 0.703 1.697s1.061 0.703 1.697 0.703zM22 14.4c0.637 0 1.247-0.253 1.697-0.703s0.703-1.061 0.703-1.697c0-0.636-0.253-1.247-0.703-1.697s-1.060-0.703-1.697-0.703c-0.636 0-1.247 0.253-1.697 0.703s-0.703 1.061-0.703 1.697c0 0.636 0.253 1.247 0.703 1.697s1.061 0.703 1.697 0.703zM25.456 19.2h-18.112c0.66 1.875 1.885 3.499 3.507 4.648s3.561 1.766 5.549 1.766 3.927-0.617 5.549-1.766c1.622-1.149 2.848-2.773 3.507-4.648z"></path>
<path fill="#ffc935" d="M7.344 19.2h18.112c-0.66 1.875-1.885 3.499-3.507 4.648s-3.561 1.766-5.549 1.766-3.927-0.617-5.549-1.766c-1.622-1.149-2.848-2.773-3.507-4.648z"></path>
</svg>
