<!-- Generated by IcoMoon.io -->
<svg version="1.1" xmlns="http://www.w3.org/2000/svg" width="32" height="32" viewBox="0 0 32 32">
<title>telegram</title>
<path fill="#f6f7f7" d="M16 2.666c-13.333 0-13.333 0-13.333 13.333s0 13.333 13.333 13.333 13.333 0 13.333-13.333 0-13.333-13.333-13.333zM22.549 11.8l-2.189 10.311c-0.161 0.731-0.597 0.909-1.204 0.564l-3.333-2.456-1.607 1.549c-0.156 0.2-0.397 0.328-0.667 0.328-0.002 0-0.003 0-0.005 0l0.237-3.393 6.178-5.58c0.267-0.237-0.060-0.371-0.414-0.134l-7.632 4.807-3.289-1.027c-0.711-0.226-0.731-0.711 0.15-1.060l12.851-4.953c0.598-0.218 1.118 0.142 0.924 1.046l0.001-0.001z"></path>
</svg>
