<!-- Generated by IcoMoon.io -->
<svg version="1.1" xmlns="http://www.w3.org/2000/svg" width="32" height="32" viewBox="0 0 32 32">
<title>tiktok</title>
<path fill="#f6f7f7" d="M4.333 4.333c1.667-1.667 5-1.667 11.667-1.667s10 0 11.667 1.667c1.667 1.667 1.667 5 1.667 11.667s0 10-1.667 11.667c-1.667 1.667-5 1.667-11.667 1.667s-10 0-11.667-1.667-1.667-5-1.667-11.667c0-6.667 0-10 1.667-11.667zM18.074 7.115c-0.578 0.001-1.158 0.002-1.74 0.011-0.014 1.861-0.013 3.722-0.013 5.585 0 1.118 0.001 2.236-0.002 3.356-0.002 0.349-0.001 0.697-0.001 1.046 0.002 0.975 0.003 1.948-0.051 2.925-0.007 0.272-0.145 0.511-0.279 0.742-0.008 0.014-0.017 0.029-0.025 0.043-0.43 0.704-1.222 1.185-2.052 1.193-1.244 0.111-2.415-0.911-2.593-2.126-0.001-0.062-0.003-0.125-0.005-0.187-0.011-0.341-0.023-0.686 0.109-1.005 0.185-0.526 0.541-0.993 1.007-1.296 0.645-0.444 1.504-0.511 2.237-0.274 0-0.47 0.008-0.94 0.016-1.409 0.011-0.626 0.022-1.253 0.013-1.879-1.607-0.304-3.326 0.207-4.556 1.274-1.082 0.918-1.778 2.267-1.911 3.674-0.015 0.363-0.007 0.733 0.007 1.104 0.156 1.733 1.207 3.348 2.704 4.23 0.904 0.533 1.963 0.822 3.022 0.763 1.726-0.030 3.407-0.956 4.378-2.378 0.6-0.852 0.941-1.881 1-2.919 0.014-1.347 0.013-2.697 0.013-4.049-0-0.811-0.001-1.622 0.002-2.433 0.385 0.252 0.778 0.496 1.2 0.689 0.97 0.459 2.044 0.681 3.111 0.719v-2.985c-1.141-0.126-2.311-0.504-3.141-1.326-0.83-0.8-1.237-1.956-1.296-3.089-0.385 0.003-0.77 0.004-1.156 0.004z"></path>
</svg>
