<!-- Generated by IcoMoon.io -->
<svg version="1.1" xmlns="http://www.w3.org/2000/svg" width="32" height="32" viewBox="0 0 32 32">
<title>viber</title>
<path fill="#f6f7f7" d="M19.991 8.831c-2.648-0.504-5.334-0.504-7.983 0-1.159 0.258-2.616 1.655-2.901 2.778-0.474 2.174-0.474 4.378 0 6.551 0.285 1.123 1.743 2.52 2.901 2.778 0 0 0.001 0 0.001 0 0.052 0.010 0.089 0.055 0.089 0.107v3.184c0 0.159 0.194 0.238 0.305 0.122l1.513-1.552c0 0 1.205-1.237 1.422-1.46 0.021-0.022 0.050-0.034 0.081-0.033 1.527 0.042 3.056-0.081 4.573-0.369 1.159-0.258 2.617-1.655 2.901-2.778 0.475-2.174 0.475-4.377 0-6.551-0.284-1.123-1.742-2.52-2.901-2.778zM20.032 18.323c-0.232 0.492-0.569 0.901-1.055 1.163-0.137 0.074-0.301 0.098-0.456 0.145-0.178-0.054-0.348-0.090-0.506-0.156-1.634-0.678-3.137-1.552-4.328-2.892-0.677-0.762-1.207-1.623-1.655-2.533-0.213-0.432-0.392-0.881-0.574-1.326-0.166-0.407 0.079-0.827 0.337-1.133 0.242-0.287 0.554-0.508 0.891-0.67 0.264-0.127 0.523-0.054 0.716 0.17 0.416 0.483 0.798 0.99 1.107 1.55 0.19 0.344 0.138 0.765-0.207 0.999-0.084 0.057-0.16 0.124-0.238 0.188-0.069 0.056-0.133 0.113-0.18 0.19-0.086 0.139-0.090 0.304-0.035 0.456 0.425 1.168 1.142 2.077 2.318 2.566 0.188 0.078 0.377 0.169 0.594 0.144 0.363-0.042 0.481-0.441 0.735-0.649 0.249-0.203 0.567-0.206 0.834-0.037s0.528 0.352 0.786 0.535c0.253 0.181 0.506 0.357 0.739 0.563 0.225 0.198 0.302 0.458 0.175 0.726zM17.923 14.515c-0.101 0.002-0.062-0-0.023-0.001-0.163-0.006-0.252-0.102-0.27-0.258-0.013-0.114-0.023-0.23-0.050-0.341-0.054-0.219-0.17-0.422-0.354-0.556-0.087-0.063-0.186-0.11-0.289-0.139-0.131-0.038-0.267-0.027-0.398-0.059-0.142-0.035-0.221-0.15-0.198-0.283 0.020-0.121 0.138-0.216 0.271-0.206 0.828 0.060 1.421 0.488 1.505 1.463 0.006 0.069 0.013 0.142-0.002 0.207-0.025 0.107-0.101 0.163-0.179 0.173 0.006 0 0.005 0.001-0.012 0.002zM17.408 12.285c-0.254-0.124-0.529-0.202-0.808-0.248-0.122-0.020-0.245-0.032-0.367-0.049-0.148-0.021-0.227-0.115-0.221-0.261 0.007-0.137 0.107-0.235 0.256-0.227 0.49 0.028 0.964 0.134 1.4 0.365 0.887 0.47 1.393 1.21 1.541 2.2 0.007 0.045 0.017 0.089 0.021 0.134 0.008 0.111 0.014 0.222 0.022 0.369-0.003 0.027-0.005 0.089-0.021 0.149-0.057 0.214-0.382 0.241-0.457 0.025-0.022-0.064-0.026-0.137-0.026-0.207-0.001-0.453-0.099-0.905-0.327-1.298-0.235-0.405-0.593-0.745-1.013-0.951zM20.147 15.343c-0.171 0.002-0.248-0.141-0.259-0.295-0.022-0.304-0.037-0.609-0.079-0.911-0.221-1.592-1.49-2.909-3.075-3.191-0.238-0.043-0.483-0.054-0.724-0.079-0.153-0.016-0.353-0.025-0.386-0.215-0.028-0.159 0.106-0.286 0.258-0.294 0.041-0.002 0.083-0 0.124-0 2.052 0.057 0.125 0.004 0.006 0 2.134 0.062 3.886 1.479 4.262 3.59 0.064 0.36 0.087 0.728 0.115 1.093 0.012 0.154-0.075 0.3-0.241 0.302z"></path>
<path fill="#f6f7f7" d="M2.667 15.999c0 13.333 0 13.333 13.333 13.333s13.333 0 13.333-13.333 0-13.333-13.333-13.333-13.333 0-13.333 13.333zM24.434 18.511l-0.005 0.021c-0.426 1.722-2.346 3.57-4.11 3.954l-0.020 0.004c-1.426 0.272-2.863 0.408-4.299 0.408-0.423 0-0.845-0.013-1.268-0.037l-1.948 2.024c-0.482 0.502-1.33 0.16-1.33-0.535v-1.922c-1.698-0.485-3.475-2.248-3.884-3.896l-0.005-0.021c-0.527-2.405-0.527-4.844 0-7.249l0.005-0.021c0.427-1.722 2.347-3.57 4.11-3.954l0.021-0.004c2.852-0.544 5.744-0.544 8.597 0l0.020 0.004c1.764 0.384 3.684 2.232 4.11 3.954l0.005 0.021c0.527 2.405 0.527 4.844 0 7.249z"></path>
</svg>
