<!-- Generated by IcoMoon.io -->
<svg version="1.1" xmlns="http://www.w3.org/2000/svg" width="32" height="32" viewBox="0 0 32 32">
<title>worker</title>
<path fill="#f6f7f7" d="M14.573 20.599c-1.491-0.213-3.645-1.262-3.645-1.262-4.323 1.054-9.364 3.527-9.364 6.761v5.534h7.999v-8.799c0 0 0.358 0 0.8 0s0.8 0 0.8 0v8.799h9.599v-8.799c0 0 0.358 0 0.8 0s0.8 0 0.8 0v8.799h7.999v-5.534c0-3.235-4.733-5.707-9.055-6.761 0 0-2.292 1.056-3.867 1.262-1.109 0.145-1.757 0.158-2.865 0z"></path>
<path fill="#ffc935" d="M16.762 0.368c0.854 0.11 1.663 0.39 2.4 0.785v3.283c0 0 0.358 0 0.8 0s0.8 0 0.8 0v-2.159c0.987 0.881 1.728 1.951 2.11 2.972 0.015 0.375-0.026 0.763-0.1 1.14-0.093 0.479-0.234 0.909-0.352 1.221-0.059 0.155-0.112 0.28-0.149 0.364-0.019 0.042-0.034 0.074-0.044 0.095l-0.011 0.023-0.21 0.383c0 0 0.189 0.104 0.406 0.212s0.344 0.165 0.344 0.165 0.184-0.276 0.285-0.477c0.084-0.167 0.137-0.282 0.202-0.454 0.13-0.344 0.288-0.823 0.393-1.365 0.018-0.094 0.035-0.19 0.050-0.289 0.685 0.896 1.075 1.825 1.075 2.627 0 2.551-3.939 2.86-8.799 2.86s-8.799-0.308-8.799-2.86c0-0.752 0.453-1.711 1.060-2.554-0.026 0.717 0.229 1.812 0.712 2.477l0.629-0.462c-0.906-0.989-0.645-2.133-0.356-3.087 0.141-0.464 0.324-0.875 0.472-1.17 0.074-0.147 0.139-0.264 0.185-0.344 0.023-0.040 0.041-0.070 0.053-0.090l0.013-0.022 0.003-0.005c0.004-0.006 0.007-0.012 0.011-0.018 0.344-0.473 0.754-0.929 1.218-1.344v2.226c0 0 0.353 0 0.795 0s0.805 0 0.805 0v-3.35c0.737-0.395 1.546-0.675 2.4-0.785v2.468c0 0 0.358 0 0.8 0s0.8 0 0.8 0v-2.468z"></path>
<path fill="#f6f7f7" d="M10.408 12.034c0.228 2.883 2.64 5.152 5.582 5.152 3.092 0 5.525-2.358 5.749-5.237l1.45-0.362c0 3.976-3.223 7.199-7.199 7.199s-7.199-3.223-7.199-7.199l1.617 0.447z"></path>
</svg>
