<svg width="60" height="60" viewBox="0 0 60 60" fill="none" xmlns="http://www.w3.org/2000/svg">
<g clip-path="url(#clip0_160_1407)">
<path d="M24.1016 2.99023L57.5 19" stroke="#F6F7F7" stroke-width="4" stroke-linecap="square" stroke-linejoin="round"/>
<path d="M27.3452 20.6816L3 32" stroke="#F6F7F7" stroke-width="4" stroke-linecap="square" stroke-linejoin="round"/>
<path fill-rule="evenodd" clip-rule="evenodd" d="M55.3633 56.0371V20.022L26.6094 5.01562V57.5378H53.7658C54.1895 57.5378 54.5958 57.3797 54.8954 57.0982C55.195 56.8168 55.3633 56.4351 55.3633 56.0371ZM46.9593 31.2495C47.6858 30.2452 48.0736 29.0645 48.0736 27.8566C48.0898 27.0506 47.9297 26.2497 47.6032 25.5021C47.2766 24.7544 46.7902 24.0753 46.1729 23.5052C45.5557 22.9351 44.8203 22.4858 44.0108 22.1842C43.2013 21.8826 42.3342 21.7348 41.4615 21.7497C40.1537 21.7497 38.8753 22.1079 37.788 22.7789C36.7006 23.4499 35.8531 24.4037 35.3527 25.5196C34.8522 26.6355 34.7213 27.8634 34.9764 29.048C35.2316 30.2326 35.8613 31.3208 36.786 32.1749C37.7107 33.0289 38.8889 33.6105 40.1715 33.8462C41.4542 34.0818 42.7836 33.9609 43.9918 33.4987C45.2001 33.0365 46.2327 32.2537 46.9593 31.2495ZM35.0703 38H37.0703H46.0703H48.0703V40V57.5H44.0703V42H39.0703V57.5H35.0703V40V38Z" fill="#F6F7F7"/>
<path d="M46.9576 31.2488C47.6841 30.2445 48.0719 29.0638 48.0719 27.856C48.088 27.0499 47.928 26.2491 47.6014 25.5014C47.2749 24.7538 46.7884 24.0746 46.1712 23.5045C45.554 22.9345 44.8186 22.4852 44.0091 22.1836C43.1996 21.8819 42.3325 21.7342 41.4598 21.7491C40.152 21.7491 38.8736 22.1072 37.7863 22.7783C36.6989 23.4493 35.8514 24.4031 35.351 25.519C34.8505 26.6349 34.7196 27.8628 34.9747 29.0474C35.2298 30.232 35.8596 31.3202 36.7843 32.1742C37.709 33.0283 38.8872 33.6099 40.1698 33.8456C41.4524 34.0812 42.7819 33.9603 43.9901 33.498C45.1983 33.0358 46.231 32.2531 46.9576 31.2488Z" fill="#FFC935"/>
<path d="M52 3V17L44 13V3H52Z" fill="#F6F7F7" stroke="#F6F7F7" stroke-width="4"/>
<path d="M1.98828 57.5371H58.0093" stroke="#F6F7F7" stroke-width="4" stroke-linecap="square" stroke-linejoin="round"/>
<path fill-rule="evenodd" clip-rule="evenodd" d="M5.00255 56.3037V30.9029L29 20V57.9971H6.50239C6.3023 58.0107 6.10193 57.9762 5.91451 57.8959C5.72709 57.8156 5.55688 57.6913 5.41514 57.5313C5.27339 57.3713 5.16332 57.1791 5.0922 56.9675C5.02108 56.7559 4.99053 56.5297 5.00255 56.3037ZM24.1016 38.2475H12.1016V50.2475H24.1016V38.2475Z" fill="#F6F7F7"/>
</g>
<defs>
<clipPath id="clip0_160_1407">
<rect width="60" height="60" fill="white"/>
</clipPath>
</defs>
</svg>
