<svg width="60" height="60" viewBox="0 0 60 60" fill="none" xmlns="http://www.w3.org/2000/svg">
<path d="M46.6647 53.9273C46.6647 53.9273 39.7577 51.9908 38.9202 49.4494C38.9202 49.2183 38.9202 48.9873 38.7109 48.9873H20.0779C20.0779 49.2183 20.0779 49.4494 19.8685 49.4494C19.2404 51.9908 12.3125 54.1556 12.3125 54.1556C12.3125 54.1556 12.3125 54.4404 12.3125 55.8266C12.3125 57.2128 12.3125 58.2288 12.3125 58.2288L46.6647 58.4173C46.6647 58.4173 46.6647 57.3175 46.6647 55.9313C46.6647 54.5451 46.6647 53.9273 46.6647 53.9273Z" fill="#FFC935"/>
<path d="M52.5294 1.70117H6.47024C2.91113 1.70117 0.189453 1.70117 0.189453 1.70117V39.3859C0.189453 42.945 0.189453 45.6667 0.189453 45.6667H20.9161H37.8742H58.8101C58.8101 45.6667 58.8101 42.945 58.8101 39.3859V1.70117C58.8101 1.70117 56.0885 1.70117 52.5294 1.70117ZM46.2486 35.1987H12.751C11.4949 35.1987 10.6574 34.3613 10.6574 33.1051C10.6574 31.849 11.4949 31.0115 12.751 31.0115H13.1697V30.5928C13.1697 26.8243 14.4259 23.4746 16.5195 20.5435L19.0321 27.777L22.5357 26.4247L19.6599 16.147C19.6599 15.5189 20.0786 14.8908 20.7067 14.4721C26.15 11.7504 32.6402 11.7504 38.0835 14.4721C38.7116 14.8908 39.1303 15.5189 39.1303 16.147L36.1886 26.4247L39.8542 27.777L42.2707 20.5435C44.3643 23.4746 45.6205 26.8243 45.6205 30.5928V31.0115H46.2486C47.5047 31.0115 48.3422 31.849 48.3422 33.1051C48.3422 34.3613 47.5047 35.1987 46.2486 35.1987Z" fill="#F6F7F7"/>
</svg>
