<svg width="60" height="60" viewBox="0 0 60 60" fill="none" xmlns="http://www.w3.org/2000/svg">
<path d="M56.25 33.4641L47.7563 20.625C47.7563 20.625 47.1584 20.625 46.875 20.625H37.5C36.9544 20.625 35.625 20.625 35.625 20.625C35.625 20.625 35.625 21.9206 35.625 22.5V38.25C34.125 38.8125 32.8125 39.9375 31.875 41.25H28.125L27.9938 36.15C28.1813 35.9625 28.425 35.8688 28.6125 35.6813L33.5625 23.4375C33.75 22.875 33.75 22.125 33.375 21.5625C30.9375 18.1875 27 15.1875 22.3125 13.3125C20.625 12.75 18.9375 12.375 17.4375 12L7.5 36V39.375C5.25 41.0625 3.75 43.6875 3.75 46.875C3.75 52.125 7.875 56.25 13.125 56.25C18.375 56.25 22.5 52.125 22.5 46.875C22.5 46.3125 22.5 45.5625 22.3125 45H30.1875C30 45.5625 30 46.3125 30 46.875C30 52.125 34.125 56.25 39.375 56.25C44.625 56.25 48.75 52.125 48.75 46.875H56.25C56.25 46.875 56.25 46.125 56.25 45V33.4641ZM13.125 52.5C9.9375 52.5 7.5 50.0625 7.5 46.875C7.5 43.6875 9.9375 41.25 13.125 41.25C16.3125 41.25 18.75 43.6875 18.75 46.875C18.75 50.0625 16.3125 52.5 13.125 52.5ZM39.375 24.375H45.9375L51 31.875H49.3125C47.4375 31.875 45.75 30.75 45 29.25C44.4375 28.5 43.875 28.125 43.125 28.125H39.375V24.375ZM39.375 52.5C36.1875 52.5 33.75 50.0625 33.75 46.875C33.75 43.6875 36.1875 41.25 39.375 41.25C42.5625 41.25 45 43.6875 45 46.875C45 50.0625 42.5625 52.5 39.375 52.5Z" fill="#F6F7F7"/>
<path d="M13.9503 11.4376C12.2628 11.2501 10.5753 11.2501 9.07531 11.6251C8.32531 11.6251 7.76281 12.1876 7.57531 12.7501L2.51281 25.3126C2.32531 25.8751 2.32531 26.6251 2.70031 27.1876C3.63781 28.5001 4.76281 29.6251 6.07531 30.7501C12.1642 34.5596 15.7935 35.7022 22.5751 36.4395C24.2626 36.627 25.9501 36.627 27.4501 36.252C28.2001 36.252 28.7626 35.6895 28.9501 35.127L34.0126 22.5645C34.2001 22.002 34.2001 21.252 33.8251 20.6895C32.8876 19.377 32.0506 18.1811 30.4501 17.127C24.4877 13.2001 20.8103 12.1684 13.9503 11.4376Z" fill="#FFC935"/>
</svg>
