<svg width="60" height="60" viewBox="0 0 60 60" fill="none" xmlns="http://www.w3.org/2000/svg">
<path fill-rule="evenodd" clip-rule="evenodd" d="M46.1375 17.0782L46.2556 17.2215L46.3174 17.2965L46.4258 17.4281L48.1677 19.5416L49.7173 21.422L50.8331 22.7758L52.0582 24.2623L54.2225 26.8885L54.3476 27.0403C54.4264 27.1346 54.4751 27.2514 54.4888 27.3731L54.5094 27.5598L54.9349 31.4221L55.0149 32.1489L55.015 32.1491L55.0344 32.3259L55.0592 32.5504L55.0736 32.6819C55.089 32.8242 55.0561 32.9645 54.9837 33.0825C54.98 33.0885 54.9762 33.0945 54.9723 33.1004C54.9437 33.2515 54.8611 33.3889 54.7364 33.4853L54.2385 33.8695L56.0994 36.8642L56.1519 36.9487L56.17 36.9778L55.2468 37.7194L55.1667 37.7837C55.1311 37.7477 55.0943 37.7096 55.0563 37.6698C54.8303 37.4326 54.5644 37.1324 54.2943 36.8174L52.6253 35.1142L52.3715 35.31C52.2558 35.3995 52.1192 35.443 51.9826 35.443C51.7976 35.443 51.6149 35.3622 51.4895 35.2082L40.8891 22.1875L40.5626 22.5957C40.4422 22.7461 40.2595 22.8342 40.0658 22.8342C39.8721 22.8342 39.6894 22.7461 39.569 22.5957L39.2425 22.1875L28.6414 35.2082C28.516 35.3622 28.3327 35.443 28.1477 35.443C28.0122 35.443 27.875 35.3995 27.7595 35.31L27.506 35.1144L25.3272 37.3381C25.3157 37.3498 25.3039 37.361 25.2918 37.3716L25.0509 37.6517L24.9479 37.7714L24.8857 37.7216L23.9857 37.0004L24.0084 36.9632L25.8978 33.873L25.3957 33.4855C25.2676 33.3864 25.1837 33.2441 25.1574 33.0882C25.1118 33.0157 25.0813 32.9347 25.0679 32.8497C25.0593 32.795 25.0579 32.7387 25.0641 32.682L25.1032 32.3262L25.1226 32.1497L25.1226 32.1496L25.2026 31.4227L25.6272 27.5601L25.6478 27.3733C25.6616 27.2515 25.7103 27.1348 25.789 27.0404L25.9144 26.8883L28.0778 24.2634L29.3038 22.7759L30.4198 21.4217L31.9695 19.5414L33.7115 17.4279L33.8198 17.2965L33.8816 17.2214L33.9997 17.0782L34.0037 17.0733L34.333 16.6738L34.4966 16.4752L34.5859 16.367L34.4813 16.2362C34.3918 16.1231 34.3421 15.9828 34.3421 15.8387V15.8061C34.3211 15.7425 34.31 15.6756 34.31 15.6079V15.6078V11.7744V11.5958V11.387H16.1688V11.4582V50.4483V52.0293L14.5903 51.9463L14.5902 51.9463L14.59 51.9462L14.5899 51.9462L14.5871 51.9461L14.5738 51.9454L14.5169 51.9427C14.4659 51.9404 14.3893 51.9371 14.2902 51.9334C14.0919 51.9259 13.8039 51.9166 13.4504 51.9099C12.7418 51.8964 11.7783 51.8932 10.7513 51.9335C9.71881 51.974 8.65245 52.0574 7.7287 52.2101C6.75478 52.3711 6.12925 52.5807 5.83874 52.7672L5.02823 51.505L5.83874 52.7672C5.55192 52.9514 5.37757 53.0944 5.22175 53.2921C5.07706 53.4757 4.9023 53.7664 4.71528 54.2787C6.73816 55.7749 11.5587 55.9681 13.3335 55.9045L13.3553 56.5405V55.9045H57.8728H59.7807V53.9966L59.7806 13.2947V11.3868H57.8727H45.8271V11.5957V11.7744V15.6078V15.6079C45.8271 15.6814 45.8141 15.7539 45.7893 15.8223V15.8386C45.7893 15.9827 45.7396 16.123 45.6502 16.2361L45.5484 16.3634L45.6405 16.4752L45.8043 16.6738L46.1335 17.0733L46.1375 17.0782Z" fill="#F6F7F7"/>
<path d="M6.46485 11.709C6.83934 11.6046 7.26956 11.5184 7.74123 11.4513V43.4949C7.26414 43.5531 6.76266 43.6293 6.25 43.7299V11.7729C6.31529 11.7522 6.38678 11.7308 6.46485 11.709Z" fill="#F6F7F7" stroke="#FFC935" stroke-width="12.5"/>
<path fill-rule="evenodd" clip-rule="evenodd" d="M44.6052 10.8068V8.37023C44.6052 7.96547 44.6052 6.90828 44.6052 6.90828C44.6052 6.90828 43.5152 6.90828 43.1026 6.90828H41.6001V3.98438C41.6001 3.98438 40.926 3.98438 40.0975 3.98438C39.269 3.98438 38.595 3.98438 38.595 3.98438V6.90828H37.0924C36.6604 6.90828 35.5898 6.90828 35.5898 6.90828C35.5898 6.90828 35.5898 7.98448 35.5898 8.37023V11.7814V15.1927C35.5898 15.3031 35.629 15.4106 35.6994 15.4972L35.8672 15.7013L39.4491 20.0576L39.7063 20.3703C39.8011 20.4855 39.945 20.5531 40.0975 20.5531C40.2501 20.5531 40.3939 20.4855 40.4888 20.3703L40.7459 20.0576L44.3277 15.7012L44.4955 15.4971C44.5659 15.4105 44.6051 15.303 44.6051 15.1926V11.7813L44.6052 10.8068ZM41.7724 14.1142C41.7852 13.2011 41.0107 12.4695 40.0975 12.4823C39.1972 12.4949 38.4557 13.1689 38.4688 14.1142C38.4817 15.0477 39.2095 15.6888 40.0975 15.7012C40.9985 15.7138 41.7599 15.0152 41.7724 14.1142Z" fill="#F6F7F7"/>
</svg>
