<svg width="60" height="60" viewBox="0 0 60 60" fill="none" xmlns="http://www.w3.org/2000/svg">
<path fill-rule="evenodd" clip-rule="evenodd" d="M27.3242 38.6223C24.5283 38.223 20.4903 36.2559 20.4903 36.2559C12.3853 38.233 2.93359 42.869 2.93359 48.9337V59.3108H17.9315V42.8132C17.9315 42.8132 18.6029 42.8132 19.4313 42.8132C20.2596 42.8132 20.9311 42.8132 20.9311 42.8132V59.3108H38.9285V42.8132C38.9285 42.8132 39.6 42.8132 40.4283 42.8132C41.2566 42.8132 41.9281 42.8132 41.9281 42.8132V59.3108H56.926V48.9337C56.926 42.869 48.0522 38.233 39.9472 36.2559C39.9472 36.2559 35.6496 38.2357 32.696 38.6223C30.6159 38.8945 29.4009 38.9188 27.3242 38.6223Z" fill="#F6F7F7"/>
<path fill-rule="evenodd" clip-rule="evenodd" d="M31.4291 0.689453C33.03 0.895464 34.5464 1.42043 35.9285 2.16096V8.31666C35.9285 8.31666 36.5999 8.31666 37.4283 8.31666C38.2566 8.31666 38.928 8.31666 38.928 8.31666V4.26897C40.7779 5.92093 42.1685 7.92631 42.8849 9.84137C42.9122 10.5448 42.8361 11.2716 42.6982 11.9786C42.5233 12.876 42.2595 13.6831 42.0379 14.2677C41.9275 14.559 41.8286 14.7923 41.7583 14.9509C41.7231 15.03 41.6952 15.0905 41.6766 15.1299L41.656 15.1731L41.2614 15.892C41.2614 15.892 41.6154 16.0862 42.0232 16.2887C42.4313 16.4913 42.6672 16.5982 42.6672 16.5982C42.6672 16.5982 43.0119 16.0802 43.2019 15.7039C43.3597 15.3913 43.458 15.1757 43.5805 14.8526C43.8247 14.2085 44.1199 13.3087 44.3175 12.2941C44.3517 12.1187 44.3834 11.9378 44.4114 11.7524C45.6964 13.4326 46.427 15.1737 46.427 16.6782C46.427 21.4616 39.0407 22.0399 29.9293 22.0399C20.8179 22.0399 13.4316 21.4616 13.4316 16.6782C13.4316 15.2682 14.2816 13.4701 15.4199 11.8893C15.371 13.2345 15.8487 15.2859 16.7544 16.534L17.9329 15.6675C16.2345 13.8131 16.7228 11.6677 17.265 9.87932C17.5288 9.00869 17.8719 8.23888 18.1509 7.68477C18.2899 7.40876 18.4115 7.18891 18.4973 7.03986C18.5402 6.96539 18.5741 6.90878 18.5965 6.87185L18.6214 6.83149L18.6275 6.82153C18.6346 6.81053 18.6412 6.7994 18.6476 6.78816C19.2921 5.90102 20.0606 5.0459 20.9306 4.26895V8.44222C20.9306 8.44222 21.5927 8.44222 22.4211 8.44222C23.2494 8.44222 23.9302 8.44222 23.9302 8.44222V2.16094C25.3122 1.42043 26.8287 0.895464 28.4295 0.689453V5.31708C28.4295 5.31708 29.101 5.31708 29.9293 5.31708C30.7576 5.31708 31.4291 5.31708 31.4291 5.31708V0.689453Z" fill="#FFC935"/>
<path fill-rule="evenodd" clip-rule="evenodd" d="M19.515 22.5631C19.9422 27.9692 24.4646 32.2231 29.9805 32.2231C35.7787 32.2231 40.3402 27.8022 40.7604 22.4035L43.4786 21.7246C43.4786 29.1795 37.4354 35.2227 29.9805 35.2227C22.5257 35.2227 16.4824 29.1795 16.4824 21.7246L19.515 22.5631Z" fill="#F6F7F7"/>
</svg>
