<svg width="60" height="60" viewBox="0 0 60 60" fill="none" xmlns="http://www.w3.org/2000/svg">
<path fill-rule="evenodd" clip-rule="evenodd" d="M48.2759 29.6891V55.4483V57.1724H46.5517H1.72414H0V55.4483V3.72414V2H1.72414H46.5517H48.2759V3.72414V16.0909L29.5742 34.7276L27.3571 42.9907C27.3221 43.0988 27.3176 43.2145 27.3443 43.325C27.3709 43.4355 27.4276 43.5365 27.508 43.6167C27.5885 43.697 27.6895 43.7534 27.8 43.7797C27.9105 43.806 28.0262 43.8012 28.1341 43.7658L36.3726 41.5529L48.2759 29.6891ZM8.27586 8.93829V7.32799H41.7672V8.93829V10.5486H8.27586V8.93829ZM8.27586 25.0413V23.431H25.8374V25.0413V26.6516H8.27586V25.0413ZM36.6293 18.6001L39.4397 15.3795H8.27586V16.9898V18.6001H36.6293ZM19.209 49.3407C19.7504 49.9615 20.4376 50.4381 21.2088 50.7276C21.98 51.0171 22.811 51.1105 23.6272 50.9993H39.3337C39.7074 50.9993 40.0658 50.8508 40.33 50.5866C40.5942 50.3223 40.7427 49.964 40.7427 49.5903C40.7427 49.2166 40.5942 48.8582 40.33 48.5939C40.0658 48.3297 39.7074 48.1813 39.3337 48.1813H23.6272C21.7935 48.149 22.1196 46.5569 22.3772 46.0637C22.7131 45.4849 22.9749 44.8661 23.1562 44.2219C23.2766 43.7036 23.2199 43.1599 22.9951 42.6776C22.7704 42.1953 22.3906 41.8022 21.9163 41.5609C21.1543 41.2176 20.3008 41.1335 19.4865 41.3215C18.6722 41.5094 17.9419 41.9591 17.4075 42.6016C16.715 43.3161 15.7529 44.4091 14.831 45.4719C15.4006 43.2396 16.1393 40.3753 16.864 37.5815C17.0716 36.9449 17.0303 36.2532 16.7483 35.6459C16.4663 35.0386 15.9646 34.5607 15.3443 34.3085C14.6573 34.0728 13.9065 34.1065 13.2434 34.4028C12.5803 34.699 12.0542 35.2358 11.7714 35.9047C10.9763 37.4342 5.15263 47.21 4.10883 48.9622L3.94939 49.23C3.8545 49.3888 3.79182 49.5648 3.76494 49.7479C3.73807 49.931 3.74751 50.1176 3.79275 50.297C3.83798 50.4765 3.91811 50.6452 4.02857 50.7937C4.13902 50.9422 4.27764 51.0674 4.43651 51.1623C4.75735 51.354 5.14118 51.4103 5.50357 51.319C5.86596 51.2276 6.17721 50.996 6.36886 50.6752L6.47007 50.5054C7.27323 49.1585 12.2258 40.8529 13.8547 37.9639C12.5504 42.9961 11.1132 48.5959 11.0287 49.0991C10.9335 49.4691 10.9621 49.86 11.11 50.2122C11.2579 50.5644 11.5171 50.8585 11.8479 51.0496C12.2164 51.2323 12.6352 51.2872 13.0383 51.2056C13.4414 51.1239 13.8058 50.9104 14.0741 50.5987C14.3278 50.3692 14.8028 49.8238 16.0005 48.4329C17.1163 47.1205 18.2592 45.8313 19.4284 44.5661C19.8672 44.1032 20.1329 44.3085 19.8752 44.7634C19.3713 45.4003 19.0444 46.159 18.9278 46.9627C18.8111 47.7665 18.9068 48.5868 19.209 49.3407Z" fill="#F6F7F7"/>
<path d="M57.8071 19.3471L56.9054 18.4453L58.9978 16.1271L54.5366 12.0215L30.3795 36.1384L28.9364 41.5557C28.9136 41.6266 28.9108 41.7024 28.9284 41.7747C28.946 41.8471 28.9833 41.9132 29.0361 41.9657C29.089 42.0181 29.1553 42.055 29.2278 42.0721C29.3003 42.0892 29.3761 42.0859 29.4468 42.0626L34.8451 40.6022L55.0037 20.4436L55.8554 21.297C55.9149 21.3565 55.9621 21.427 55.9943 21.5047C56.0265 21.5823 56.043 21.6656 56.043 21.7496C56.043 21.8337 56.0265 21.9169 55.9943 21.9946C55.9621 22.0723 55.9149 22.1428 55.8554 22.2022L49.0127 29.0478L50.9644 30.9978L57.8071 24.1522C58.4443 23.5147 58.8022 22.6502 58.8022 21.7488C58.8022 20.8474 58.4443 19.9829 57.8071 19.3453V19.3471Z" fill="#FFC935"/>
</svg>
