<svg width="60" height="60" viewBox="0 0 60 60" fill="none" xmlns="http://www.w3.org/2000/svg">
<g clip-path="url(#clip0_160_1455)">
<path d="M47.5537 46.0252C47.553 46.7109 47.7 47.3885 47.9845 48.0116C48.2689 48.6347 48.6842 49.1884 49.2017 49.6346C49.7193 50.0808 50.3267 50.409 50.9823 50.5965C51.638 50.784 52.3262 50.8264 52.9997 50.7209C53.9872 50.539 54.8897 50.0404 55.5721 49.2997C56.2544 48.5589 56.68 47.6158 56.7851 46.6114C56.8902 45.607 56.6692 44.5955 56.1551 43.728C55.6411 42.8605 54.8616 42.1838 53.9333 41.7991C53.4018 41.554 52.955 41.155 52.6501 40.6532C52.3452 40.1513 52.1961 39.5693 52.2217 38.9817V17.8262" stroke="#FFC935" stroke-width="3" stroke-linecap="square" stroke-linejoin="round"/>
<path d="M2.42809 19.4157C2.2205 19.4283 0.870861 19.4157 0.870861 19.4157C0.870861 19.4157 0.859618 18.0593 0.872097 17.8505V16.1288C0.857129 15.6832 0.985252 15.2447 1.2375 14.8782C1.48974 14.5117 1.85267 14.2367 2.27248 14.094L13.3201 10.0244V0.43457L21.1 1.88528C21.5284 1.98316 21.9128 2.22009 22.194 2.55954C22.4752 2.89898 22.6376 3.32207 22.656 3.76354V10.0244L58.4439 14.407C58.8622 14.4665 59.2466 14.6711 59.5307 14.9855C59.8149 15.2999 59.9808 15.7043 59.9999 16.1288V17.8505L59.9998 19.4157H58.4439H22.656V59.9549H13.3201V19.4157H2.42809Z" fill="#F6F7F7"/>
</g>
<defs>
<clipPath id="clip0_160_1455">
<rect width="60.0001" height="60" fill="white"/>
</clipPath>
</defs>
</svg>
