<svg width="82" height="60" viewBox="0 0 82 60" fill="none" xmlns="http://www.w3.org/2000/svg">
<g clip-path="url(#clip0_160_1578)">
<path d="M43.6303 25.7457C43.8033 25.5181 43.9481 25.2668 44.0701 25.0205C44.4201 24.3135 44.7063 23.3897 44.9369 22.3512C45.3999 20.2662 45.6699 17.5746 45.7191 14.8783C45.7682 12.1829 45.5974 9.43747 45.1584 7.24766C44.9394 6.15525 44.6471 5.16694 44.2621 4.38339C44.0776 4.00803 43.5599 3.31083 43.2939 3.00781L75.6924 3.34657C81.1139 4.38339 85.5631 16.5136 77.9006 25.0205L43.6303 25.7457Z" fill="#F6F7F7"/>
<path d="M42.0813 25.414C42.0813 25.414 38.0965 22.4826 38.0967 13.866C38.0969 4.38339 41.6207 3.00781 41.6207 3.00781C42.3239 3.15299 42.7654 4.08323 43.0029 4.99195C43.2939 6.105 43.4311 6.52658 43.6365 7.55138C44.0464 9.596 44.2152 12.2222 44.1673 14.8501C44.1194 17.4771 43.8559 20.0604 43.4216 22.0162C43.2035 22.9982 42.9501 23.7863 42.6786 24.3346C42.3815 24.9346 42.0813 25.414 42.0813 25.414Z" fill="#F6F7F7"/>
<path d="M0.0625 39.193L74.2372 39.193L73.4612 30.6758H0.0625V39.193Z" fill="#FFD74A"/>
<path d="M42.129 10.6543L34.1748 11.1382L34.5143 19.2683L42.517 18.8328C42.517 18.8328 43.4525 15.7428 43.196 13.7999C43.0254 12.5077 42.129 10.6543 42.129 10.6543Z" fill="#FFD74A"/>
<path d="M36.5833 8.92188C36.5833 8.92188 9.99789 9.16906 6.28785 10.9354C5.02721 11.5356 3.86229 12.3072 3.24857 12.7375C2.95258 12.945 2.75169 13.2547 2.67186 13.6067C2.14112 15.9473 0.688477 23.625 0.688477 23.625L6.68848 34.625L15.8135 37.0625L20.876 29L31.0635 22.9375L36.5833 21.8111V19.1847V11.0676V8.92188Z" fill="#F6F7F7"/>
<path d="M71.715 41.8304V53.6626L79.4752 58.1148L81.3182 56.2759V26.7559H72.297L72.2349 29.6275C71.3257 29.883 70.3614 30.2199 69.678 30.4821L70.7138 39.193H67.5439V40.2894L70.9148 41.8392V41.8304H71.715Z" fill="#F6F7F7"/>
<path d="M72.4912 50.0332H61.4814V52.1141C61.4814 52.1141 72.4912 52.0367 72.4912 52.1141V50.0332Z" fill="#FFD74A"/>
<g filter="url(#filter0_d_160_1578)">
<path d="M74.5023 48.8008L71.9393 49.5186C71.4716 50.7123 71.6404 51.1721 71.9393 52.4348L74.907 53.1078C75.523 51.3287 75.2542 49.6719 74.5023 48.8008Z" fill="#FFD74A"/>
</g>
</g>
<defs>
<filter id="filter0_d_160_1578" x="67.6484" y="48.8008" width="11.5996" height="12.3066" filterUnits="userSpaceOnUse" color-interpolation-filters="sRGB">
<feFlood flood-opacity="0" result="BackgroundImageFix"/>
<feColorMatrix in="SourceAlpha" type="matrix" values="0 0 0 0 0 0 0 0 0 0 0 0 0 0 0 0 0 0 127 0" result="hardAlpha"/>
<feOffset dy="4"/>
<feGaussianBlur stdDeviation="2"/>
<feComposite in2="hardAlpha" operator="out"/>
<feColorMatrix type="matrix" values="0 0 0 0 0 0 0 0 0 0 0 0 0 0 0 0 0 0 0.25 0"/>
<feBlend mode="normal" in2="BackgroundImageFix" result="effect1_dropShadow_160_1578"/>
<feBlend mode="normal" in="SourceGraphic" in2="effect1_dropShadow_160_1578" result="shape"/>
</filter>
<clipPath id="clip0_160_1578">
<rect width="82" height="60" fill="white"/>
</clipPath>
</defs>
</svg>
