<svg width="60" height="60" viewBox="0 0 60 60" fill="none" xmlns="http://www.w3.org/2000/svg">
<path d="M30.9844 37.0781V29.5312L43.0782 23.4844V31.0312L30.9844 37.0781Z" fill="#F6F7F7"/>
<path d="M45.0938 22.4531V29.8594L56.2501 24.5625V18.0938C56.2636 17.2456 56.1853 16.8823 55.6407 16.6406L30.0469 3.46875C30.0469 3.46875 5.25333 15.8863 4.54694 16.4062C3.84055 16.9262 3.75161 17.3347 3.79694 18.1406V24.4688L15.0469 30.0938V22.4062L7.59381 18.6562L30.0469 7.5L52.6407 18.7031L45.0938 22.4531Z" fill="#F6F7F7"/>
<path d="M16.8751 31.0312V23.4844L29.1563 29.5312V37.0781L16.8751 31.0312Z" fill="#F6F7F7"/>
<path d="M9.37506 36.6094V29.1094L20.5782 34.6406V42.2344L9.37506 36.6094Z" fill="#F6F7F7"/>
<path d="M7.59381 28.1719L3.79694 26.2969V33.8906L7.59381 35.7188V28.1719Z" fill="#F6F7F7"/>
<path d="M3.79694 35.7188L15.0469 41.2969V48.8906L4.54694 43.6406C3.99515 43.3831 3.79621 42.9439 3.79694 42.2344V35.7188Z" fill="#F6F7F7"/>
<path d="M16.8751 49.7812V42.2344L29.1563 48.3281V56.3906L16.8751 49.7812Z" fill="#F6F7F7"/>
<path d="M22.5001 43.125V35.7188L29.1563 39V46.5L22.5001 43.125Z" fill="#F6F7F7"/>
<path d="M30.9844 46.5V39L37.5001 35.7188V43.125L30.9844 46.5Z" fill="#F6F7F7"/>
<path d="M30.9844 56.3906V48.3281L43.0782 42.2344V49.7812L30.9844 56.3906Z" fill="#F6F7F7"/>
<path d="M39.4688 34.6406V42.2344L50.5782 36.7031V29.1094L39.4688 34.6406Z" fill="#F6F7F7"/>
<path d="M56.2501 33.9375L52.4763 35.7188V28.1484L56.2501 26.25V33.9375Z" fill="#F6F7F7"/>
<path d="M45.0938 48.75V41.25L56.2501 35.7188V42C56.2501 42.8708 56.1032 43.3113 55.1719 43.7344L45.0938 48.75Z" fill="#F6F7F7"/>
<path d="M30.0435 9.95996L12.5449 18.8411L30.0435 27.6344L47.498 18.8411L30.0435 9.95996Z" fill="#FFC935"/>
</svg>
