<svg width="60" height="60" viewBox="0 0 60 60" fill="none" xmlns="http://www.w3.org/2000/svg">
<g clip-path="url(#clip0_160_1608)">
<path fill-rule="evenodd" clip-rule="evenodd" d="M30.7388 43.792H11.0002C9.40923 43.792 8.11523 42.4748 8.11523 40.8555V20.292C8.11523 18.6726 9.40923 17.3555 11.0002 17.3555H30.7387C32.3296 17.3555 33.6236 18.6726 33.6236 20.292V23.0931C33.479 23.0334 33.2787 23 33.0014 23H19.998C19.4466 23 18.9998 23.433 18.9998 23.9672V37.0328C18.9998 37.567 19.4466 38 19.998 38H33.0014C33.2367 38 33.453 37.9212 33.6236 37.7892V40.8556C33.6236 42.475 32.3296 43.792 30.7388 43.792Z" fill="#F6F7F7"/>
<path d="M34.0003 24.0002V25.0002V27.0002L49.3082 5.42366H49.9227C50.4515 5.42366 50.8802 4.98733 50.8802 4.44908V1.51365C50.8802 0.975394 50.4515 0.539062 49.9227 0.539062H46.9274C46.624 0.539062 46.3387 0.68523 46.158 0.933457L31.8976 20.5233C31.7754 20.6912 31.7095 20.8945 31.7095 21.1035C31.7095 21.1035 29.4187 23.0002 31.7095 23.0002C34.0002 23.0002 34.0003 23.5002 34.0003 24.0002Z" fill="#F6F7F7"/>
<path d="M32.6658 32.3306C32.2282 32.3306 31.8333 32.0231 31.7328 31.5705C31.6161 31.0455 31.94 30.5241 32.4557 30.4052C34.6906 29.8913 36.3309 28.7698 37.3306 27.0728C39.4788 23.426 38.1114 18.2297 38.0973 18.1776C38.0202 17.8921 38.0749 17.5858 38.2458 17.3462C38.4164 17.1068 38.6849 16.9584 38.9754 16.9446C41.2956 16.8335 42.89 16.1506 43.7134 14.9142C45.0224 12.9487 44.0766 10.093 44.0669 10.0645C43.97 9.77823 44.0085 9.46146 44.1724 9.20876C44.3357 8.95646 44.605 8.79428 44.9016 8.77216C51.09 8.31302 51.9445 4.92159 51.9777 4.77745C52.0977 4.25847 52.6076 3.92664 53.118 4.04268C53.6296 4.15763 53.9564 4.66318 53.8502 5.18556C53.811 5.37746 52.8573 9.67291 46.1645 10.5976C46.403 11.9295 46.5284 14.15 45.3065 15.9958C44.2822 17.5425 42.5621 18.4808 40.1848 18.7931C40.524 20.7388 40.8972 24.799 38.9784 28.0654C37.6997 30.2429 35.6469 31.6697 32.8774 32.3065C32.8065 32.3226 32.7354 32.3306 32.6658 32.3306Z" fill="#FFC935"/>
<path d="M29.0144 48.8072H12.725C12.1962 48.8072 11.7676 48.3709 11.7676 47.8327V42.8174C11.7676 42.279 12.1962 41.8428 12.725 41.8428H29.0144C29.5432 41.8428 29.9718 42.279 29.9718 42.8174V47.8327C29.9718 48.371 29.5432 48.8072 29.0144 48.8072ZM13.6825 46.8582H28.0569V43.7918H13.6825V46.8582Z" fill="#F6F7F7"/>
<path d="M55.8256 57H0.957467C0.428667 57 0 56.5636 0 56.0254C0 55.4871 0.428667 55.0508 0.957467 55.0508H55.8256C56.3544 55.0508 56.7831 55.4871 56.7831 56.0254C56.7831 56.5636 56.3544 57 55.8256 57Z" fill="#F6F7F7"/>
<path d="M6.5373 54.0002H35.2033C37.1374 54.0002 38.7113 52.3984 38.7113 50.4295C38.7113 48.4603 37.1376 46.8584 35.2033 46.8584H6.5373C4.60303 46.8584 3.0293 48.4604 3.0293 50.4295C3.0293 52.3984 4.60303 54.0002 6.5373 54.0002Z" fill="#F6F7F7"/>
<path d="M21.6402 37H31.3598C32.2657 37 32.9998 35.8979 33 34.5384V26.4616C33 25.1021 32.2657 24 31.3598 24H21.6402C20.7341 24 20 25.1021 20 26.4616V34.5384C20 35.8979 20.7341 37 21.6402 37Z" fill="#FFC935"/>
<path d="M13.6083 39.5654H12.2387C11.7099 39.5654 11.2812 39.1291 11.2812 38.5908C11.2812 38.0525 11.7099 37.6162 12.2387 37.6162H13.6083C14.1371 37.6162 14.5658 38.0525 14.5658 38.5908C14.5658 39.1291 14.1371 39.5654 13.6083 39.5654Z" fill="#FFC935"/>
<path d="M59.0427 5.96138H49.9223C49.3935 5.96138 48.9648 5.52505 48.9648 4.9868V0.974586C48.9648 0.436331 49.3935 0 49.9223 0H59.0427C59.5715 0 60.0002 0.436195 60.0002 0.974586V4.98693C60.0002 5.52519 59.5715 5.96138 59.0427 5.96138Z" fill="#F6F7F7"/>
<path d="M36.7247 45.3556C36.4775 45.3556 36.2308 45.259 36.0434 45.0656C35.6721 44.6822 35.6762 44.0657 36.0525 43.6877L38.1681 41.5632C38.5446 41.1852 39.1509 41.189 39.5218 41.5723C39.8931 41.9557 39.8892 42.5724 39.5129 42.9503L37.3973 45.0748C37.2106 45.262 36.9675 45.3556 36.7247 45.3556Z" fill="#F6F7F7"/>
<path d="M40.6965 46.7129C40.3629 46.7129 40.0387 46.5351 39.8625 46.2183C39.6023 45.7497 39.7641 45.1551 40.2243 44.8902L45.2967 41.9693C45.7571 41.7043 46.3408 41.8692 46.6015 42.3374C46.8617 42.806 46.6999 43.4006 46.2399 43.6655L41.1675 46.5864C41.0181 46.672 40.8563 46.7129 40.6965 46.7129Z" fill="#F6F7F7"/>
<path d="M42.1732 50.4008C41.764 50.4008 41.3852 50.1317 41.2584 49.7126C41.1028 49.1982 41.3867 48.6528 41.8919 48.4944L44.9063 47.5499C45.4108 47.3924 45.9475 47.6801 46.103 48.1947C46.2586 48.7091 45.9747 49.2546 45.4695 49.4129L42.4551 50.3574C42.3614 50.3867 42.2667 50.4008 42.1732 50.4008Z" fill="#F6F7F7"/>
</g>
<defs>
<clipPath id="clip0_160_1608">
<rect width="60" height="60" fill="white"/>
</clipPath>
</defs>
</svg>
