<svg width="60" height="60" viewBox="0 0 60 60" fill="none" xmlns="http://www.w3.org/2000/svg">
<path d="M39 13.031L28.4188 10.3382C23.9677 8.94051 21.0719 11.3787 20.2918 12.1613C19.8366 12.6165 19.4881 13.0964 19.3095 13.5144L14.3512 25.1772C14.0672 25.8445 14.1639 26.7337 14.6092 27.6204C15.2466 28.8867 16.3951 29.7995 17.768 30.1281C19.3046 30.4964 20.8982 29.9966 22.1459 28.7502C22.472 28.4241 22.7499 28.0644 22.9136 27.7593L24.5804 24.6675C24.8545 24.1553 25.2526 23.6245 25.6718 23.2053C26.2841 22.5925 27.2656 22.0154 27.2656 22.0154L43.6398 38.2452C44.1049 38.7103 44.0081 39.5921 43.4265 40.1725C42.8461 40.7517 41.9631 40.8509 41.4992 40.3883L36.9933 35.8337L35.3512 37.4376L39.7877 42.101C40.2516 42.5636 40.1548 43.4454 39.5744 44.0246C38.994 44.6062 38.1097 44.703 37.6484 44.2404L33.0625 39.7654L31.5469 41.3435L35.9357 45.9531C36.3995 46.4169 36.2991 47.2987 35.7199 47.8791C35.1407 48.4583 34.2589 48.5575 33.7938 48.0924L29.2344 43.6716L27.6719 45.1404L32.0824 49.8051C32.5475 50.2702 32.4482 51.152 31.8691 51.7324C31.2862 52.3128 30.4044 52.4108 29.9418 51.947L25.4696 47.4711C26.1083 46.5112 25.9347 45.1184 24.9872 44.1672C23.9256 43.1068 22.2922 43.0088 21.3472 43.9564C22.2922 43.0101 22.1992 41.3792 21.1351 40.3164C20.071 39.2547 18.4414 39.1568 17.4964 40.1018C18.4414 39.1568 18.3459 37.5272 17.2806 36.4655C16.219 35.4014 14.5893 35.3047 13.6418 36.2497C14.5893 35.3047 14.4914 33.6751 13.4285 32.6098C12.4339 31.6151 10.9518 31.4799 9.98818 32.2377L1.93444 24.1254C1.93444 24.1254 1.50687 24.5232 1.03392 24.9962C0.560967 25.4691 0.3125 25.7319 0.3125 25.7319L8.25686 33.9306L6.11503 36.0724C5.16999 37.0162 5.26549 38.6458 6.33082 39.7111C7.39244 40.7728 9.02206 40.8707 9.96833 39.9245C9.02206 40.8707 9.1188 42.4991 10.1829 43.5632C11.2445 44.6236 12.8754 44.724 13.8216 43.7778C12.8754 44.724 12.9709 46.3524 14.035 47.4153C15.099 48.4794 16.7287 48.5761 17.6737 47.6311C16.7287 48.5749 16.8242 50.2033 17.8883 51.2686C18.9511 52.3302 20.5795 52.4282 21.527 51.4819L23.7891 49.221L28.2303 53.6609C29.6479 55.0785 32.0452 54.9793 33.5805 53.4464C34.3284 52.6985 34.7277 51.7436 34.7835 50.7985C35.7286 50.7427 36.6848 50.3422 37.4314 49.5931C38.1804 48.8452 38.5823 47.8903 38.6393 46.9452C39.5831 46.8894 40.5356 46.4901 41.2871 45.741C42.035 44.9919 42.4356 44.0382 42.4901 43.0919C43.4364 43.0374 44.3914 42.638 45.1404 41.8865C46.6733 40.3536 46.7676 37.9525 45.3538 36.5375L43.4811 34.6635L52.1694 26.1876L39 13.031Z" fill="#F6F7F7"/>
<path d="M58.2631 16.8348C58.2631 16.8348 52.2799 10.8555 48.4643 7.036C47.8492 6.42029 46.7075 5.3457 46.7075 5.3457C46.7075 5.3457 45.8574 6.21855 45.0389 7.036C44.2203 7.85345 41.6134 10.459 41.6134 10.459C40.76 11.305 39.9297 12.1838 39.9297 12.1838C39.9297 12.1838 40.7272 13.0018 41.6134 13.8832L51.4135 23.6845C51.8849 24.1553 53.12 25.4211 53.12 25.4211C53.12 25.4211 54.3647 24.1587 54.8389 23.6845L58.2631 20.2603C58.7221 19.8 59.9975 18.5067 59.9975 18.5067C59.9975 18.5067 58.7479 17.3202 58.2631 16.8348ZM53.12 21.8254C52.0237 21.8254 51.1332 20.9362 51.1332 19.8386C51.1332 18.741 52.0237 17.8506 53.12 17.8506C54.2176 17.8506 55.1081 18.7398 55.1081 19.8386C55.1068 20.9349 54.2176 21.8254 53.12 21.8254Z" fill="#FFC935"/>
</svg>
