<svg width="60" height="60" viewBox="0 0 60 60" fill="none" xmlns="http://www.w3.org/2000/svg">
<path d="M45.7123 17.1164V5.91187H38.4861V11.4364L30.0874 4.87988L1.875 26.4621L6.16409 30.594L10.5138 27.237V55.1207H49.4419V27.4442L53.7217 30.8012L58.125 26.7728L45.7123 17.1164ZM22.5419 45.8707C19.395 45.8707 16.8542 44.0597 16.8542 41.8304C16.8542 41.3024 17.064 40.7725 17.2085 40.38C17.3017 40.131 22.5955 32.4468 22.5955 32.4468V32.3791L27.7284 40.3123C27.7284 40.3123 28.176 40.9757 28.2296 41.8304C28.2296 44.0697 25.6888 45.8707 22.5419 45.8707ZM39.1901 33.168C39.2041 33.2596 39.211 33.3533 39.211 33.4489V49.4946C39.211 50.1461 38.8987 50.7378 38.3975 51.1661C37.894 51.5944 37.204 51.8614 36.4418 51.8614C34.9173 51.8614 33.6702 50.7975 33.6702 49.4946V33.4489C33.6702 33.3533 33.6772 33.2596 33.6912 33.168C31.6725 32.3054 30.2855 30.5223 30.2855 28.4623C30.2855 26.2349 31.9056 24.3323 34.1923 23.5653V28.4623H38.6912V23.5653C40.9756 24.3323 42.5957 26.2349 42.5957 28.4623C42.5957 30.5223 41.2087 32.3054 39.1901 33.168Z" fill="#F6F7F7"/>
<path d="M16.8545 41.8302C16.8545 44.0595 19.3953 45.8705 22.5422 45.8705C25.6891 45.8705 28.2299 44.0695 28.2299 41.8302C28.1727 41.2282 28.0336 40.8977 27.7287 40.3121L22.5958 32.3789C22.5958 32.3789 17.3021 40.1308 17.2088 40.3798C16.9676 40.9136 16.8766 41.2251 16.8545 41.8302Z" fill="#FFC935"/>
</svg>
