<svg width="60" height="60" viewBox="0 0 60 60" fill="none" xmlns="http://www.w3.org/2000/svg">
<g clip-path="url(#clip0_160_1477)">
<path d="M42.4698 58.4446C44.1179 57.8691 44.9975 57.1925 44.9975 56.5003C45.0341 56.0384 44.6712 55.5794 43.9304 55.151C43.1896 54.7225 42.0861 54.3333 40.686 54.0066C39.2859 53.6799 37.6178 53.4224 35.7816 53.2496C33.9453 53.0767 31.9785 52.992 29.9987 53.0006C27.0323 53.0006 24.1324 53.2058 21.6658 53.5904C19.1993 53.9749 17.2769 54.5215 16.1417 55.161C15.0065 55.8005 14.7095 56.5042 15.2882 57.183C15.8669 57.8619 17.2954 58.4855 19.393 58.975C21.4906 59.4644 24.1632 59.7977 27.0726 59.9328C29.9821 60.0678 32.9979 59.9985 35.7385 59.7336C38.4792 59.4687 40.8217 59.0202 42.4698 58.4446Z" fill="#FFC935"/>
<path fill-rule="evenodd" clip-rule="evenodd" d="M48.5 23.75C48.5 40 29.75 55 29.75 55C29.75 55 11 40 11 23.75C11 13.3946 19.3946 5 29.75 5C40.1054 5 48.5 13.3946 48.5 23.75ZM41.8711 24C41.8711 30.6943 36.4443 36.1211 29.75 36.1211C23.0557 36.1211 17.6289 30.6943 17.6289 24C17.6289 17.3057 23.0557 11.8789 29.75 11.8789C36.4443 11.8789 41.8711 17.3057 41.8711 24Z" fill="#F6F7F7" stroke="#F6F7F7" stroke-width="4" stroke-linejoin="round"/>
</g>
<defs>
<clipPath id="clip0_160_1477">
<rect width="60" height="60" fill="white"/>
</clipPath>
</defs>
</svg>
