<svg width="60" height="60" viewBox="0 0 60 60" fill="none" xmlns="http://www.w3.org/2000/svg">
<path d="M43.2806 23.5533V18.2621L45.0337 18.4683V14.5027L23.8669 11.2627L0 15.8058V20.4427L2.2125 20.1352V33.0202H8.63063V45.0464L39.0994 48.7383L44.49 48.0858V32.6508L54.0656 32.6808V46.9233L58.515 46.3852V27.5639L60 27.6371V24.8171L43.2806 23.5533ZM41.1263 20.0939V24.7346L34.7494 24.8527V19.4452L41.1263 20.0939ZM5.5275 20.8514L20.0006 19.0158V29.3471L5.5275 29.8271V20.8514ZM11.4731 42.3089V33.0183H17.4394V42.8508L11.4731 42.3089ZM18.9562 42.9539V33.0146H23.865V32.9958H25.8581V43.5802L18.9562 42.9539ZM27.3131 43.7733V32.9996L35.3512 33.0014V44.5083L27.3131 43.7733Z" fill="#F6F7F7"/>
<path d="M20.0005 19.0166L5.52734 20.8522V29.8279L20.0005 29.3479V19.0166Z" fill="#FFC935"/>
</svg>
