<svg width="60" height="60" viewBox="0 0 60 60" fill="none" xmlns="http://www.w3.org/2000/svg">
<g clip-path="url(#clip0_160_1481)">
<path d="M30 60C22.0435 60 14.4129 56.8393 8.7868 51.2132C3.16071 45.5871 0 37.9565 0 30C0 22.0435 3.16071 14.4129 8.7868 8.7868C14.4129 3.16071 22.0435 0 30 0C37.9565 0 45.5871 3.16071 51.2132 8.7868C56.8393 14.4129 60 22.0435 60 30C60 37.9565 56.8393 45.5871 51.2132 51.2132C45.5871 56.8393 37.9565 60 30 60ZM19.5 27C20.6935 27 21.8381 26.5259 22.682 25.682C23.5259 24.8381 24 23.6935 24 22.5C24 21.3065 23.5259 20.1619 22.682 19.318C21.8381 18.4741 20.6935 18 19.5 18C18.3065 18 17.1619 18.4741 16.318 19.318C15.4741 20.1619 15 21.3065 15 22.5C15 23.6935 15.4741 24.8381 16.318 25.682C17.1619 26.5259 18.3065 27 19.5 27ZM40.5 27C41.6935 27 42.8381 26.5259 43.682 25.682C44.5259 24.8381 45 23.6935 45 22.5C45 21.3065 44.5259 20.1619 43.682 19.318C42.8381 18.4741 41.6935 18 40.5 18C39.3065 18 38.1619 18.4741 37.318 19.318C36.4741 20.1619 36 21.3065 36 22.5C36 23.6935 36.4741 24.8381 37.318 25.682C38.1619 26.5259 39.3065 27 40.5 27ZM46.98 36H13.02C14.2568 39.5159 16.5546 42.5612 19.5961 44.7155C22.6376 46.8698 26.2729 48.0268 30 48.0268C33.7271 48.0268 37.3624 46.8698 40.4039 44.7155C43.4454 42.5612 45.7432 39.5159 46.98 36Z" fill="#F6F7F7"/>
<path d="M13.0195 36H46.9795C45.7427 39.5159 43.4449 42.5612 40.4034 44.7155C37.3619 46.8698 33.7267 48.0268 29.9995 48.0268C26.2724 48.0268 22.6371 46.8698 19.5956 44.7155C16.5541 42.5612 14.2564 39.5159 13.0195 36Z" fill="#FFC935"/>
</g>
<defs>
<clipPath id="clip0_160_1481">
<rect width="60" height="60" fill="white"/>
</clipPath>
</defs>
</svg>
