<svg width="60" height="60" viewBox="0 0 60 60" fill="none" xmlns="http://www.w3.org/2000/svg">
<path d="M50.0004 7.5H47.0404V2.5C47.0404 2.5 41.5461 2.50641 40.0004 2.5H2.50195H2.50349L2.50195 17.5H40.0004C41.5461 17.4936 47.0404 17.5 47.0404 17.5V12.5H50.0004C50.6635 12.5 51.2993 12.7634 51.7682 13.2322C52.237 13.7011 52.5004 14.337 52.5004 15V22.5C52.5004 23.163 52.237 23.7989 51.7682 24.2678C51.2993 24.7366 50.6635 25 50.0004 25H35.0004C33.0113 25 31.1036 25.7902 29.6971 27.1967C28.2906 28.6032 27.5004 30.5109 27.5004 32.5H25.0004C24.3374 32.5 22.5004 32.5 22.5004 32.5C22.5004 32.5 22.5004 34.337 22.5004 35V55C22.5004 55.663 22.5004 57.5 22.5004 57.5C22.5004 57.5 24.3374 57.5 25.0004 57.5H35.0004C35.6635 57.5 37.5004 57.5 37.5004 57.5C37.5004 57.5 37.5004 55.663 37.5004 55V35C37.5004 34.337 37.5004 32.5 37.5004 32.5C37.5004 32.5 35.6635 32.5 35.0004 32.5H32.5004C32.5004 31.837 32.7638 31.2011 33.2326 30.7322C33.7015 30.2634 34.3374 30 35.0004 30H50.0004C51.9895 30 53.8972 29.2098 55.3037 27.8033C56.7102 26.3968 57.5004 24.4891 57.5004 22.5V15C57.5004 13.0109 56.7102 11.1032 55.3037 9.6967C53.8972 8.29018 51.9895 7.5 50.0004 7.5Z" fill="#F6F7F7"/>
<path d="M10.5288 23.3069C10.3297 23.0194 8.71352 20.9229 8.71352 20.9229C8.71352 20.9229 7.17044 23.0194 6.97134 23.3069L3.48675 29.0591C2.84046 30.138 2.50228 31.3734 2.50898 32.6311C2.42244 34.2122 2.96424 35.7634 4.01634 36.9468C5.06844 38.1303 6.54558 38.85 8.12594 38.9491H9.37416C10.9545 38.85 12.4317 38.1303 13.4838 36.9468C14.5359 35.7634 15.0777 34.2122 14.9911 32.6311C14.9976 31.3737 14.6602 30.1386 14.0154 29.0591L10.5288 23.3069Z" fill="#FFC935"/>
</svg>
