<svg width="60" height="60" viewBox="0 0 60 60" fill="none" xmlns="http://www.w3.org/2000/svg">
<g clip-path="url(#clip0_160_1429)">
<path fill-rule="evenodd" clip-rule="evenodd" d="M-3 47.5556V11.0557H62.9972V47.5556H41.0011L56.7606 41.3193L56.7613 41.3191L56.7659 41.3173L56.8083 41.3002C56.8459 41.285 56.9158 41.2564 57.0492 41.2016C57.3165 41.0917 57.845 40.8737 58.8919 40.4403C60.2008 39.8985 61.1349 38.9405 61.3454 37.6445C61.5428 36.4289 61.0358 35.3017 60.3505 34.4851C58.9885 32.8621 56.3441 31.7626 53.6949 32.7967L53.6337 32.8206V17.8125C53.6337 17.2602 53.186 16.8125 52.6337 16.8125H7.05628C6.50399 16.8125 6.05628 17.2602 6.05628 17.8125V40.0765C6.05628 40.6288 6.50399 41.0765 7.05628 41.0765H32.9313L24.4092 44.4833L24.0994 44.6072L23.8713 44.8507C23.2227 45.543 22.2877 46.6064 21.4645 47.5556H-3ZM32.8479 47.5556H28.2922L27.4287 46.5071L41.0132 41.0765H49.221L32.8479 47.5556ZM53.6337 39.3304L53.7235 39.2948L53.6337 39.1877V39.3304ZM50.6337 33.9999V33.8249H44.6134V36.4065L50.6337 33.9999ZM46.1816 39.0104L50.6337 37.2307V39.0104H46.1816ZM41.6134 37.6058V26.337L31.4875 26.2362V18.8786H24.7107V26.251H16.2143V31.92H24.7107V39.0104H38.0997L41.6134 37.6058ZM9.05627 18.8786V24.1849H21.7107V18.8786H9.05627ZM34.4875 18.8786V24.1997L41.6134 24.2706V18.8786H34.4875ZM50.6337 18.8786H44.6134V31.7588H50.6337V18.8786ZM21.7107 39.0104V33.9861H9.05627V39.0104H21.7107ZM9.05627 31.92H13.2143V26.251H9.05627V31.92ZM54.7857 35.5914L54.5951 35.6658L56.6535 38.1197C56.9329 38.0043 57.2895 37.8568 57.7445 37.6684C58.3569 37.4149 58.3826 37.1783 58.3841 37.1642L58.3842 37.1636C58.398 37.0784 58.3796 36.8034 58.0525 36.4135C57.3897 35.6237 56.0611 35.0936 54.7857 35.5914Z" fill="#F6F7F7"/>
<path d="M20.7828 50.7535C20.7828 50.7535 23.6195 47.4093 25.0168 45.9177L52.1533 35.0697C52.1533 35.0697 52.1532 35.0701 54.2911 34.2356C58.2157 32.7037 62.2371 37.4948 58.369 39.096C56.2758 39.9624 56.2602 39.9659 56.2602 39.9659L28.9991 50.7535H20.7828Z" fill="#FFC935"/>
</g>
<defs>
<clipPath id="clip0_160_1429">
<rect width="60" height="60" fill="white"/>
</clipPath>
</defs>
</svg>
