<svg width="60" height="60" viewBox="0 0 60 60" fill="none" xmlns="http://www.w3.org/2000/svg">
<g clip-path="url(#clip0_160_1497)">
<path d="M32.4064 38.6561C32.2358 35.6893 31.6447 32.8158 30.7241 30.6658C30.5356 30.2254 29.8688 28.8187 29.8688 28.8187L24.2522 31.2905L21.6563 25.3687L19.5001 26.2889L12.4901 9.91613C13.4056 9.16781 14.1233 8.19732 14.575 7.06911C15.2786 5.31215 15.2557 3.3863 14.5108 1.64631C14.3048 1.1654 13.5376 -0.09375 13.5376 -0.09375L0.75 5.28782C0.75 5.28782 1.25178 6.68297 1.48352 7.2242C2.22842 8.96406 3.60629 10.3097 5.36338 11.0133C6.21549 11.3545 7.10719 11.5249 7.99836 11.5249C8.28696 11.5249 8.57529 11.5047 8.86244 11.4691L15.8727 27.8425L13.7813 28.7999L16.2124 34.7332L10.5563 37.0687C10.5563 37.0687 11.0877 38.5045 11.2937 38.9855C12.5818 41.9942 15.3405 45.5147 18.4929 48.1729C18.6202 48.2803 18.7549 48.3914 18.8949 48.5047C20.9343 46.1925 23.776 44.6039 26.98 44.1797C28.2919 41.8774 30.1739 39.9852 32.4064 38.6561ZM6.83017 7.34982C6.72652 7.30838 6.62589 7.26169 6.52855 7.21039L11.0191 5.28782C10.989 5.39371 10.9532 5.49868 10.9118 5.60233C10.6001 6.38077 10.0039 6.99124 9.23299 7.32127C8.46204 7.6513 7.60862 7.66143 6.83017 7.34982Z" fill="#F6F7F7"/>
<path d="M58.8357 57.794C57.8682 54.3804 54.7509 51.9785 51.2153 51.8968C51.2267 51.6895 51.2325 51.482 51.2325 51.2742C51.2325 45.0629 46.1793 40.0098 39.9682 40.0098C35.091 40.0098 30.8559 43.1139 29.318 47.6005C29.04 47.5749 28.7603 47.5619 28.4804 47.5619C23.4435 47.5619 19.3457 51.6596 19.3457 56.6966C19.3457 57.3486 19.4998 59.9997 19.4998 59.9997C19.4998 59.9997 20.431 59.9997 21.2464 59.9997H57.1682C57.7113 59.9997 59.0436 59.9997 59.0436 59.9997C59.0436 59.9997 58.9838 58.3166 58.8357 57.794Z" fill="#FFC935"/>
</g>
<defs>
<clipPath id="clip0_160_1497">
<rect width="60" height="60" fill="white"/>
</clipPath>
</defs>
</svg>
