<svg width="60" height="60" viewBox="0 0 60 60" fill="none" xmlns="http://www.w3.org/2000/svg">
<g clip-path="url(#clip0_160_1447)">
<path fill-rule="evenodd" clip-rule="evenodd" d="M31.16 0.371744C30.8213 0.130575 30.4158 0.000976562 30 0.000976562C29.5842 0.000976562 29.1787 0.130575 28.84 0.371744L0.84 20.3717C0.580419 20.5566 0.368757 20.8007 0.222643 21.0839C0.0765304 21.3671 0.000196485 21.6811 0 21.9997L0 57.9997C0 58.5302 0.210714 59.0389 0.585786 59.414C0.960859 59.789 1.46957 59.9997 2 59.9997H8V31.9997H28V59.9997H58C58.5304 59.9997 59.0391 59.789 59.4142 59.414C59.7893 59.0389 60 58.5302 60 57.9997V21.9997C59.9998 21.6811 59.9235 21.3671 59.7774 21.0839C59.6312 20.8007 59.4196 20.5566 59.16 20.3717L56 18.1117V6.99974H49V14.2557L31.16 0.371744ZM44 47.9997V31.9997H48V47.9997H44Z" fill="#F6F7F7"/>
<path d="M24 60V48H20V44H24V36H12V60H24Z" fill="#FFC935"/>
</g>
<defs>
<clipPath id="clip0_160_1447">
<rect width="60" height="60" fill="white"/>
</clipPath>
</defs>
</svg>
