<svg width="60" height="60" viewBox="0 0 60 60" fill="none" xmlns="http://www.w3.org/2000/svg">
<path d="M23.3996 0C21.7376 0 20.3996 0 20.3996 0V30C20.3996 30 21.7376 30 23.3996 30H36.5996C38.2616 30 39.5996 30 39.5996 30V3C39.5996 1.338 39.5996 0 39.5996 0H23.3996ZM29.9876 9C29.9916 9 29.9956 9 29.9996 9C31.5909 9 33.117 9.63214 34.2423 10.7574C35.3675 11.8826 35.9996 13.4087 35.9996 15C35.9996 16.5913 35.3675 18.1174 34.2423 19.2426C33.117 20.3679 31.5909 21 29.9996 21C28.4083 21 26.8822 20.3679 25.757 19.2426C24.6318 18.1174 23.9996 16.5913 23.9996 15C23.9996 13.4108 24.6301 11.8865 25.7527 10.7616C26.8754 9.63672 28.3984 9.00318 29.9876 9ZM15.7064 12.15C15.3253 12.1492 14.9478 12.2237 14.5955 12.3692C14.2433 12.5146 13.9232 12.7283 13.6538 12.9977C13.3843 13.2672 13.1707 13.5873 13.0252 13.9395C12.8797 14.2918 12.8052 14.6693 12.806 15.0504V35.3496C12.8052 35.7307 12.806 38.25 12.806 38.25C12.806 38.25 15.3253 38.2508 15.7064 38.25H23.1746V46.35H24.4298L20.7716 60H25.118L28.7756 46.35H31.2224L34.8806 60H39.2282L35.5706 46.35H36.8246V38.25H44.2928C44.6739 38.2508 47.1932 38.25 47.1932 38.25C47.1932 38.25 47.194 35.7307 47.1932 35.3496V15.0504C47.194 14.6693 47.1195 14.2918 46.974 13.9395C46.8286 13.5873 46.615 13.2672 46.3455 12.9977C46.076 12.7283 45.7559 12.5146 45.4037 12.3692C45.0514 12.2237 44.6739 12.1492 44.2928 12.15H42.0008L41.9822 32.391H23.51H17.9984V12.15H15.7064Z" fill="#F6F7F7"/>
<path fill-rule="evenodd" clip-rule="evenodd" d="M23.4004 0H20.4004V30H23.4004H36.6004H39.6004V3V0H23.4004ZM30.0004 9H29.9884C28.3992 9.00318 26.8761 9.63672 25.7535 10.7616C24.6309 11.8865 24.0004 13.4108 24.0004 15C24.0004 16.5913 24.6325 18.1174 25.7578 19.2426C26.883 20.3679 28.4091 21 30.0004 21C31.5917 21 33.1178 20.3679 34.243 19.2426C35.3682 18.1174 36.0004 16.5913 36.0004 15C36.0004 13.4087 35.3682 11.8826 34.243 10.7574C33.1178 9.63214 31.5917 9 30.0004 9Z" fill="#FFC935"/>
</svg>
