<svg width="60" height="60" viewBox="0 0 60 60" fill="none" xmlns="http://www.w3.org/2000/svg">
<path d="M55.3124 24.5621C55.3124 24.5621 35.2655 13.2812 22.3124 5.99958C21.4969 5.54116 20.2499 4.78125 20.2499 4.78125C20.2499 4.78125 19.6874 6.37458 19.4999 6.93708L18.9374 8.43708L10.6561 3.25C10.6561 3.25 10.2676 3.85865 9.74988 4.68708C9.23211 5.51551 8.79675 6.1875 8.79675 6.1875L17.8124 11.9996L13.1249 24.9371L5.1875 37.5625L7.99998 39.5625L25.8749 34.6871L35.8124 40.6871L36.1874 42.1871C34.8749 42.7496 33.7499 43.8746 32.9999 44.9996C30.9374 48.5621 32.0624 53.2496 35.6249 55.3121C36.7499 56.0621 38.0624 56.4371 39.5624 56.4371C40.1249 56.4371 40.6874 56.4371 41.4374 56.2496C43.3124 55.6871 44.9999 54.5621 46.1249 52.8746C48.1874 49.3121 47.0624 44.6246 43.4999 42.5621C42.3749 41.8121 41.2499 41.6246 39.9374 41.4371L39.7499 40.3121L55.8749 27.9371C56.4374 27.5621 58.1406 26.2656 58.1406 26.2656C58.1406 26.2656 55.8749 24.9371 55.3124 24.5621ZM11.6249 34.4996L15.3749 28.3121L21.3749 31.8746L11.6249 34.4996ZM41.2499 45.5621C42.9374 46.6871 43.6874 48.9371 42.5624 50.8121C41.9999 51.7496 41.2499 52.3121 40.3124 52.4996C39.3749 52.6871 38.4374 52.4996 37.4999 52.1246C35.8124 50.9996 35.0624 48.7496 36.1874 46.8746C36.3749 46.4996 36.5624 46.3121 36.9374 46.1246L37.6874 49.3121C37.8749 50.2496 38.6249 50.8121 39.5624 50.8121C39.7499 50.8121 39.7499 50.8121 39.9374 50.8121C40.8749 50.6246 41.6249 49.6871 41.4374 48.5621L40.6874 45.3746C40.8749 45.3746 41.0624 45.3746 41.2499 45.5621Z" fill="#F6F7F7"/>
<path fill-rule="evenodd" clip-rule="evenodd" d="M36.188 42.188C34.6903 42.904 33.7505 43.8755 33.0005 45.0005C30.938 48.563 32.063 53.2505 35.6255 55.313C36.7505 56.063 38.0631 56.438 39.5631 56.438C40.1256 56.438 40.6881 56.438 41.4381 56.2505C43.3131 55.688 45.0006 54.563 46.1256 52.8755C48.188 49.313 47.038 44.7439 43.5006 42.563C42.2587 41.7973 41.3946 41.5216 39.938 41.4381C38.447 41.3527 37.5354 41.5438 36.188 42.188ZM42.5631 50.813C43.6881 48.938 42.938 46.688 41.2505 45.563C41.063 45.3755 40.8756 45.3755 40.6881 45.3755L41.8708 50.3539L38.1496 51.2719L36.938 46.1255C36.59 46.376 36.3506 46.6055 36.188 46.8755C35.1719 48.563 35.6663 50.9972 37.5 52.0479C38.4614 52.5987 39.3755 52.688 40.313 52.5005C41.2505 52.313 42.0006 51.7505 42.5631 50.813Z" fill="#FFC935"/>
</svg>
