<svg aria-hidden="true" style="position: absolute; width: 0; height: 0; overflow: hidden;" version="1.1" xmlns="http://www.w3.org/2000/svg" xmlns:xlink="http://www.w3.org/1999/xlink">
<defs>
<symbol id="architecture" viewBox="0 0 32 32">
<path fill="none" stroke="#f6f7f7" style="stroke: var(--color1, #f6f7f7)" stroke-linejoin="round" stroke-linecap="square" stroke-miterlimit="4" stroke-width="2.1333" d="M12.854 1.595l17.812 8.539"></path>
<path fill="none" stroke="#f6f7f7" style="stroke: var(--color1, #f6f7f7)" stroke-linejoin="round" stroke-linecap="square" stroke-miterlimit="4" stroke-width="2.1333" d="M14.584 11.030l-12.984 6.036"></path>
<path fill="#f6f7f7" style="fill: var(--color1, #f6f7f7)" d="M29.527 29.886v-19.208l-15.335-8.003v28.012h14.483c0.226 0 0.443-0.084 0.602-0.234s0.25-0.354 0.25-0.566zM25.045 16.666c0.387-0.536 0.594-1.165 0.594-1.81 0.009-0.43-0.077-0.857-0.251-1.256s-0.434-0.761-0.763-1.065c-0.329-0.304-0.721-0.544-1.153-0.705s-0.894-0.24-1.36-0.232c-0.698 0-1.379 0.191-1.959 0.549s-1.032 0.867-1.299 1.462c-0.267 0.595-0.337 1.25-0.201 1.882s0.472 1.212 0.965 1.668c0.493 0.455 1.122 0.766 1.806 0.891s1.393 0.061 2.038-0.185c0.644-0.247 1.195-0.664 1.583-1.2zM18.704 20.267h6.933v10.4h-2.133v-8.267h-2.667v8.267h-2.133v-10.4z"></path>
<path fill="#ffc935" style="fill: var(--color2, #ffc935)" d="M25.044 16.666c0.387-0.536 0.594-1.165 0.594-1.809 0.009-0.43-0.077-0.857-0.251-1.256s-0.434-0.761-0.763-1.065c-0.329-0.304-0.721-0.544-1.153-0.704s-0.894-0.24-1.36-0.232c-0.698 0-1.379 0.191-1.959 0.549s-1.032 0.867-1.299 1.462c-0.267 0.595-0.337 1.25-0.201 1.882s0.472 1.212 0.965 1.668c0.493 0.456 1.122 0.766 1.806 0.891s1.393 0.061 2.038-0.185c0.644-0.247 1.195-0.664 1.583-1.2z"></path>
<path fill="#f6f7f7" style="fill: var(--color1, #f6f7f7); stroke: var(--color1, #f6f7f7)" stroke="#f6f7f7" stroke-linejoin="miter" stroke-linecap="butt" stroke-miterlimit="4" stroke-width="2.1333" d="M27.733 1.6v7.467l-4.267-2.133v-5.333h4.267z"></path>
<path fill="none" stroke="#f6f7f7" style="stroke: var(--color1, #f6f7f7)" stroke-linejoin="round" stroke-linecap="square" stroke-miterlimit="4" stroke-width="2.1333" d="M1.060 30.686h29.878"></path>
<path fill="#f6f7f7" style="fill: var(--color1, #f6f7f7)" d="M2.668 30.029v-13.547l12.799-5.815v20.265h-11.999c-0.107 0.007-0.214-0.011-0.314-0.054s-0.191-0.109-0.266-0.194c-0.076-0.085-0.134-0.188-0.172-0.301s-0.054-0.233-0.048-0.354zM12.854 20.399h-6.4v6.4h6.4v-6.4z"></path>
</symbol>
<symbol id="bricks_wall" viewBox="0 0 32 32">
<path fill="#f6f7f7" style="fill: var(--color1, #f6f7f7)" d="M9 17.933v-5c0 0-0.4 0-1 0h-7c-0.6 0-1 0-1 0v5c0 0.6 0 1 0 1h9c0 0 0-0.4 0-1z"></path>
<path fill="#ffc935" style="fill: var(--color2, #ffc935)" d="M31 12.933h-7c-0.6 0-1 0-1 0v5c0 0.6 0 1 0 1h9c0 0 0-0.4 0-1v-5c0 0-0.4 0-1 0z"></path>
<path fill="#f6f7f7" style="fill: var(--color1, #f6f7f7)" d="M12 12.933h-1v6c0 0 0.4 0 1 0h8c0.6 0 1 0 1 0v-5c0-0.6 0-1 0-1h-9z"></path>
<path fill="#f6f7f7" style="fill: var(--color1, #f6f7f7)" d="M5 10.934h10c0 0 0-0.4 0-1v-4c0-0.6 0-1 0-1l-9 0c-0.6 0-1 0-1 0v5c0 0.6-0 1-0 1z"></path>
<path fill="#f6f7f7" style="fill: var(--color1, #f6f7f7)" d="M17 10.933h10c0 0 0-0.4 0-1v-5c0 0-0.4 0-1 0h-8c-0.6 0-1 0-1 0v5c0 0.6 0 1 0 1z"></path>
<path fill="#ffc935" style="fill: var(--color2, #ffc935)" d="M14 20.933l-9 0.047c0 0 0 0.354 0 0.953v5c0 0 0.4 0 1 0h9c0 0 0-0.4 0-1v-5c0 0-0.4 0-1 0z"></path>
<path fill="#f6f7f7" style="fill: var(--color1, #f6f7f7)" d="M26 20.933h-8c-0.6 0-1 0-1 0v5c0 0.6 0 1 0 1h10c0 0 0-0.4 0-1v-5c0 0-0.4 0-1 0z"></path>
</symbol>
<symbol id="calendar-reserved" viewBox="0 0 32 32">
<path fill="#f6f7f7" style="fill: var(--color1, #f6f7f7)" d="M30.524 8.62h-29.582v-2.279c0-0.426 0.501-0.76 1.138-0.76h3.413v1.52c0 0 0.501 0 1.138 0s1.138 0 1.138 0v-1.52h15.929l0.036 1.544h2.24v-1.544h3.413c0.637 0 1.138 0.334 1.138 0.76v2.279zM13.458 22.616l-7.623-5.106 1.593-1.064 6.030 4.012 10.581-7.051 1.593 1.064-12.174 8.145zM29.387 4.061h-3.413v-1.52c0 0-0.501 0-1.138 0s-1.138 0-1.138 0v1.52h-15.929v-1.52c0 0-0.501 0-1.138 0s-1.138 0-1.138 0v1.52h-3.413c-1.889 0-3.413 1.018-3.413 2.279v22.034h34.133v-22.034c0-1.261-1.525-2.279-3.413-2.279z"></path>
<path fill="#ffc935" style="fill: var(--color2, #ffc935)" d="M5.494 7.101v-4.559h2.276v4.559h-2.276z"></path>
<path fill="#ffc935" style="fill: var(--color2, #ffc935)" d="M23.694 7.101v-4.559h2.276v4.559h-2.276z"></path>
</symbol>
<symbol id="computer_construction" viewBox="0 0 32 32">
<path fill="#ffc935" style="fill: var(--color2, #ffc935)" d="M24.888 28.761c0 0-3.684-1.033-4.13-2.388 0-0.123 0-0.246-0.112-0.246h-9.938c0 0.123 0 0.246-0.112 0.246-0.335 1.355-4.030 2.51-4.030 2.51s0 0.152 0 0.891c0 0.739 0 1.281 0 1.281l18.321 0.101c0 0 0-0.587 0-1.326s0-1.069 0-1.069z"></path>
<path fill="#f6f7f7" style="fill: var(--color1, #f6f7f7)" d="M28.016 0.907h-24.565c-1.898 0-3.35 0-3.35 0v20.099c0 1.898 0 3.35 0 3.35h31.264c0 0 0-1.452 0-3.35v-20.099c0 0-1.452 0-3.35 0zM24.666 18.773h-17.865c-0.67 0-1.117-0.447-1.117-1.117s0.447-1.117 1.117-1.117h0.223v-0.223c0-2.010 0.67-3.796 1.787-5.36l1.34 3.858 1.869-0.721-1.534-5.481c0-0.335 0.223-0.67 0.558-0.893 2.903-1.452 6.365-1.452 9.268 0 0.335 0.223 0.558 0.558 0.558 0.893l-1.569 5.481 1.955 0.721 1.289-3.858c1.117 1.563 1.787 3.35 1.787 5.36v0.223h0.335c0.67 0 1.117 0.447 1.117 1.117s-0.447 1.117-1.117 1.117z"></path>
</symbol>
<symbol id="concrete-truck" viewBox="0 0 32 32">
<path fill="#f6f7f7" style="fill: var(--color1, #f6f7f7)" d="M30 17.848l-4.53-6.848c0 0-0.319 0-0.47 0h-5c-0.291 0-1 0-1 0s0 0.691 0 1v8.4c-0.8 0.3-1.5 0.9-2 1.6h-2l-0.070-2.72c0.1-0.1 0.23-0.15 0.33-0.25l2.64-6.53c0.1-0.3 0.1-0.7-0.1-1-1.3-1.8-3.4-3.4-5.9-4.4-0.9-0.3-1.8-0.5-2.6-0.7l-5.3 12.8v1.8c-1.2 0.9-2 2.3-2 4 0 2.8 2.2 5 5 5s5-2.2 5-5c0-0.3 0-0.7-0.1-1h4.2c-0.1 0.3-0.1 0.7-0.1 1 0 2.8 2.2 5 5 5s5-2.2 5-5h4c0 0 0-0.4 0-1v-6.152zM7 28c-1.7 0-3-1.3-3-3s1.3-3 3-3c1.7 0 3 1.3 3 3s-1.3 3-3 3zM21 13h3.5l2.7 4h-0.9c-1 0-1.9-0.6-2.3-1.4-0.3-0.4-0.6-0.6-1-0.6h-2v-2zM21 28c-1.7 0-3-1.3-3-3s1.3-3 3-3c1.7 0 3 1.3 3 3s-1.3 3-3 3z"></path>
<path fill="#ffc935" style="fill: var(--color2, #ffc935)" d="M7.44 6.1c-0.9-0.1-1.8-0.1-2.6 0.1-0.4 0-0.7 0.3-0.8 0.6l-2.7 6.7c-0.1 0.3-0.1 0.7 0.1 1 0.5 0.7 1.1 1.3 1.8 1.9 3.247 2.032 5.183 2.641 8.8 3.034 0.9 0.1 1.8 0.1 2.6-0.1 0.4 0 0.7-0.3 0.8-0.6l2.7-6.7c0.1-0.3 0.1-0.7-0.1-1-0.5-0.7-0.946-1.338-1.8-1.9-3.18-2.094-5.141-2.645-8.8-3.034z"></path>
</symbol>
<symbol id="construction-design" viewBox="0 0 32 32">
<path fill="#f6f7f7" style="fill: var(--color1, #f6f7f7)" d="M24.607 9.108l4.379 5.313c0.042 0.050 0.068 0.113 0.075 0.178l0.011 0.1 0.227 2.060 0.043 0.388 0 0 0.010 0.094 0.013 0.12 0.008 0.070c0.008 0.076-0.009 0.151-0.048 0.214-0.002 0.003-0.004 0.006-0.006 0.010-0.015 0.081-0.059 0.154-0.126 0.205l-0.266 0.205 1.030 1.658-0.535 0.43c-0.019-0.019-0.039-0.040-0.059-0.061-0.121-0.127-0.262-0.287-0.406-0.455l-0.89-0.908-0.135 0.104c-0.062 0.048-0.135 0.071-0.207 0.071-0.099 0-0.196-0.043-0.263-0.125l-5.654-6.944-0.174 0.218c-0.064 0.080-0.162 0.127-0.265 0.127s-0.201-0.047-0.265-0.127l-0.174-0.218-5.654 6.944c-0.067 0.082-0.165 0.125-0.263 0.125-0.072 0-0.145-0.023-0.207-0.071l-0.135-0.104-1.162 1.186c-0.006 0.006-0.012 0.012-0.019 0.018l-0.183 0.213-0.513-0.411 0.012-0.020 1.008-1.648-0.268-0.207c-0.068-0.053-0.113-0.129-0.127-0.212-0.024-0.039-0.041-0.082-0.048-0.127-0.005-0.029-0.005-0.059-0.002-0.089l0.031-0.284v-0l0.043-0.388 0.226-2.060 0.011-0.1c0.007-0.065 0.033-0.127 0.075-0.178l4.692-5.692-0.056-0.070c-0.048-0.060-0.074-0.135-0.074-0.212v-0.017c-0.011-0.034-0.017-0.070-0.017-0.106v-2.251h-9.675v21.676l-0.881-0.046c-0.027-0.001-0.068-0.003-0.121-0.005-0.106-0.004-0.259-0.009-0.448-0.013-0.378-0.007-0.892-0.009-1.44 0.013-0.551 0.022-1.119 0.066-1.612 0.148-0.519 0.086-0.853 0.198-1.008 0.297v0c-0.153 0.098-0.246 0.174-0.329 0.28-0.077 0.098-0.17 0.253-0.27 0.526 1.079 0.798 3.65 0.901 4.596 0.867l0.012 0.339v-0.339h24.76v-1.018l-0-21.708v-1.018h-7.442v2.251c0 0.039-0.007 0.078-0.020 0.114v0.009c0 0.077-0.026 0.152-0.074 0.212l-0.054 0.068 0.314 0.381z"></path>
<path fill="#f6f7f7" style="fill: var(--color1, #f6f7f7); stroke: var(--color2, #ffc935)" stroke="#ffc935" stroke-linejoin="miter" stroke-linecap="butt" stroke-miterlimit="4" stroke-width="6.6667" d="M3.448 6.245c0.2-0.056 0.429-0.102 0.681-0.137v17.090c-0.254 0.031-0.522 0.072-0.795 0.125v-17.044c0.035-0.011 0.073-0.022 0.115-0.034z"></path>
<path fill="#f6f7f7" style="fill: var(--color1, #f6f7f7)" d="M23.789 5.764l-0 0.52v1.819c0 0.059-0.021 0.116-0.058 0.162l-2.137 2.599c-0.051 0.061-0.127 0.098-0.209 0.098s-0.158-0.036-0.209-0.098l-2.137-2.599c-0.038-0.046-0.058-0.104-0.058-0.162v-3.639c0-0.206 0-0.78 0-0.78s0.571 0 0.801 0h0.801v-1.559c0 0 0.359 0 0.801 0s0.801 0 0.801 0v1.559h0.801c0.22 0 0.801 0 0.801 0s0 0.564 0 0.78v1.3zM22.279 7.528c0.007-0.487-0.406-0.877-0.893-0.87-0.48 0.007-0.876 0.366-0.869 0.87 0.007 0.498 0.395 0.84 0.869 0.846 0.481 0.007 0.887-0.366 0.893-0.846z"></path>
</symbol>
<symbol id="construction-worker" viewBox="0 0 32 32">
<path fill="#f6f7f7" style="fill: var(--color1, #f6f7f7)" d="M14.573 20.599c-1.491-0.213-3.645-1.262-3.645-1.262-4.323 1.054-9.364 3.527-9.364 6.761v5.534h7.999v-8.799c0 0 0.358 0 0.8 0s0.8 0 0.8 0v8.799h9.599v-8.799c0 0 0.358 0 0.8 0s0.8 0 0.8 0v8.799h7.999v-5.534c0-3.235-4.733-5.707-9.055-6.761 0 0-2.292 1.056-3.867 1.262-1.109 0.145-1.757 0.158-2.865 0z"></path>
<path fill="#ffc935" style="fill: var(--color2, #ffc935)" d="M16.762 0.368c0.854 0.11 1.663 0.39 2.4 0.785v3.283c0 0 0.358 0 0.8 0s0.8 0 0.8 0v-2.159c0.987 0.881 1.728 1.951 2.11 2.972 0.015 0.375-0.026 0.763-0.1 1.14-0.093 0.479-0.234 0.909-0.352 1.221-0.059 0.155-0.112 0.28-0.149 0.364-0.019 0.042-0.034 0.074-0.044 0.095l-0.011 0.023-0.21 0.383c0 0 0.189 0.104 0.406 0.212s0.343 0.165 0.343 0.165 0.184-0.276 0.285-0.477c0.084-0.167 0.137-0.282 0.202-0.454 0.13-0.344 0.288-0.823 0.393-1.365 0.018-0.094 0.035-0.19 0.050-0.289 0.685 0.896 1.075 1.825 1.075 2.627 0 2.551-3.939 2.86-8.799 2.86s-8.799-0.308-8.799-2.86c0-0.752 0.453-1.711 1.060-2.554-0.026 0.717 0.229 1.812 0.712 2.477l0.629-0.462c-0.906-0.989-0.645-2.133-0.356-3.087 0.141-0.464 0.324-0.875 0.472-1.17 0.074-0.147 0.139-0.264 0.185-0.344 0.023-0.040 0.041-0.070 0.053-0.090l0.013-0.022 0.003-0.005c0.004-0.006 0.007-0.012 0.011-0.018 0.344-0.473 0.754-0.929 1.218-1.344v2.226c0 0 0.353 0 0.795 0s0.805 0 0.805 0v-3.35c0.737-0.395 1.546-0.675 2.4-0.785v2.468c0 0 0.358 0 0.8 0s0.8 0 0.8 0v-2.468z"></path>
<path fill="#f6f7f7" style="fill: var(--color1, #f6f7f7)" d="M10.408 12.034c0.228 2.883 2.64 5.152 5.582 5.152 3.092 0 5.525-2.358 5.749-5.237l1.45-0.362c0 3.976-3.223 7.199-7.199 7.199s-7.199-3.223-7.199-7.199l1.617 0.447z"></path>
</symbol>
<symbol id="contract-line" viewBox="0 0 32 32">
<path fill="#f6f7f7" style="fill: var(--color1, #f6f7f7)" d="M25.747 15.834v14.658h-25.747v-29.425h25.747v7.515l-9.974 9.94-1.182 4.407c-0.019 0.058-0.021 0.119-0.007 0.178s0.044 0.113 0.087 0.156c0.043 0.043 0.097 0.073 0.156 0.087s0.121 0.011 0.178-0.007l4.394-1.18 6.348-6.327zM4.414 4.767v-0.859h17.862v1.718h-17.862v-0.859zM4.414 13.355v-0.859h9.366v1.718h-9.366v-0.859zM19.536 9.92l1.499-1.718h-16.621v1.718h15.122zM10.245 26.315c0.289 0.331 0.655 0.585 1.067 0.74s0.854 0.204 1.29 0.145h8.377c0.199 0 0.39-0.079 0.531-0.22s0.22-0.332 0.22-0.531-0.079-0.39-0.22-0.531c-0.141-0.141-0.332-0.22-0.531-0.22h-8.377c-0.978-0.017-0.804-0.866-0.667-1.129 0.179-0.309 0.319-0.639 0.415-0.982 0.064-0.276 0.034-0.566-0.086-0.824s-0.322-0.467-0.575-0.596c-0.406-0.183-0.862-0.228-1.296-0.128s-0.824 0.34-1.109 0.683c-0.369 0.381-0.882 0.964-1.374 1.531 0.304-1.191 0.698-2.718 1.084-4.208 0.111-0.34 0.089-0.708-0.062-1.032s-0.418-0.579-0.749-0.713c-0.366-0.126-0.767-0.108-1.12 0.050s-0.634 0.444-0.785 0.801c-0.424 0.816-3.53 6.029-4.087 6.964l-0.085 0.143c-0.051 0.085-0.084 0.179-0.098 0.276s-0.009 0.197 0.015 0.293c0.024 0.096 0.067 0.186 0.126 0.265s0.133 0.146 0.218 0.197c0.171 0.102 0.376 0.132 0.569 0.084s0.359-0.172 0.462-0.343l0.054-0.091c0.428-0.718 3.070-5.148 3.938-6.689-0.696 2.684-1.462 5.67-1.507 5.939-0.051 0.197-0.036 0.406 0.043 0.594s0.217 0.345 0.394 0.447c0.197 0.097 0.42 0.127 0.635 0.083s0.409-0.157 0.552-0.324c0.135-0.122 0.389-0.413 1.027-1.155 0.595-0.7 1.205-1.388 1.828-2.062 0.234-0.247 0.376-0.137 0.238 0.105-0.269 0.34-0.443 0.744-0.505 1.173s-0.011 0.866 0.15 1.268z"></path>
<path fill="#ffc935" style="fill: var(--color2, #ffc935)" d="M30.83 10.318l-0.481-0.481 1.116-1.236-2.379-2.19-12.884 12.862-0.77 2.889c-0.012 0.038-0.014 0.078-0.004 0.117s0.029 0.074 0.057 0.102c0.028 0.028 0.064 0.048 0.102 0.057s0.079 0.007 0.117-0.005l2.879-0.779 10.751-10.751 0.454 0.455c0.032 0.032 0.057 0.069 0.074 0.111s0.026 0.086 0.026 0.131c0 0.045-0.009 0.089-0.026 0.131s-0.042 0.079-0.074 0.111l-3.649 3.651 1.041 1.040 3.649-3.651c0.34-0.34 0.531-0.801 0.531-1.282s-0.191-0.942-0.531-1.282v0.001z"></path>
</symbol>
<symbol id="crane" viewBox="0 0 32 32">
<path fill="none" stroke="#ffc935" style="stroke: var(--color2, #ffc935)" stroke-linejoin="round" stroke-linecap="square" stroke-miterlimit="4" stroke-width="1.6" d="M25.362 24.547c-0 0.366 0.078 0.727 0.23 1.059s0.373 0.628 0.649 0.866c0.276 0.238 0.6 0.413 0.95 0.513s0.717 0.123 1.076 0.066c0.527-0.097 1.008-0.363 1.372-0.758s0.591-0.898 0.647-1.434-0.062-1.075-0.336-1.538c-0.274-0.463-0.69-0.824-1.185-1.029-0.283-0.131-0.522-0.344-0.684-0.611s-0.242-0.578-0.228-0.891v-11.283"></path>
<path fill="#f6f7f7" style="fill: var(--color1, #f6f7f7)" d="M1.295 10.355c-0.111 0.007-0.831 0-0.831 0s-0.006-0.723 0.001-0.835v-0.918c-0.008-0.238 0.060-0.472 0.195-0.667s0.328-0.342 0.552-0.418l5.892-2.17v-5.115l4.149 0.774c0.228 0.052 0.434 0.179 0.583 0.36s0.237 0.407 0.246 0.642v3.339l19.087 2.337c0.223 0.032 0.428 0.141 0.58 0.309s0.24 0.383 0.25 0.61v0.918l-0 0.835h-19.917v21.621h-4.979v-21.621h-5.809z"></path>
</symbol>
<symbol id="diamond-drill" viewBox="0 0 44 32">
<path fill="#f6f7f7" style="fill: var(--color1, #f6f7f7)" d="M23.27 13.731c0.092-0.121 0.169-0.255 0.235-0.387 0.187-0.377 0.339-0.87 0.462-1.424 0.247-1.112 0.391-2.548 0.417-3.986s-0.065-2.902-0.299-4.070c-0.117-0.583-0.273-1.11-0.478-1.528-0.098-0.2-0.375-0.572-0.516-0.734l17.279 0.181c2.891 0.553 5.264 7.022 1.178 11.559l-18.277 0.387z"></path>
<path fill="#f6f7f7" style="fill: var(--color1, #f6f7f7)" d="M22.443 13.554c0 0-2.125-1.563-2.125-6.159 0-5.057 1.879-5.791 1.879-5.791 0.375 0.077 0.611 0.574 0.737 1.058 0.155 0.594 0.228 0.818 0.338 1.365 0.219 1.090 0.309 2.491 0.283 3.893s-0.166 2.779-0.398 3.822c-0.116 0.524-0.251 0.944-0.396 1.236-0.158 0.32-0.319 0.576-0.319 0.576z"></path>
<path fill="#ffd74a" style="fill: var(--color3, #ffd74a)" d="M0.033 20.903h39.56l-0.414-4.543h-39.146v4.543z"></path>
<path fill="#ffd74a" style="fill: var(--color3, #ffd74a)" d="M22.469 5.682l-4.242 0.258 0.181 4.336 4.268-0.232c0 0 0.499-1.648 0.362-2.684-0.091-0.689-0.569-1.678-0.569-1.678z"></path>
<path fill="#f6f7f7" style="fill: var(--color1, #f6f7f7)" d="M19.511 4.758c0 0-14.179 0.132-16.158 1.074-0.672 0.32-1.294 0.732-1.621 0.961-0.158 0.111-0.265 0.276-0.308 0.464-0.283 1.248-1.058 5.343-1.058 5.343l3.2 5.867 4.867 1.3 2.7-4.3 5.433-3.233 2.944-0.601v-6.874z"></path>
<path fill="#f6f7f7" style="fill: var(--color1, #f6f7f7)" d="M38.248 22.31v6.311l4.139 2.375 0.983-0.981v-15.744h-4.811l-0.033 1.532c-0.485 0.136-0.999 0.316-1.364 0.456l0.552 4.646h-1.691v0.585l1.798 0.827v-0.005h0.427z"></path>
<path fill="#ffd74a" style="fill: var(--color3, #ffd74a)" d="M38.662 26.684h-5.872v1.11c0 0 5.872-0.041 5.872 0v-1.11z"></path>
<path fill="#ffd74a" style="fill: var(--color3, #ffd74a)" d="M39.735 26.027l-1.367 0.383c-0.249 0.637-0.159 0.882 0 1.555l1.583 0.359c0.329-0.949 0.185-1.832-0.216-2.297z"></path>
</symbol>
<symbol id="Foundation-Stone" viewBox="0 0 32 32">
<path fill="#f6f7f7" style="fill: var(--color1, #f6f7f7)" d="M16.525 19.775v-4.025l6.45-3.225v4.025l-6.45 3.225z"></path>
<path fill="#f6f7f7" style="fill: var(--color1, #f6f7f7)" d="M24.050 11.975v3.95l5.95-2.825v-3.45c0.007-0.452-0.035-0.646-0.325-0.775l-13.65-7.025c0 0-13.223 6.623-13.6 6.9s-0.424 0.495-0.4 0.925v3.375l6 3v-4.1l-3.975-2 11.975-5.95 12.050 5.975-4.025 2z"></path>
<path fill="#f6f7f7" style="fill: var(--color1, #f6f7f7)" d="M9 16.55v-4.025l6.55 3.225v4.025l-6.55-3.225z"></path>
<path fill="#f6f7f7" style="fill: var(--color1, #f6f7f7)" d="M5 19.525v-4l5.975 2.95v4.050l-5.975-3z"></path>
<path fill="#f6f7f7" style="fill: var(--color1, #f6f7f7)" d="M4.050 15.025l-2.025-1v4.050l2.025 0.975v-4.025z"></path>
<path fill="#f6f7f7" style="fill: var(--color1, #f6f7f7)" d="M2.025 19.050l6 2.975v4.050l-5.6-2.8c-0.294-0.137-0.4-0.372-0.4-0.75v-3.475z"></path>
<path fill="#f6f7f7" style="fill: var(--color1, #f6f7f7)" d="M9 26.55v-4.025l6.55 3.25v4.3l-6.55-3.525z"></path>
<path fill="#f6f7f7" style="fill: var(--color1, #f6f7f7)" d="M12 23v-3.95l3.55 1.75v4l-3.55-1.8z"></path>
<path fill="#f6f7f7" style="fill: var(--color1, #f6f7f7)" d="M16.525 24.8v-4l3.475-1.75v3.95l-3.475 1.8z"></path>
<path fill="#f6f7f7" style="fill: var(--color1, #f6f7f7)" d="M16.525 30.075v-4.3l6.45-3.25v4.025l-6.45 3.525z"></path>
<path fill="#f6f7f7" style="fill: var(--color1, #f6f7f7)" d="M21.050 18.475v4.050l5.925-2.95v-4.050l-5.925 2.95z"></path>
<path fill="#f6f7f7" style="fill: var(--color1, #f6f7f7)" d="M30 18.1l-2.013 0.95v-4.038l2.013-1.012v4.1z"></path>
<path fill="#f6f7f7" style="fill: var(--color1, #f6f7f7)" d="M24.050 26v-4l5.95-2.95v3.35c0 0.464-0.078 0.699-0.575 0.925l-5.375 2.675z"></path>
<path fill="#ffc935" style="fill: var(--color2, #ffc935)" d="M16.023 5.312l-9.333 4.737 9.333 4.69 9.309-4.69-9.309-4.737z"></path>
</symbol>
<symbol id="grinding-machine" viewBox="0 0 32 32">
<path fill="#f6f7f7" style="fill: var(--color1, #f6f7f7)" d="M16.394 23.356h-10.527c-0.849 0-1.539-0.703-1.539-1.566v-10.967c0-0.864 0.69-1.566 1.539-1.566h10.527c0.848 0 1.539 0.702 1.539 1.566v1.494c-0.077-0.032-0.184-0.050-0.332-0.050h-6.935c-0.294 0-0.532 0.231-0.532 0.516v6.968c0 0.285 0.238 0.516 0.532 0.516h6.935c0.125 0 0.241-0.042 0.332-0.112v1.635c0 0.864-0.69 1.566-1.539 1.566z"></path>
<path fill="#f6f7f7" style="fill: var(--color1, #f6f7f7)" d="M18.134 12.8v1.6l8.164-11.508h0.328c0.282 0 0.511-0.233 0.511-0.52v-1.566c0-0.287-0.229-0.52-0.511-0.52h-1.598c-0.162 0-0.314 0.078-0.41 0.21l-7.606 10.448c-0.065 0.090-0.1 0.198-0.1 0.309 0 0-1.222 1.012 0 1.012s1.222 0.267 1.222 0.533z"></path>
<path fill="#ffc935" style="fill: var(--color2, #ffc935)" d="M17.422 17.243c-0.233 0-0.444-0.164-0.498-0.405-0.062-0.28 0.11-0.558 0.386-0.622 1.192-0.274 2.067-0.872 2.6-1.777 1.146-1.945 0.416-4.716 0.409-4.744-0.041-0.152-0.012-0.316 0.079-0.443s0.234-0.207 0.389-0.214c1.237-0.059 2.088-0.423 2.527-1.083 0.698-1.048 0.194-2.571 0.189-2.587-0.052-0.153-0.031-0.322 0.056-0.456s0.231-0.221 0.389-0.233c3.3-0.245 3.756-2.054 3.774-2.131 0.064-0.277 0.336-0.454 0.608-0.392s0.447 0.331 0.39 0.61c-0.021 0.102-0.53 2.393-4.099 2.886 0.127 0.71 0.194 1.895-0.458 2.879-0.546 0.825-1.464 1.325-2.732 1.492 0.181 1.038 0.38 3.203-0.643 4.945-0.682 1.161-1.777 1.922-3.254 2.262-0.038 0.009-0.076 0.013-0.113 0.013z"></path>
<path fill="#f6f7f7" style="fill: var(--color1, #f6f7f7)" d="M15.474 26.030h-8.688c-0.282 0-0.511-0.233-0.511-0.52v-2.675c0-0.287 0.229-0.52 0.511-0.52h8.688c0.282 0 0.511 0.233 0.511 0.52v2.675c0 0.287-0.229 0.52-0.511 0.52zM7.297 24.991h7.666v-1.635h-7.666v1.635z"></path>
<path fill="#f6f7f7" style="fill: var(--color1, #f6f7f7)" d="M29.774 30.4h-29.263c-0.282 0-0.511-0.233-0.511-0.52s0.229-0.52 0.511-0.52h29.263c0.282 0 0.511 0.233 0.511 0.52s-0.229 0.52-0.511 0.52z"></path>
<path fill="#f6f7f7" style="fill: var(--color1, #f6f7f7)" d="M3.487 28.8h15.289c1.032 0 1.871-0.854 1.871-1.904s-0.839-1.905-1.871-1.905h-15.289c-1.032 0-1.871 0.854-1.871 1.905s0.839 1.904 1.871 1.904z"></path>
<path fill="#ffc935" style="fill: var(--color2, #ffc935)" d="M11.541 19.733h5.184c0.483 0 0.875-0.588 0.875-1.313v-4.308c0-0.725-0.392-1.313-0.875-1.313h-5.184c-0.483 0-0.875 0.588-0.875 1.313v4.308c0 0.725 0.392 1.313 0.875 1.313z"></path>
<path fill="#ffc935" style="fill: var(--color2, #ffc935)" d="M7.258 21.102h-0.73c-0.282 0-0.511-0.233-0.511-0.52s0.229-0.52 0.511-0.52h0.73c0.282 0 0.511 0.233 0.511 0.52s-0.229 0.52-0.511 0.52z"></path>
<path fill="#f6f7f7" style="fill: var(--color1, #f6f7f7)" d="M31.489 3.179h-4.864c-0.282 0-0.511-0.233-0.511-0.52v-2.14c0-0.287 0.229-0.52 0.511-0.52h4.864c0.282 0 0.511 0.233 0.511 0.52v2.14c0 0.287-0.229 0.52-0.511 0.52z"></path>
<path fill="#f6f7f7" style="fill: var(--color1, #f6f7f7)" d="M19.587 24.19c-0.132 0-0.263-0.052-0.363-0.155-0.198-0.204-0.196-0.533 0.005-0.735l1.128-1.133c0.201-0.202 0.524-0.2 0.722 0.005s0.196 0.533-0.005 0.735l-1.128 1.133c-0.1 0.1-0.229 0.15-0.359 0.15z"></path>
<path fill="#f6f7f7" style="fill: var(--color1, #f6f7f7)" d="M21.705 24.914c-0.178 0-0.351-0.095-0.445-0.264-0.139-0.25-0.052-0.567 0.193-0.708l2.705-1.558c0.246-0.141 0.557-0.053 0.696 0.196s0.052 0.567-0.193 0.708l-2.705 1.558c-0.080 0.046-0.166 0.067-0.251 0.067z"></path>
<path fill="#f6f7f7" style="fill: var(--color1, #f6f7f7)" d="M22.492 26.88c-0.218 0-0.42-0.144-0.488-0.367-0.083-0.274 0.068-0.565 0.338-0.65l1.608-0.504c0.269-0.084 0.555 0.069 0.638 0.344s-0.068 0.565-0.338 0.65l-1.608 0.504c-0.050 0.016-0.1 0.023-0.15 0.023z"></path>
</symbol>
<symbol id="handshake" viewBox="0 0 32 32">
<path fill="#f6f7f7" style="fill: var(--color1, #f6f7f7)" d="M20.8 6.95l-5.643-1.436c-2.374-0.745-3.918 0.555-4.334 0.972-0.243 0.243-0.429 0.499-0.524 0.722l-2.644 6.22c-0.151 0.356-0.1 0.83 0.138 1.303 0.34 0.675 0.952 1.162 1.685 1.337 0.82 0.196 1.669-0.070 2.335-0.735 0.174-0.174 0.322-0.366 0.409-0.528l0.889-1.649c0.146-0.273 0.358-0.556 0.582-0.78 0.327-0.327 0.85-0.635 0.85-0.635l8.733 8.656c0.248 0.248 0.196 0.718-0.114 1.028s-0.78 0.362-1.028 0.115l-2.403-2.429-0.876 0.855 2.366 2.487c0.247 0.247 0.196 0.717-0.114 1.026-0.31 0.31-0.781 0.362-1.027 0.115l-2.446-2.387-0.808 0.842 2.341 2.458c0.247 0.247 0.194 0.718-0.115 1.027s-0.779 0.362-1.027 0.114l-2.432-2.358-0.833 0.783 2.352 2.488c0.248 0.248 0.195 0.718-0.114 1.028-0.311 0.31-0.781 0.362-1.028 0.114l-2.385-2.387c0.341-0.512 0.248-1.255-0.257-1.762-0.566-0.566-1.437-0.618-1.941-0.112 0.504-0.505 0.454-1.375-0.113-1.941s-1.437-0.618-1.941-0.114c0.504-0.504 0.453-1.373-0.115-1.939-0.566-0.568-1.435-0.619-1.941-0.115 0.505-0.504 0.453-1.373-0.114-1.941-0.53-0.53-1.321-0.603-1.835-0.198l-4.295-4.327c0 0-0.228 0.212-0.48 0.464s-0.385 0.392-0.385 0.392l4.237 4.373-1.142 1.142c-0.504 0.503-0.453 1.372 0.115 1.941 0.566 0.566 1.435 0.618 1.94 0.114-0.505 0.505-0.453 1.373 0.114 1.941 0.566 0.566 1.436 0.619 1.941 0.114-0.505 0.505-0.454 1.373 0.114 1.94s1.437 0.619 1.941 0.115c-0.504 0.503-0.453 1.372 0.114 1.94 0.567 0.566 1.435 0.618 1.941 0.114l1.206-1.206 2.369 2.368c0.756 0.756 2.035 0.703 2.853-0.114 0.399-0.399 0.612-0.908 0.642-1.412 0.504-0.030 1.014-0.243 1.412-0.643 0.399-0.399 0.614-0.908 0.644-1.412 0.503-0.030 1.011-0.243 1.412-0.642 0.399-0.4 0.613-0.908 0.642-1.413 0.505-0.029 1.014-0.242 1.413-0.643 0.818-0.818 0.868-2.098 0.114-2.853l-0.999-0.999 4.634-4.52-7.024-7.017z"></path>
<path fill="#ffc935" style="fill: var(--color2, #ffc935)" d="M31.074 8.979c0 0-3.191-3.189-5.226-5.226-0.328-0.328-0.937-0.901-0.937-0.901s-0.453 0.466-0.89 0.901c-0.437 0.436-1.827 1.826-1.827 1.826-0.455 0.451-0.898 0.92-0.898 0.92s0.425 0.436 0.898 0.906l5.227 5.227c0.251 0.251 0.91 0.926 0.91 0.926s0.664-0.673 0.917-0.926l1.826-1.826c0.245-0.245 0.925-0.935 0.925-0.935s-0.666-0.633-0.925-0.892zM28.331 11.64c-0.585 0-1.060-0.474-1.060-1.060s0.475-1.060 1.060-1.060c0.585 0 1.060 0.474 1.060 1.060-0.001 0.585-0.475 1.060-1.060 1.060z"></path>
</symbol>
<symbol id="house-plumbing-water" viewBox="0 0 32 32">
<path fill="#f6f7f7" style="fill: var(--color1, #f6f7f7)" d="M24.38 9.129v-5.976h-3.854v2.946l-4.479-3.497-15.047 11.511 2.288 2.204 2.32-1.79v14.871h20.762v-14.761l2.283 1.79 2.348-2.148-6.62-5.15zM12.022 24.464c-1.678 0-3.033-0.966-3.033-2.155 0-0.282 0.112-0.564 0.189-0.774 0.050-0.133 2.873-4.231 2.873-4.231v-0.036l2.738 4.231c0 0 0.239 0.354 0.267 0.81 0 1.194-1.355 2.155-3.033 2.155zM20.901 17.69c0.007 0.049 0.011 0.099 0.011 0.15v8.558c0 0.347-0.167 0.663-0.434 0.891-0.269 0.228-0.637 0.371-1.043 0.371-0.813 0-1.478-0.567-1.478-1.262v-8.558c0-0.051 0.004-0.101 0.011-0.15-1.077-0.46-1.816-1.411-1.816-2.51 0-1.188 0.864-2.203 2.084-2.612v2.612h2.399v-2.612c1.218 0.409 2.082 1.424 2.082 2.612 0 1.099-0.74 2.050-1.816 2.51z"></path>
<path fill="#ffc935" style="fill: var(--color2, #ffc935)" d="M8.989 22.309c0 1.189 1.355 2.155 3.033 2.155s3.033-0.961 3.033-2.155c-0.030-0.321-0.105-0.497-0.267-0.81l-2.738-4.231c0 0-2.823 4.134-2.873 4.267-0.129 0.285-0.177 0.451-0.189 0.774z"></path>
</symbol>
<symbol id="local" viewBox="0 0 32 32">
<path fill="#ffc935" style="fill: var(--color2, #ffc935)" d="M22.651 31.17c0.879-0.307 1.348-0.668 1.348-1.037 0.020-0.246-0.174-0.491-0.569-0.72s-0.984-0.436-1.73-0.61-1.636-0.312-2.616-0.404c-0.979-0.092-2.028-0.137-3.084-0.133-1.582 0-3.129 0.109-4.444 0.315s-2.341 0.497-2.946 0.838-0.764 0.716-0.455 1.078c0.309 0.362 1.071 0.695 2.189 0.956s2.544 0.439 4.096 0.511c1.552 0.072 3.16 0.035 4.622-0.106s2.711-0.38 3.59-0.687z"></path>
<path fill="#f6f7f7" style="fill: var(--color1, #f6f7f7); stroke: var(--color1, #f6f7f7)" stroke="#f6f7f7" stroke-linejoin="round" stroke-linecap="butt" stroke-miterlimit="4" stroke-width="2.1333" d="M25.867 12.667c0-5.523-4.477-10-10-10s-10 4.477-10 10c0 8.667 10 16.667 10 16.667s10-8 10-16.667zM22.331 12.8c0 3.57-2.894 6.465-6.465 6.465s-6.465-2.894-6.465-6.465c0-3.57 2.894-6.465 6.465-6.465s6.465 2.894 6.465 6.465z"></path>
</symbol>
<symbol id="modern-building" viewBox="0 0 32 32">
<path fill="#f6f7f7" style="fill: var(--color1, #f6f7f7)" d="M23.083 12.562v-2.822l0.935 0.11v-2.115l-11.289-1.728-12.729 2.423v2.473l1.18-0.164v6.872h3.423v6.414l16.25 1.969 2.875-0.348v-8.232l5.107 0.016v7.596l2.373-0.287v-10.038l0.792 0.039v-1.504l-8.917-0.674zM21.934 10.717v2.475l-3.401 0.063v-2.884l3.401 0.346zM2.948 11.121l7.719-0.979v5.51l-7.719 0.256v-4.787zM6.119 22.565v-4.955h3.182v5.244l-3.182-0.289zM10.11 22.909v-5.301h2.618v-0.010h1.063v5.645l-3.681-0.334zM14.567 23.346v-5.746l4.287 0.001v6.137l-4.287-0.392z"></path>
<path fill="#ffc935" style="fill: var(--color2, #ffc935)" d="M10.667 10.142l-7.719 0.979v4.787l7.719-0.256v-5.51z"></path>
</symbol>
<symbol id="mood_happy_solid" viewBox="0 0 32 32">
<path fill="#f6f7f7" style="fill: var(--color1, #f6f7f7)" d="M16 32c-4.243 0-8.313-1.686-11.314-4.686s-4.686-7.070-4.686-11.314c0-4.243 1.686-8.313 4.686-11.314s7.070-4.686 11.314-4.686c4.243 0 8.313 1.686 11.314 4.686s4.686 7.070 4.686 11.314c0 4.243-1.686 8.313-4.686 11.314s-7.070 4.686-11.314 4.686zM10.4 14.4c0.637 0 1.247-0.253 1.697-0.703s0.703-1.061 0.703-1.697c0-0.637-0.253-1.247-0.703-1.697s-1.061-0.703-1.697-0.703c-0.637 0-1.247 0.253-1.697 0.703s-0.703 1.061-0.703 1.697c0 0.637 0.253 1.247 0.703 1.697s1.061 0.703 1.697 0.703zM21.6 14.4c0.637 0 1.247-0.253 1.697-0.703s0.703-1.061 0.703-1.697c0-0.637-0.253-1.247-0.703-1.697s-1.061-0.703-1.697-0.703c-0.637 0-1.247 0.253-1.697 0.703s-0.703 1.061-0.703 1.697c0 0.637 0.253 1.247 0.703 1.697s1.061 0.703 1.697 0.703zM25.056 19.2h-18.112c0.66 1.875 1.885 3.499 3.507 4.648s3.561 1.766 5.549 1.766c1.988 0 3.927-0.617 5.549-1.766s2.848-2.773 3.507-4.648z"></path>
<path fill="#ffc935" style="fill: var(--color2, #ffc935)" d="M6.944 19.2h18.112c-0.66 1.875-1.885 3.499-3.507 4.648s-3.561 1.766-5.549 1.766c-1.988 0-3.927-0.617-5.549-1.766s-2.848-2.773-3.507-4.648z"></path>
</symbol>
<symbol id="paint-brush" viewBox="0 0 32 32">
<path fill="#f6f7f7" style="fill: var(--color1, #f6f7f7)" d="M26.667 4h-1.579v-2.667c0 0-2.93 0.003-3.755 0h-19.998l-0.001 8h19.999c0.824-0.003 3.755 0 3.755 0v-2.667h1.579c0.354 0 0.693 0.14 0.943 0.391s0.39 0.589 0.39 0.943v4c0 0.354-0.14 0.693-0.39 0.943s-0.589 0.39-0.943 0.39h-8c-1.061 0-2.078 0.421-2.828 1.172s-1.172 1.768-1.172 2.828h-1.333c-0.354 0-1.333 0-1.333 0s0 0.98 0 1.333v10.667c0 0.354 0 1.333 0 1.333s0.98 0 1.333 0h5.333c0.354 0 1.333 0 1.333 0s0-0.98 0-1.333v-10.667c0-0.354 0-1.333 0-1.333s-0.98 0-1.333 0h-1.333c0-0.354 0.14-0.693 0.39-0.943s0.589-0.39 0.943-0.39h8c1.061 0 2.078-0.421 2.828-1.172s1.172-1.768 1.172-2.828v-4c0-1.061-0.421-2.078-1.172-2.828s-1.768-1.172-2.828-1.172z"></path>
<path fill="#ffc935" style="fill: var(--color2, #ffc935)" d="M5.615 12.43c-0.106-0.153-0.968-1.271-0.968-1.271s-0.823 1.118-0.929 1.271l-1.858 3.068c-0.345 0.575-0.525 1.234-0.521 1.905-0.046 0.843 0.243 1.671 0.804 2.302s1.349 1.015 2.192 1.068h0.666c0.843-0.053 1.631-0.437 2.192-1.068s0.85-1.458 0.804-2.302c0.003-0.671-0.176-1.329-0.52-1.905l-1.86-3.068z"></path>
</symbol>
<symbol id="Plan" viewBox="0 0 32 32">
<path fill="#f6f7f7" style="fill: var(--color1, #f6f7f7)" d="M-1.6 25.363v-19.467h35.199v19.467h-11.731l8.43-3.336c0.020-0.008 0.057-0.023 0.128-0.053 0.143-0.059 0.424-0.175 0.983-0.406 0.698-0.289 1.196-0.8 1.309-1.491 0.105-0.648-0.165-1.25-0.531-1.685-0.726-0.866-2.137-1.452-3.55-0.9l-0.033 0.013v-8.004c0-0.295-0.239-0.533-0.533-0.533h-24.308c-0.295 0-0.533 0.239-0.533 0.533v11.874c0 0.295 0.239 0.533 0.533 0.533h13.8l-4.71 1.883-0.122 0.13c-0.346 0.369-0.845 0.936-1.284 1.443h-13.048zM17.519 25.363h-2.43l-0.461-0.559 7.245-2.896h4.378l-8.732 3.456zM28.605 20.976l0.048-0.019-0.048-0.057v0.076zM27.005 18.133v-0.093h-3.211v1.377l3.211-1.284zM24.63 20.806l2.374-0.949v0.949h-2.374zM22.194 20.056v-6.010l-5.4-0.054v-3.924h-3.614v3.932h-4.531v3.023h4.531v3.782h7.141l1.874-0.749zM4.83 10.069v2.83h6.749v-2.83h-6.749zM18.393 10.069v2.838l3.8 0.038v-2.876h-3.8zM27.005 10.069h-3.211v6.869h3.211v-6.869zM11.579 20.806v-2.68h-6.749v2.68h6.749zM4.83 17.024h2.218v-3.023h-2.218v3.023zM29.219 18.982l-0.102 0.040 1.098 1.309c0.149-0.062 0.339-0.14 0.582-0.241 0.327-0.135 0.34-0.261 0.341-0.269l0-0c0.007-0.045-0.002-0.192-0.177-0.4-0.354-0.421-1.062-0.704-1.742-0.438z"></path>
<path fill="#ffc935" style="fill: var(--color2, #ffc935)" d="M11.084 27.069c0 0 1.513-1.784 2.258-2.579l14.473-5.786c0 0-0 0 1.14-0.445 2.093-0.817 4.238 1.738 2.175 2.592-1.116 0.462-1.125 0.464-1.125 0.464l-14.539 5.753h-4.382z"></path>
</symbol>
<symbol id="shovel" viewBox="0 0 32 32">
<path fill="#f6f7f7" style="fill: var(--color1, #f6f7f7)" d="M17.283 20.617c-0.091-1.582-0.406-3.115-0.897-4.261-0.101-0.235-0.456-0.985-0.456-0.985l-2.996 1.318-1.384-3.158-1.15 0.491-3.739-8.732c0.488-0.399 0.871-0.917 1.112-1.518 0.375-0.937 0.363-1.964-0.034-2.892-0.11-0.256-0.519-0.928-0.519-0.928l-6.82 2.87c0 0 0.268 0.744 0.391 1.033 0.397 0.928 1.132 1.646 2.069 2.021 0.454 0.182 0.93 0.273 1.405 0.273 0.154 0 0.308-0.011 0.461-0.030l3.739 8.732-1.115 0.511 1.297 3.164-3.017 1.246c0 0 0.283 0.766 0.393 1.022 0.687 1.605 2.158 3.482 3.84 4.9 0.068 0.057 0.14 0.117 0.214 0.177 1.088-1.233 2.603-2.080 4.312-2.307 0.7-1.228 1.703-2.237 2.894-2.946zM3.643 3.92c-0.055-0.022-0.109-0.047-0.161-0.074l2.395-1.025c-0.016 0.056-0.035 0.112-0.057 0.168-0.166 0.415-0.484 0.741-0.895 0.917s-0.866 0.181-1.282 0.015z"></path>
<path fill="#ffc935" style="fill: var(--color2, #ffc935)" d="M31.379 30.823c-0.516-1.821-2.179-3.102-4.064-3.145 0.006-0.111 0.009-0.221 0.009-0.332 0-3.313-2.695-6.008-6.008-6.008-2.601 0-4.86 1.656-5.68 4.048-0.148-0.014-0.297-0.021-0.447-0.021-2.686 0-4.872 2.185-4.872 4.872 0 0.348 0.082 1.762 0.082 1.762s0.497 0 0.932 0h19.158c0.29 0 1 0 1 0s-0.032-0.898-0.111-1.176z"></path>
</symbol>
<symbol id="teenyicons_house" viewBox="0 0 32 32">
<path fill="#f6f7f7" style="fill: var(--color1, #f6f7f7)" d="M16.619 0.198c-0.181-0.129-0.397-0.198-0.619-0.198s-0.438 0.069-0.619 0.198l-14.933 10.667c-0.138 0.099-0.251 0.229-0.329 0.38s-0.119 0.319-0.119 0.488v19.2c0 0.283 0.112 0.554 0.312 0.754s0.471 0.312 0.754 0.312h3.2v-14.933h10.667v14.933h16c0.283 0 0.554-0.112 0.754-0.312s0.312-0.471 0.312-0.754v-19.2c-0-0.17-0.041-0.337-0.119-0.488s-0.191-0.281-0.329-0.38l-1.685-1.205v-5.926h-3.733v3.87l-9.515-7.405zM23.467 25.6v-8.533h2.133v8.533h-2.133z"></path>
<path fill="#ffc935" style="fill: var(--color2, #ffc935)" d="M12.8 32v-6.4h-2.133v-2.133h2.133v-4.267h-6.4v12.8h6.4z"></path>
</symbol>
<symbol id="theodolite" viewBox="0 0 32 32">
<path fill="#f6f7f7" style="fill: var(--color1, #f6f7f7)" d="M12.48 0c-0.886 0-1.6 0-1.6 0v16c0 0 0.714 0 1.6 0h7.040c0.886 0 1.6 0 1.6 0v-14.4c0-0.886 0-1.6 0-1.6h-8.64zM15.993 4.8c0.002 0 0.004 0 0.006 0 0.849 0 1.663 0.337 2.263 0.937s0.937 1.414 0.937 2.263-0.337 1.663-0.937 2.263c-0.6 0.6-1.414 0.937-2.263 0.937s-1.663-0.337-2.263-0.937c-0.6-0.6-0.937-1.414-0.937-2.263 0-0.848 0.336-1.661 0.935-2.26s1.411-0.938 2.259-0.94zM8.377 6.48c-0.203-0-0.405 0.039-0.592 0.117s-0.359 0.192-0.502 0.335c-0.144 0.144-0.258 0.314-0.335 0.502s-0.117 0.389-0.117 0.592v10.826c-0 0.203 0 1.547 0 1.547s1.344 0 1.547 0h3.983v4.32h0.669l-1.951 7.28h2.318l1.951-7.28h1.305l1.951 7.28h2.319l-1.951-7.28h0.669v-4.32h3.983c0.203 0 1.547 0 1.547 0s0-1.344 0-1.547v-10.826c0-0.203-0.039-0.405-0.117-0.592s-0.191-0.359-0.335-0.502c-0.144-0.144-0.314-0.258-0.502-0.335s-0.389-0.117-0.592-0.117h-1.222l-0.010 10.795h-12.791v-10.795h-1.222z"></path>
<path fill="#ffc935" style="fill: var(--color2, #ffc935)" d="M12.48 0h8.64v16h-10.24v-16h1.6zM16 4.8h-0.006c-0.848 0.002-1.66 0.34-2.259 0.94s-0.935 1.413-0.935 2.26c0 0.849 0.337 1.663 0.937 2.263s1.414 0.937 2.263 0.937 1.663-0.337 2.263-0.937c0.6-0.6 0.937-1.414 0.937-2.263s-0.337-1.663-0.937-2.263c-0.6-0.6-1.414-0.937-2.263-0.937z"></path>
</symbol>
<symbol id="wheelbarrow" viewBox="0 0 32 32">
<path fill="#f6f7f7" style="fill: var(--color1, #f6f7f7)" d="M29.5 13.1c0 0-10.692-6.016-17.6-9.9-0.435-0.244-1.1-0.65-1.1-0.65s-0.3 0.85-0.4 1.15l-0.3 0.8-4.417-2.766c0 0-0.207 0.325-0.483 0.766s-0.508 0.8-0.508 0.8l4.808 3.1-2.5 6.9-4.233 6.734 1.5 1.067 9.533-2.6 5.3 3.2 0.2 0.8c-0.7 0.3-1.3 0.9-1.7 1.5-1.1 1.9-0.5 4.4 1.4 5.5 0.6 0.4 1.3 0.6 2.1 0.6 0.3 0 0.6 0 1-0.1 1-0.3 1.9-0.9 2.5-1.8 1.1-1.9 0.5-4.4-1.4-5.5-0.6-0.4-1.2-0.5-1.9-0.6l-0.1-0.6 8.6-6.6c0.3-0.2 1.208-0.891 1.208-0.891s-1.208-0.709-1.508-0.909zM6.2 18.4l2-3.3 3.2 1.9-5.2 1.4zM22 24.3c0.9 0.6 1.3 1.8 0.7 2.8-0.3 0.5-0.7 0.8-1.2 0.9s-1 0-1.5-0.2c-0.9-0.6-1.3-1.8-0.7-2.8 0.1-0.2 0.2-0.3 0.4-0.4l0.4 1.7c0.1 0.5 0.5 0.8 1 0.8 0.1 0 0.1 0 0.2 0 0.5-0.1 0.9-0.6 0.8-1.2l-0.4-1.7c0.1 0 0.2 0 0.3 0.1z"></path>
<path fill="#ffc935" style="fill: var(--color2, #ffc935)" d="M19.3 22.5c0.719-0.344 1.205-0.445 2-0.4 0.777 0.045 1.238 0.192 1.9 0.6 1.887 1.163 2.5 3.6 1.4 5.5-0.6 0.9-1.5 1.5-2.5 1.8-0.4 0.1-0.7 0.1-1 0.1-0.8 0-1.5-0.2-2.1-0.6-1.9-1.1-2.5-3.6-1.4-5.5 0.4-0.6 0.901-1.118 1.7-1.5zM22.7 27.1c0.6-1 0.2-2.2-0.7-2.8-0.1-0.1-0.2-0.1-0.3-0.1l0.631 2.655-1.985 0.49-0.646-2.745c-0.186 0.134-0.313 0.256-0.4 0.4-0.542 0.9-0.278 2.198 0.7 2.759 0.513 0.294 1 0.341 1.5 0.241s0.9-0.4 1.2-0.9z"></path>
</symbol>
</defs>
</svg>
