<svg width="60" height="60" viewBox="0 0 60 60" fill="none" xmlns="http://www.w3.org/2000/svg">
<path d="M16.875 33.625V24.25C16.875 24.25 16.125 24.25 15 24.25H1.875C0.75 24.25 0 24.25 0 24.25V33.625C0 34.75 0 35.5 0 35.5H16.875C16.875 35.5 16.875 34.75 16.875 33.625Z" fill="#F6F7F7"/>
<path d="M58.125 24.25H45C43.875 24.25 43.125 24.25 43.125 24.25V33.625C43.125 34.75 43.125 35.5 43.125 35.5H60C60 35.5 60 34.75 60 33.625V24.25C60 24.25 59.25 24.25 58.125 24.25Z" fill="#FFC935"/>
<path d="M22.5 24.25H20.625V35.5C20.625 35.5 21.375 35.5 22.5 35.5H37.5C38.625 35.5 39.375 35.5 39.375 35.5V26.125C39.375 25 39.375 24.25 39.375 24.25H22.5Z" fill="#F6F7F7"/>
<path d="M9.37476 20.5005H28.125C28.125 20.5005 28.125 19.7505 28.125 18.6255V11.1255C28.125 10.0005 28.125 9.25 28.125 9.25L11.25 9.25046C10.125 9.25046 9.37499 9.25046 9.37499 9.25046V18.6255C9.37499 19.7505 9.37476 20.5005 9.37476 20.5005Z" fill="#F6F7F7"/>
<path d="M31.875 20.5H50.625C50.625 20.5 50.625 19.75 50.625 18.625V9.25C50.625 9.25 49.875 9.25 48.75 9.25H33.75C32.625 9.25 31.875 9.25 31.875 9.25V18.625C31.875 19.75 31.875 20.5 31.875 20.5Z" fill="#F6F7F7"/>
<path d="M26.25 39.25L9.375 39.3372C9.375 39.3372 9.375 40 9.375 41.125V50.5C9.375 50.5 10.125 50.5 11.25 50.5H28.125C28.125 50.5 28.125 49.75 28.125 48.625V39.25C28.125 39.25 27.375 39.25 26.25 39.25Z" fill="#FFC935"/>
<path d="M48.75 39.25H33.75C32.625 39.25 31.875 39.25 31.875 39.25V48.625C31.875 49.75 31.875 50.5 31.875 50.5H50.625C50.625 50.5 50.625 49.75 50.625 48.625V39.25C50.625 39.25 49.875 39.25 48.75 39.25Z" fill="#F6F7F7"/>
</svg>
