<svg width="24" height="24" viewBox="0 0 24 24" fill="none" xmlns="http://www.w3.org/2000/svg">
<g clip-path="url(#clip0_160_5385)">
<path d="M9.64062 1.19531L23 7.59922" stroke="#F6F7F7" stroke-width="4" stroke-linecap="square" stroke-linejoin="round"/>
<path d="M10.9383 8.27148L1.2002 12.7988" stroke="#F6F7F7" stroke-width="4" stroke-linecap="square" stroke-linejoin="round"/>
<path fill-rule="evenodd" clip-rule="evenodd" d="M22.1454 22.4145V8.00839L10.6438 2.00586V23.0147H21.5064C21.6759 23.0147 21.8384 22.9515 21.9582 22.8389C22.078 22.7263 22.1454 22.5737 22.1454 22.4145ZM18.7838 12.4994C19.0744 12.0977 19.2295 11.6254 19.2295 11.1423C19.2359 10.8198 19.1719 10.4995 19.0413 10.2004C18.9107 9.90138 18.7161 9.62971 18.4692 9.40168C18.2223 9.17365 17.9282 8.99394 17.6044 8.87329C17.2806 8.75264 16.9337 8.69353 16.5846 8.69949C16.0615 8.69949 15.5502 8.84275 15.1152 9.11117C14.6803 9.37958 14.3413 9.76109 14.1411 10.2074C13.9409 10.6538 13.8886 11.145 13.9906 11.6188C14.0927 12.0927 14.3446 12.5279 14.7145 12.8696C15.0843 13.2112 15.5556 13.4438 16.0687 13.5381C16.5817 13.6323 17.1135 13.584 17.5968 13.3991C18.0801 13.2142 18.4931 12.9011 18.7838 12.4994ZM12.8282 13.9996H14.8282H18.4282H20.4282V15.9996V22.9996H16.8282H16.4282H12.8282V15.9996V13.9996Z" fill="#F6F7F7"/>
<path d="M18.7832 12.4995C19.0738 12.0978 19.2289 11.6255 19.2289 11.1424C19.2354 10.82 19.1714 10.4996 19.0407 10.2006C18.9101 9.90151 18.7155 9.62985 18.4686 9.40182C18.2217 9.17378 17.9276 8.99407 17.6038 8.87342C17.28 8.75278 16.9332 8.69366 16.5841 8.69963C16.061 8.69963 15.5496 8.84289 15.1146 9.1113C14.6797 9.37972 14.3407 9.76123 14.1405 10.2076C13.9404 10.6539 13.888 11.1451 13.99 11.619C14.0921 12.0928 14.344 12.5281 14.7139 12.8697C15.0838 13.2113 15.555 13.444 16.0681 13.5382C16.5811 13.6325 17.1129 13.5841 17.5962 13.3992C18.0795 13.2143 18.4925 12.9012 18.7832 12.4995Z" fill="#FFC935"/>
<path d="M20.8001 1.19922V6.79922L17.6001 5.19922V1.19922H20.8001Z" fill="#F6F7F7" stroke="#F6F7F7" stroke-width="4"/>
<path d="M0.79541 23.0137H23.2038" stroke="#F6F7F7" stroke-width="4" stroke-linecap="square" stroke-linejoin="round"/>
<path fill-rule="evenodd" clip-rule="evenodd" d="M2.00102 22.5215V12.3612L11.6 8V23.1988H2.60096C2.52092 23.2043 2.44077 23.1905 2.3658 23.1584C2.29083 23.1262 2.22275 23.0765 2.16606 23.0125C2.10936 22.9485 2.06533 22.8716 2.03688 22.787C2.00843 22.7024 1.99621 22.6119 2.00102 22.5215ZM9.64062 15.299H4.84062V20.099H9.64062V15.299Z" fill="#F6F7F7"/>
</g>
<defs>
<clipPath id="clip0_160_5385">
<rect width="24" height="24" fill="white"/>
</clipPath>
</defs>
</svg>
