<svg width="60" height="60" viewBox="0 0 60 60" fill="none" xmlns="http://www.w3.org/2000/svg">
<g clip-path="url(#clip0_2401_2337)">
<path fill-rule="evenodd" clip-rule="evenodd" d="M57.2333 16.1627H1.7667V11.8888C1.7667 11.091 2.70532 10.4641 3.90001 10.4641H10.3V13.3134C10.3 13.3134 11.2387 13.3134 12.4333 13.3134C13.628 13.3134 14.5667 13.3134 14.5667 13.3134V10.4641H44.4334L44.5 13.3594H46.5H48.7V10.4641H55.1C56.2946 10.4641 57.2333 11.091 57.2333 11.8888V16.1627ZM25.2333 42.4044L10.94 32.8309L13.9266 30.8364L25.2333 38.3584L45.0733 25.1379L48.06 27.1323L25.2333 42.4044ZM55.1 7.61489H48.7V4.76562C48.7 4.76562 47.7613 4.76563 46.5667 4.76563C45.372 4.76563 44.4334 4.76562 44.4334 4.76562V7.61489H14.5667V4.76562C14.5667 4.76562 13.628 4.76562 12.4333 4.76562C11.2387 4.76562 10.3 4.76562 10.3 4.76562V7.61489H3.90001C0.358681 7.61489 -2.5 9.5239 -2.5 11.8888V53.2031H61.5V11.8888C61.5 9.5239 58.6413 7.61489 55.1 7.61489Z" fill="#F6F7F7"/>
<path d="M10.3008 13.3134V10.4641V7.61489V4.76562H12.4341H14.5675V7.61489V10.4641V13.3134H12.4341H10.3008Z" fill="#FFC935"/>
<path d="M44.4258 13.3134V10.4641V7.61489V4.76562H46.5591H48.6925V7.61489V10.4641V13.3134H46.5591H44.4258Z" fill="#FFC935"/>
</g>
<defs>
<clipPath id="clip0_2401_2337">
<rect width="60" height="60" fill="white"/>
</clipPath>
</defs>
</svg>
