<svg width="60" height="60" viewBox="0 0 60 60" fill="none" xmlns="http://www.w3.org/2000/svg">
<path d="M46.6647 53.9263C46.6647 53.9263 39.7577 51.9898 38.9202 49.4484C38.9202 49.2174 38.9202 48.9863 38.7109 48.9863H20.0779C20.0779 49.2174 20.0779 49.4484 19.8685 49.4484C19.2404 51.9898 12.3125 54.1546 12.3125 54.1546C12.3125 54.1546 12.3125 54.4394 12.3125 55.8256C12.3125 57.2119 12.3125 58.2278 12.3125 58.2278L46.6647 58.4163C46.6647 58.4163 46.6647 57.3166 46.6647 55.9303C46.6647 54.5441 46.6647 53.9263 46.6647 53.9263Z" fill="#FFC935"/>
<path d="M52.5296 1.70117H6.47049C2.91137 1.70117 0.189697 1.70117 0.189697 1.70117V39.3859C0.189697 42.945 0.189697 45.6667 0.189697 45.6667H20.9163H37.8744H58.8104C58.8104 45.6667 58.8104 42.945 58.8104 39.3859V1.70117C58.8104 1.70117 56.0887 1.70117 52.5296 1.70117ZM46.2488 35.1987H12.7513C11.4951 35.1987 10.6577 34.3613 10.6577 33.1051C10.6577 31.849 11.4951 31.0115 12.7513 31.0115H13.17V30.5928C13.17 26.8243 14.4262 23.4746 16.5197 20.5435L19.0324 27.777L22.5359 26.4247L19.6601 16.147C19.6601 15.5189 20.0789 14.8908 20.7069 14.4721C26.1503 11.7504 32.6404 11.7504 38.0838 14.4721C38.7119 14.8908 39.1306 15.5189 39.1306 16.147L36.1888 26.4247L39.8545 27.777L42.271 20.5435C44.3646 23.4746 45.6207 26.8243 45.6207 30.5928V31.0115H46.2488C47.505 31.0115 48.3424 31.849 48.3424 33.1051C48.3424 34.3613 47.505 35.1987 46.2488 35.1987Z" fill="#F6F7F7"/>
</svg>
