<svg width="60" height="60" viewBox="0 0 60 60" fill="none" xmlns="http://www.w3.org/2000/svg">
<path fill-rule="evenodd" clip-rule="evenodd" d="M27.3239 38.6223C24.528 38.223 20.49 36.2559 20.49 36.2559C12.385 38.233 2.93335 42.869 2.93335 48.9337V59.3108H17.9312V42.8132C17.9312 42.8132 18.6027 42.8132 19.431 42.8132C20.2594 42.8132 20.9308 42.8132 20.9308 42.8132V59.3108H38.9283V42.8132C38.9283 42.8132 39.5997 42.8132 40.4281 42.8132C41.2564 42.8132 41.9278 42.8132 41.9278 42.8132V59.3108H56.9257V48.9337C56.9257 42.869 48.0519 38.233 39.9469 36.2559C39.9469 36.2559 35.6493 38.2357 32.6958 38.6223C30.6157 38.8945 29.4007 38.9188 27.3239 38.6223Z" fill="#F6F7F7"/>
<path fill-rule="evenodd" clip-rule="evenodd" d="M31.4293 0.689453C33.0302 0.895464 34.5467 1.42043 35.9287 2.16096V8.31666C35.9287 8.31666 36.6002 8.31666 37.4285 8.31666C38.2568 8.31666 38.9283 8.31666 38.9283 8.31666V4.26897C40.7781 5.92092 42.1687 7.92631 42.8852 9.84137C42.9125 10.5448 42.8363 11.2716 42.6985 11.9786C42.5236 12.876 42.2598 13.6831 42.0381 14.2677C41.9277 14.559 41.8289 14.7923 41.7585 14.9509C41.7233 15.03 41.6954 15.0905 41.6768 15.1299L41.6563 15.1731L41.2616 15.892C41.2616 15.892 41.6156 16.0862 42.0234 16.2887C42.4315 16.4913 42.6675 16.5982 42.6675 16.5982C42.6675 16.5982 43.0121 16.0802 43.2021 15.7039C43.36 15.3913 43.4583 15.1757 43.5808 14.8526C43.825 14.2085 44.1201 13.3087 44.3178 12.2941C44.352 12.1187 44.3836 11.9378 44.4117 11.7524C45.6967 13.4326 46.4272 15.1737 46.4272 16.6782C46.4272 21.4616 39.0409 22.0399 29.9296 22.0399C20.8182 22.0399 13.4319 21.4616 13.4319 16.6782C13.4319 15.2682 14.2818 13.4701 15.4201 11.8893C15.3712 13.2345 15.8489 15.2859 16.7546 16.534L17.9331 15.6675C16.2347 13.8131 16.723 11.6677 17.2652 9.87932C17.529 9.00869 17.8722 8.23888 18.1511 7.68477C18.2902 7.40876 18.4118 7.18891 18.4976 7.03986C18.5405 6.96539 18.5744 6.90878 18.5967 6.87185L18.6216 6.83149L18.6278 6.82153C18.6348 6.81053 18.6414 6.7994 18.6479 6.78816C19.2923 5.90102 20.0608 5.0459 20.9308 4.26895V8.44222C20.9308 8.44222 21.593 8.44222 22.4213 8.44222C23.2497 8.44222 23.9304 8.44222 23.9304 8.44222V2.16094C25.3125 1.42043 26.8289 0.895464 28.4298 0.689453V5.31708C28.4298 5.31708 29.1012 5.31708 29.9296 5.31708C30.7579 5.31708 31.4293 5.31708 31.4293 5.31708V0.689453Z" fill="#FFC935"/>
<path fill-rule="evenodd" clip-rule="evenodd" d="M19.5152 22.5631C19.9424 27.9692 24.4648 32.2231 29.9808 32.2231C35.7789 32.2231 40.3404 27.8022 40.7607 22.4035L43.4789 21.7246C43.4789 29.1795 37.4356 35.2227 29.9808 35.2227C22.5259 35.2227 16.4827 29.1795 16.4827 21.7246L19.5152 22.5631Z" fill="#F6F7F7"/>
</svg>
