<svg width="33" height="23" viewBox="0 0 33 23" fill="none" xmlns="http://www.w3.org/2000/svg">
<path d="M17.5582 9.29827C17.6279 9.20722 17.6862 9.10671 17.7352 9.00818C17.8761 8.72541 17.9913 8.35587 18.0841 7.94049C18.2704 7.10647 18.3791 6.02984 18.3988 4.95132C18.4186 3.87317 18.3499 2.77499 18.1732 1.89906C18.0851 1.4621 17.9675 1.06677 17.8125 0.753356C17.7383 0.603211 17.5299 0.324331 17.4229 0.203125L30.4613 0.338627C32.6431 0.753356 34.4337 5.60543 31.35 9.00818L17.5582 9.29827Z" fill="#C2CDC6"/>
<path d="M16.9349 9.1656C16.9349 9.1656 15.3312 7.99305 15.3313 4.54639C15.3314 0.753356 16.7495 0.203125 16.7495 0.203125C17.0325 0.261197 17.2102 0.633292 17.3058 0.996778C17.4229 1.442 17.4781 1.61063 17.5608 2.02055C17.7257 2.8384 17.7936 3.8889 17.7743 4.94006C17.7551 5.99085 17.649 7.02417 17.4742 7.80649C17.3865 8.19929 17.2845 8.51452 17.1752 8.73382C17.0557 8.97384 16.9349 9.1656 16.9349 9.1656Z" fill="#C2CDC6"/>
<path d="M0.0251465 14.6764L29.876 14.6764L29.5637 11.2695H0.0251465V14.6764Z" fill="#FFD74A"/>
<path d="M16.9542 3.26172L13.7532 3.45529L13.8898 6.70733L17.1104 6.53312C17.1104 6.53312 17.4869 5.29714 17.3837 4.51995C17.315 4.00308 16.9542 3.26172 16.9542 3.26172Z" fill="#FFD74A"/>
<path d="M14.7223 2.56836C14.7223 2.56836 4.02333 2.66723 2.53026 3.37377C2.02293 3.61385 1.55412 3.92249 1.30714 4.0946C1.18802 4.17761 1.10717 4.30148 1.07505 4.4423C0.861457 5.37853 0.276855 8.44961 0.276855 8.44961L2.69149 12.8496L6.36375 13.8246L8.40109 10.5996L12.5009 8.17461L14.7223 7.72404V6.67349V3.42663V2.56836Z" fill="#C2CDC6"/>
<path d="M28.8607 15.733V20.4658L31.9837 22.2467L32.7254 21.5111V9.70312H29.095L29.07 10.8518C28.7041 10.954 28.316 11.0887 28.041 11.1936L28.4578 14.678H27.1821V15.1165L28.5387 15.7364V15.733H28.8607Z" fill="#C2CDC6"/>
<path d="M29.1734 19.0137H24.7427V19.846C24.7427 19.846 29.1734 19.8151 29.1734 19.846V19.0137Z" fill="#FFD74A"/>
<g filter="url(#filter0_d_2401_2397)">
<path d="M29.9827 18.5195L28.9513 18.8067C28.7631 19.2841 28.831 19.468 28.9513 19.9731L30.1456 20.2423C30.3935 19.5307 30.2853 18.868 29.9827 18.5195Z" fill="#FFD74A"/>
</g>
<defs>
<filter id="filter0_d_2401_2397" x="24.8342" y="18.5195" width="9.44849" height="9.72266" filterUnits="userSpaceOnUse" color-interpolation-filters="sRGB">
<feFlood flood-opacity="0" result="BackgroundImageFix"/>
<feColorMatrix in="SourceAlpha" type="matrix" values="0 0 0 0 0 0 0 0 0 0 0 0 0 0 0 0 0 0 127 0" result="hardAlpha"/>
<feOffset dy="4"/>
<feGaussianBlur stdDeviation="2"/>
<feComposite in2="hardAlpha" operator="out"/>
<feColorMatrix type="matrix" values="0 0 0 0 0 0 0 0 0 0 0 0 0 0 0 0 0 0 0.25 0"/>
<feBlend mode="normal" in2="BackgroundImageFix" result="effect1_dropShadow_2401_2397"/>
<feBlend mode="normal" in="SourceGraphic" in2="effect1_dropShadow_2401_2397" result="shape"/>
</filter>
</defs>
</svg>
