<svg width="41" height="40" viewBox="0 0 41 40" fill="none" xmlns="http://www.w3.org/2000/svg">
<g clip-path="url(#clip0_160_5310)">
<path d="M16.5676 1.99414L38.8333 12.6673" stroke="#F6F7F7" stroke-width="4" stroke-linecap="square" stroke-linejoin="round"/>
<path d="M18.7301 13.7891L2.5 21.3346" stroke="#F6F7F7" stroke-width="4" stroke-linecap="square" stroke-linejoin="round"/>
<path fill-rule="evenodd" clip-rule="evenodd" d="M37.4088 37.3581V13.348L18.2395 3.34375V38.3585H36.3438C36.6263 38.3585 36.8971 38.2531 37.0969 38.0655C37.2966 37.8779 37.4088 37.6234 37.4088 37.3581ZM31.8061 20.833C32.2905 20.1635 32.549 19.3763 32.549 18.5711C32.5598 18.0337 32.4531 17.4998 32.2354 17.0014C32.0177 16.5029 31.6934 16.0502 31.2819 15.6701C30.8704 15.2901 30.3801 14.9905 29.8405 14.7895C29.3008 14.5884 28.7227 14.4899 28.1409 14.4998C27.2691 14.4998 26.4168 14.7386 25.6919 15.1859C24.967 15.6333 24.402 16.2691 24.0684 17.0131C23.7347 17.757 23.6475 18.5756 23.8175 19.3653C23.9876 20.1551 24.4074 20.8805 25.0239 21.4499C25.6404 22.0193 26.4259 22.407 27.2809 22.5641C28.136 22.7212 29.0223 22.6406 29.8278 22.3324C30.6333 22.0243 31.3217 21.5025 31.8061 20.833ZM23.2135 24.6667H25.2135H31.2135H33.2135V26.6667V38.3333H29.2135V28.6667H27.2135V38.3333H23.2135V26.6667V24.6667Z" fill="#F6F7F7"/>
<path d="M31.805 20.8338C32.2893 20.1643 32.5478 19.3772 32.5478 18.572C32.5586 18.0346 32.4519 17.5007 32.2342 17.0023C32.0165 16.5038 31.6922 16.051 31.2807 15.671C30.8692 15.2909 30.379 14.9914 29.8393 14.7903C29.2996 14.5893 28.7216 14.4907 28.1398 14.5007C27.2679 14.5007 26.4157 14.7395 25.6908 15.1868C24.9659 15.6342 24.4009 16.27 24.0672 17.0139C23.7336 17.7579 23.6463 18.5765 23.8164 19.3662C23.9865 20.156 24.4063 20.8814 25.0228 21.4508C25.6393 22.0202 26.4247 22.4079 27.2798 22.565C28.1349 22.7221 29.0212 22.6415 29.8267 22.3333C30.6321 22.0252 31.3206 21.5034 31.805 20.8338Z" fill="#FFC935"/>
<path d="M35.1666 2V11.3333L29.8333 8.66667V2H35.1666Z" fill="#F6F7F7" stroke="#F6F7F7" stroke-width="4"/>
<path d="M1.82544 38.3594H39.1728" stroke="#F6F7F7" stroke-width="4" stroke-linecap="square" stroke-linejoin="round"/>
<path fill-rule="evenodd" clip-rule="evenodd" d="M3.83495 37.5365V20.6026L19.8333 13.334V38.6654H4.83485C4.70145 38.6745 4.56787 38.6515 4.44292 38.5979C4.31798 38.5444 4.20451 38.4615 4.11001 38.3548C4.01551 38.2482 3.94213 38.12 3.89472 37.979C3.8473 37.8379 3.82694 37.6871 3.83495 37.5365ZM16.5676 25.499H8.56763V33.499H16.5676V25.499Z" fill="#F6F7F7"/>
</g>
<defs>
<clipPath id="clip0_160_5310">
<rect width="40" height="40" fill="white" transform="translate(0.5)"/>
</clipPath>
</defs>
</svg>
