<svg width="41" height="40" viewBox="0 0 41 40" fill="none" xmlns="http://www.w3.org/2000/svg">
<g clip-path="url(#clip0_160_5315)">
<path d="M28.8132 38.9637C29.9119 38.5801 30.4983 38.129 30.4983 37.6675C30.5227 37.3596 30.2808 37.0536 29.7869 36.768C29.2931 36.4823 28.5574 36.2228 27.624 36.005C26.6906 35.7873 25.5786 35.6156 24.3544 35.5004C23.1302 35.3851 21.819 35.3287 20.4992 35.3344C18.5215 35.3344 16.5883 35.4712 14.9439 35.7276C13.2995 35.9839 12.018 36.3483 11.2611 36.7747C10.5043 37.201 10.3063 37.6701 10.6921 38.1227C11.078 38.5753 12.0303 38.991 13.4287 39.3173C14.8271 39.6436 16.6088 39.8658 18.5484 39.9558C20.4881 40.0458 22.4986 39.9996 24.3257 39.8231C26.1528 39.6465 27.7145 39.3474 28.8132 38.9637Z" fill="#FFC935"/>
<path fill-rule="evenodd" clip-rule="evenodd" d="M32.8333 15.834C32.8333 26.6673 20.3333 36.6673 20.3333 36.6673C20.3333 36.6673 7.83325 26.6673 7.83325 15.834C7.83325 8.9304 13.4297 3.33398 20.3333 3.33398C27.2368 3.33398 32.8333 8.9304 32.8333 15.834ZM28.414 16.0007C28.414 20.4635 24.7961 24.0814 20.3333 24.0814C15.8704 24.0814 12.2525 20.4635 12.2525 16.0007C12.2525 11.5378 15.8704 7.91992 20.3333 7.91992C24.7961 7.91992 28.414 11.5378 28.414 16.0007Z" fill="#F6F7F7" stroke="#F6F7F7" stroke-width="4" stroke-linejoin="round"/>
</g>
<defs>
<clipPath id="clip0_160_5315">
<rect width="40" height="40" fill="white" transform="translate(0.5)"/>
</clipPath>
</defs>
</svg>
