<svg width="88" height="40" viewBox="0 0 88 40" fill="none" xmlns="http://www.w3.org/2000/svg">
<g clip-path="url(#clip0_2401_2236)">
<path fill-rule="evenodd" clip-rule="evenodd" d="M8 0L26.5979 20.1575C30.2293 16.2215 31.5948 14.5787 34.4286 11.5073V18.0613L26.5979 26.4567L11.5008 10.0787V40H8V0Z" fill="#F6F7F7"/>
<path d="M43.5714 40H41V30H48.7857V32H43.5714V40Z" fill="#FFC935"/>
<path d="M49.7891 30H55.7891C56.7891 30 57.5129 30.2286 57.9605 30.6857C58.4176 31.1333 58.6462 31.8571 58.6462 32.8571V34.2857C58.6462 35.2857 58.4176 36.0143 57.9605 36.4714C57.5129 36.919 56.7891 37.1429 55.7891 37.1429H52.3605V40H49.7891V30ZM56.0748 32.8571C56.0748 32.2857 55.7891 32 55.2176 32H52.3605V35.1429H55.2176C55.7891 35.1429 56.0748 34.8571 56.0748 34.2857V32.8571Z" fill="#FFC935"/>
<path d="M62.0523 40.1429C61.5762 40.1429 61.0857 40.0952 60.5809 40V38.0714H61.8666C62.1428 38.0714 62.3333 37.9619 62.4381 37.7429C62.4857 37.6476 62.5095 37.5476 62.5095 37.4429C62.5095 37.3286 62.4857 37.2286 62.4381 37.1429L58.5095 30H61.3666L63.9381 35.0714L66.0809 30H68.9381L65.2952 37.8571C64.9619 38.6095 64.5619 39.1714 64.0952 39.5429C63.5809 39.9429 62.9 40.1429 62.0523 40.1429Z" fill="#FFC935"/>
<path d="M78.2299 40H75.6585V32H72.0871V40H69.5156V30H78.2299V40Z" fill="#FFC935"/>
<path fill-rule="evenodd" clip-rule="evenodd" d="M63.2487 10.1533L38.0017 2.75468V0H37.2049H34.8913H34.0944L34.0945 3.01796L25.5 11.7131L27.3683 11.7132H34.0946V32.4999L34.0939 32.501L34.0945 38.4063L34.0939 40H38.0016V32.4129V11.7131H63.0187L63.2487 10.1533ZM29.2835 10.1195H34.0944V5.27874L29.2835 10.1195ZM35.6881 38.4063H36.4081V11.7131H35.6881V38.4063ZM35.6881 10.1195H36.4081V4.14343H35.6881V10.1195ZM35.6881 2.54976H36.4081V1.59359H35.6881V2.54976ZM42.1685 5.46038L38.0017 4.41921V8.91287L42.1685 5.46038ZM43.4968 6.38593L39.0489 10.1195H47.2304L43.4968 6.38593ZM45.9724 6.60764L49.0346 9.66998L50.6777 8.02678L45.9724 6.60764ZM52.4095 8.54889L50.8388 10.1195H57.6171L52.4095 8.54889Z" fill="#FFD74A"/>
<path fill-rule="evenodd" clip-rule="evenodd" d="M34.0945 38.4063L34.0939 40V32.501L34.0945 38.4063ZM38.0016 32.4129V40L38.0017 38.4063L38.0016 32.4129Z" fill="#FFD74A"/>
<path d="M36.4081 38.4063H35.6881V11.7131H36.4081V38.4063Z" fill="#FFD74A"/>
<path d="M36.4081 10.1195H35.6881V4.14343H36.4081V10.1195Z" fill="#FFD74A"/>
<path d="M36.4081 2.54976H35.6881V1.59359H36.4081V2.54976Z" fill="#FFD74A"/>
<path d="M60.4265 20.7648V20.0678H61.6384C61.6384 20.0678 61.6384 19.7169 61.6384 19.2841V16.4626C61.6384 16.0298 61.6384 15.6789 61.6384 15.6789H60.5833V12.8574C60.5833 12.8574 60.2324 12.8574 59.7995 12.8574C59.3667 12.8574 59.0675 12.8574 59.0675 12.8574L59.0158 15.6789H58.5093C58.0764 15.6789 57.7255 15.6789 57.7255 15.6789V19.2841C57.7255 19.7169 57.7255 20.0678 57.7255 20.0678H58.8591V21.4002C58.8591 21.833 59.2099 22.1839 59.6428 22.1839C59.9601 22.1839 60.2181 22.442 60.2181 22.7592C60.2181 23.0765 59.96 23.3346 59.6428 23.3346C59.4278 23.3346 59.0675 22.9427 59.0675 22.9427H57.5C57.5 24.078 58.4012 24.902 59.6429 24.902C60.8244 24.902 61.7857 23.9408 61.7857 22.7592C61.7856 21.8542 61.2215 21.0784 60.4265 20.7648ZM60.0709 18.5003H59.2928V17.2463H60.0709V18.5003Z" fill="#FFC935"/>
</g>
<defs>
<clipPath id="clip0_2401_2236">
<rect width="88" height="40" fill="white"/>
</clipPath>
</defs>
</svg>
