<svg width="60" height="60" viewBox="0 0 60 60" fill="none" xmlns="http://www.w3.org/2000/svg">
<path d="M43.2806 23.5543V18.263L45.0337 18.4693V14.5037L23.8669 11.2637L0 15.8068V20.4437L2.2125 20.1362V33.0212H8.63063V45.0474L39.0994 48.7393L44.49 48.0868V32.6518L54.0656 32.6818V46.9243L58.515 46.3862V27.5649L60 27.638V24.818L43.2806 23.5543ZM41.1263 20.0949V24.7355L34.7494 24.8537V19.4462L41.1263 20.0949ZM5.5275 20.8524L20.0006 19.0168V29.348L5.5275 29.828V20.8524ZM11.4731 42.3099V33.0193H17.4394V42.8518L11.4731 42.3099ZM18.9562 42.9549V33.0155H23.865V32.9968H25.8581V43.5812L18.9562 42.9549ZM27.3131 43.7743V33.0005L35.3512 33.0024V44.5093L27.3131 43.7743Z" fill="#F6F7F7"/>
<path d="M20.0005 19.0176L5.52734 20.8532V29.8288L20.0005 29.3488V19.0176Z" fill="#FFC935"/>
</svg>
