<svg width="32" height="32" viewBox="0 0 32 32" fill="none" xmlns="http://www.w3.org/2000/svg">
<g clip-path="url(#clip0_2401_2727)">
<path d="M23.9998 10.666C23.9998 6.25268 20.4132 2.66602 15.9998 2.66602C11.5865 2.66602 7.99984 6.25268 7.99984 10.666C7.99984 16.666 15.9998 25.3327 15.9998 25.3327C15.9998 25.3327 23.9998 16.666 23.9998 10.666ZM13.3332 10.666C13.3332 9.19935 14.5332 7.99935 15.9998 7.99935C17.4665 7.99935 18.6665 9.19935 18.6665 10.666C18.6665 12.1327 17.4798 13.3327 15.9998 13.3327C14.5332 13.3327 13.3332 12.1327 13.3332 10.666ZM7.99984 26.666C7.26346 26.666 6.6665 27.263 6.6665 27.9993V27.9993C6.6665 28.7357 7.26346 29.3327 7.99984 29.3327H23.9998C24.7362 29.3327 25.3332 28.7357 25.3332 27.9993V27.9993C25.3332 27.263 24.7362 26.666 23.9998 26.666H7.99984Z" fill="#F6F7F7"/>
</g>
<defs>
<clipPath id="clip0_2401_2727">
<rect width="32" height="32" fill="white"/>
</clipPath>
</defs>
</svg>
