<svg width="60" height="60" viewBox="0 0 60 60" fill="none" xmlns="http://www.w3.org/2000/svg">
<g clip-path="url(#clip0_2401_2360)">
<path fill-rule="evenodd" clip-rule="evenodd" d="M-3 47.5546V11.0547H62.9972V47.5546H41.0011L56.7606 41.3184L56.7613 41.3181L56.7659 41.3163L56.8083 41.2992C56.8459 41.284 56.9158 41.2555 57.0492 41.2006C57.3165 41.0908 57.845 40.8727 58.8919 40.4394C60.2008 39.8976 61.1349 38.9395 61.3454 37.6435C61.5428 36.4279 61.0358 35.3007 60.3505 34.4841C58.9885 32.8611 56.3441 31.7616 53.6949 32.7958L53.6337 32.8196V17.8115C53.6337 17.2592 53.186 16.8115 52.6337 16.8115H7.05628C6.50399 16.8115 6.05628 17.2592 6.05628 17.8115V40.0756C6.05628 40.6279 6.50399 41.0756 7.05628 41.0756H32.9313L24.4092 44.4823L24.0994 44.6062L23.8713 44.8497C23.2227 45.542 22.2877 46.6054 21.4645 47.5546H-3ZM32.8479 47.5546H28.2922L27.4287 46.5061L41.0132 41.0756H49.221L32.8479 47.5546ZM53.6337 39.3294L53.7235 39.2938L53.6337 39.1867V39.3294ZM50.6337 33.9989V33.824H44.6134V36.4055L50.6337 33.9989ZM46.1816 39.0095L50.6337 37.2297V39.0095H46.1816ZM41.6134 37.6048V26.336L31.4875 26.2353V18.8776H24.7107V26.2501H16.2143V31.919H24.7107V39.0095H38.0997L41.6134 37.6048ZM9.05627 18.8776V24.184H21.7107V18.8776H9.05627ZM34.4875 18.8776V24.1988L41.6134 24.2696V18.8776H34.4875ZM50.6337 18.8776H44.6134V31.7579H50.6337V18.8776ZM21.7107 39.0095V33.9851H9.05627V39.0095H21.7107ZM9.05627 31.919H13.2143V26.2501H9.05627V31.919ZM54.7857 35.5904L54.5951 35.6648L56.6535 38.1187C56.9329 38.0033 57.2895 37.8558 57.7445 37.6675C58.3569 37.414 58.3826 37.1773 58.3841 37.1632L58.3842 37.1626C58.398 37.0774 58.3796 36.8024 58.0525 36.4126C57.3897 35.6227 56.0611 35.0926 54.7857 35.5904Z" fill="#F6F7F7"/>
<path d="M20.7828 50.7535C20.7828 50.7535 23.6195 47.4093 25.0168 45.9177L52.1533 35.0697C52.1533 35.0697 52.1532 35.0701 54.2911 34.2356C58.2157 32.7037 62.2371 37.4948 58.369 39.096C56.2758 39.9624 56.2602 39.9659 56.2602 39.9659L28.9991 50.7535H20.7828Z" fill="#FFC935"/>
</g>
<defs>
<clipPath id="clip0_2401_2360">
<rect width="60" height="60" fill="white"/>
</clipPath>
</defs>
</svg>
