<svg width="73" height="40" viewBox="0 0 73 40" fill="none" xmlns="http://www.w3.org/2000/svg">
<mask id="path-1-outside-1_160_5299" maskUnits="userSpaceOnUse" x="1.6875" y="10.7598" width="69" height="21" fill="black">
<rect fill="white" x="1.6875" y="10.7598" width="69" height="21"/>
<path d="M11.7275 27.6531C11.7275 29.2175 10.9631 29.9998 9.43417 29.9998H2.98083V25.9731H4.79417V28.1864H9.59417V25.9731L5.22083 23.2264C4.77639 22.942 4.39417 22.7109 4.07417 22.5331C3.75417 22.3553 3.4875 22.1775 3.27417 21.9998C2.88306 21.6442 2.6875 21.1642 2.6875 20.5598V19.0398C2.6875 18.2931 2.81194 17.7775 3.06083 17.4931C3.54083 16.942 4.25194 16.6664 5.19417 16.6664H11.4075V20.6664H9.59417V18.4798H4.79417V20.7198L9.3275 23.5464C9.70083 23.7775 10.0297 23.982 10.3142 24.1598C10.6164 24.3198 10.8653 24.4887 11.0608 24.6664C11.5053 25.0398 11.7275 25.4842 11.7275 25.9998V27.6531Z"/>
<path d="M20.9396 28.1864H22.6729V29.9998H17.0729V28.1864H18.7529V18.4798H17.0729V16.6664H20.9396V28.1864ZM19.8463 11.7598C20.2196 11.7598 20.5307 11.902 20.7796 12.1864C21.0463 12.4531 21.1796 12.782 21.1796 13.1731C21.1796 13.5464 21.0463 13.8664 20.7796 14.1331C20.5307 14.382 20.2107 14.5064 19.8196 14.5064C19.4463 14.5064 19.1263 14.382 18.8596 14.1331C18.6107 13.8664 18.4863 13.5464 18.4863 13.1731C18.4863 12.782 18.6196 12.4531 18.8863 12.1864C19.1529 11.902 19.4729 11.7598 19.8463 11.7598Z"/>
<path d="M36.6944 16.3998C38.081 16.3998 38.7744 17.0842 38.7744 18.4531V28.1864H40.481V29.9998H35.3344V28.1864H36.6144V18.2664L31.3077 21.5998V28.1864H32.6144V29.9998H27.4677V28.1864H29.1477V18.4531H27.4677V16.6664H31.3077V19.4398L35.7344 16.6664C36.0188 16.4887 36.3388 16.3998 36.6944 16.3998Z"/>
<path d="M54.5173 29.9998H47.8773C46.5973 29.9998 45.8595 29.5198 45.664 28.5598C45.5929 28.2753 45.5573 27.9731 45.5573 27.6531V19.0131C45.5573 18.2664 45.7617 17.6887 46.1706 17.2798C46.5973 16.8531 47.2373 16.6398 48.0906 16.6398H54.5173V20.0264H52.704V18.4798H47.6906V28.1864H52.704V26.6398H54.5173V29.9998Z"/>
<path d="M59.5781 19.2798C59.5781 17.5198 60.4937 16.6398 62.3248 16.6398H66.8315C67.7026 16.6398 68.3337 16.8087 68.7248 17.1464C69.1159 17.4842 69.3115 18.1064 69.3115 19.0131V21.4931L61.7115 26.2931V28.1864H67.2048V26.6398H69.3115V28.0531C69.3115 28.5864 69.1426 29.0487 68.8048 29.4398C68.4848 29.8131 67.9426 29.9998 67.1781 29.9998H61.7115C60.947 29.9998 60.3959 29.8131 60.0581 29.4398C59.7381 29.0487 59.5781 28.5864 59.5781 28.0531V19.2798ZM61.7115 24.1331L67.1781 20.6931V18.4798H61.7115V24.1331Z"/>
</mask>
<path d="M11.7275 27.6531C11.7275 29.2175 10.9631 29.9998 9.43417 29.9998H2.98083V25.9731H4.79417V28.1864H9.59417V25.9731L5.22083 23.2264C4.77639 22.942 4.39417 22.7109 4.07417 22.5331C3.75417 22.3553 3.4875 22.1775 3.27417 21.9998C2.88306 21.6442 2.6875 21.1642 2.6875 20.5598V19.0398C2.6875 18.2931 2.81194 17.7775 3.06083 17.4931C3.54083 16.942 4.25194 16.6664 5.19417 16.6664H11.4075V20.6664H9.59417V18.4798H4.79417V20.7198L9.3275 23.5464C9.70083 23.7775 10.0297 23.982 10.3142 24.1598C10.6164 24.3198 10.8653 24.4887 11.0608 24.6664C11.5053 25.0398 11.7275 25.4842 11.7275 25.9998V27.6531Z" fill="#F6F7F7"/>
<path d="M20.9396 28.1864H22.6729V29.9998H17.0729V28.1864H18.7529V18.4798H17.0729V16.6664H20.9396V28.1864ZM19.8463 11.7598C20.2196 11.7598 20.5307 11.902 20.7796 12.1864C21.0463 12.4531 21.1796 12.782 21.1796 13.1731C21.1796 13.5464 21.0463 13.8664 20.7796 14.1331C20.5307 14.382 20.2107 14.5064 19.8196 14.5064C19.4463 14.5064 19.1263 14.382 18.8596 14.1331C18.6107 13.8664 18.4863 13.5464 18.4863 13.1731C18.4863 12.782 18.6196 12.4531 18.8863 12.1864C19.1529 11.902 19.4729 11.7598 19.8463 11.7598Z" fill="#F6F7F7"/>
<path d="M36.6944 16.3998C38.081 16.3998 38.7744 17.0842 38.7744 18.4531V28.1864H40.481V29.9998H35.3344V28.1864H36.6144V18.2664L31.3077 21.5998V28.1864H32.6144V29.9998H27.4677V28.1864H29.1477V18.4531H27.4677V16.6664H31.3077V19.4398L35.7344 16.6664C36.0188 16.4887 36.3388 16.3998 36.6944 16.3998Z" fill="#F6F7F7"/>
<path d="M54.5173 29.9998H47.8773C46.5973 29.9998 45.8595 29.5198 45.664 28.5598C45.5929 28.2753 45.5573 27.9731 45.5573 27.6531V19.0131C45.5573 18.2664 45.7617 17.6887 46.1706 17.2798C46.5973 16.8531 47.2373 16.6398 48.0906 16.6398H54.5173V20.0264H52.704V18.4798H47.6906V28.1864H52.704V26.6398H54.5173V29.9998Z" fill="#F6F7F7"/>
<path d="M59.5781 19.2798C59.5781 17.5198 60.4937 16.6398 62.3248 16.6398H66.8315C67.7026 16.6398 68.3337 16.8087 68.7248 17.1464C69.1159 17.4842 69.3115 18.1064 69.3115 19.0131V21.4931L61.7115 26.2931V28.1864H67.2048V26.6398H69.3115V28.0531C69.3115 28.5864 69.1426 29.0487 68.8048 29.4398C68.4848 29.8131 67.9426 29.9998 67.1781 29.9998H61.7115C60.947 29.9998 60.3959 29.8131 60.0581 29.4398C59.7381 29.0487 59.5781 28.5864 59.5781 28.0531V19.2798ZM61.7115 24.1331L67.1781 20.6931V18.4798H61.7115V24.1331Z" fill="#F6F7F7"/>
<path d="M11.7275 27.6531C11.7275 29.2175 10.9631 29.9998 9.43417 29.9998H2.98083V25.9731H4.79417V28.1864H9.59417V25.9731L5.22083 23.2264C4.77639 22.942 4.39417 22.7109 4.07417 22.5331C3.75417 22.3553 3.4875 22.1775 3.27417 21.9998C2.88306 21.6442 2.6875 21.1642 2.6875 20.5598V19.0398C2.6875 18.2931 2.81194 17.7775 3.06083 17.4931C3.54083 16.942 4.25194 16.6664 5.19417 16.6664H11.4075V20.6664H9.59417V18.4798H4.79417V20.7198L9.3275 23.5464C9.70083 23.7775 10.0297 23.982 10.3142 24.1598C10.6164 24.3198 10.8653 24.4887 11.0608 24.6664C11.5053 25.0398 11.7275 25.4842 11.7275 25.9998V27.6531Z" stroke="#F6F7F7" stroke-width="2" mask="url(#path-1-outside-1_160_5299)"/>
<path d="M20.9396 28.1864H22.6729V29.9998H17.0729V28.1864H18.7529V18.4798H17.0729V16.6664H20.9396V28.1864ZM19.8463 11.7598C20.2196 11.7598 20.5307 11.902 20.7796 12.1864C21.0463 12.4531 21.1796 12.782 21.1796 13.1731C21.1796 13.5464 21.0463 13.8664 20.7796 14.1331C20.5307 14.382 20.2107 14.5064 19.8196 14.5064C19.4463 14.5064 19.1263 14.382 18.8596 14.1331C18.6107 13.8664 18.4863 13.5464 18.4863 13.1731C18.4863 12.782 18.6196 12.4531 18.8863 12.1864C19.1529 11.902 19.4729 11.7598 19.8463 11.7598Z" stroke="#F6F7F7" stroke-width="2" mask="url(#path-1-outside-1_160_5299)"/>
<path d="M36.6944 16.3998C38.081 16.3998 38.7744 17.0842 38.7744 18.4531V28.1864H40.481V29.9998H35.3344V28.1864H36.6144V18.2664L31.3077 21.5998V28.1864H32.6144V29.9998H27.4677V28.1864H29.1477V18.4531H27.4677V16.6664H31.3077V19.4398L35.7344 16.6664C36.0188 16.4887 36.3388 16.3998 36.6944 16.3998Z" stroke="#F6F7F7" stroke-width="2" mask="url(#path-1-outside-1_160_5299)"/>
<path d="M54.5173 29.9998H47.8773C46.5973 29.9998 45.8595 29.5198 45.664 28.5598C45.5929 28.2753 45.5573 27.9731 45.5573 27.6531V19.0131C45.5573 18.2664 45.7617 17.6887 46.1706 17.2798C46.5973 16.8531 47.2373 16.6398 48.0906 16.6398H54.5173V20.0264H52.704V18.4798H47.6906V28.1864H52.704V26.6398H54.5173V29.9998Z" stroke="#F6F7F7" stroke-width="2" mask="url(#path-1-outside-1_160_5299)"/>
<path d="M59.5781 19.2798C59.5781 17.5198 60.4937 16.6398 62.3248 16.6398H66.8315C67.7026 16.6398 68.3337 16.8087 68.7248 17.1464C69.1159 17.4842 69.3115 18.1064 69.3115 19.0131V21.4931L61.7115 26.2931V28.1864H67.2048V26.6398H69.3115V28.0531C69.3115 28.5864 69.1426 29.0487 68.8048 29.4398C68.4848 29.8131 67.9426 29.9998 67.1781 29.9998H61.7115C60.947 29.9998 60.3959 29.8131 60.0581 29.4398C59.7381 29.0487 59.5781 28.5864 59.5781 28.0531V19.2798ZM61.7115 24.1331L67.1781 20.6931V18.4798H61.7115V24.1331Z" stroke="#F6F7F7" stroke-width="2" mask="url(#path-1-outside-1_160_5299)"/>
</svg>
