<svg width="41" height="40" viewBox="0 0 41 40" fill="none" xmlns="http://www.w3.org/2000/svg">
<g clip-path="url(#clip0_160_5305)">
<path d="M20.5 40C15.1957 40 10.1086 37.8929 6.35786 34.1421C2.60714 30.3914 0.5 25.3043 0.5 20C0.5 14.6957 2.60714 9.60859 6.35786 5.85786C10.1086 2.10714 15.1957 0 20.5 0C25.8043 0 30.8914 2.10714 34.6421 5.85786C38.3929 9.60859 40.5 14.6957 40.5 20C40.5 25.3043 38.3929 30.3914 34.6421 34.1421C30.8914 37.8929 25.8043 40 20.5 40ZM13.5 18C14.2956 18 15.0587 17.6839 15.6213 17.1213C16.1839 16.5587 16.5 15.7956 16.5 15C16.5 14.2044 16.1839 13.4413 15.6213 12.8787C15.0587 12.3161 14.2956 12 13.5 12C12.7044 12 11.9413 12.3161 11.3787 12.8787C10.8161 13.4413 10.5 14.2044 10.5 15C10.5 15.7956 10.8161 16.5587 11.3787 17.1213C11.9413 17.6839 12.7044 18 13.5 18ZM27.5 18C28.2957 18 29.0587 17.6839 29.6213 17.1213C30.1839 16.5587 30.5 15.7956 30.5 15C30.5 14.2044 30.1839 13.4413 29.6213 12.8787C29.0587 12.3161 28.2957 12 27.5 12C26.7044 12 25.9413 12.3161 25.3787 12.8787C24.8161 13.4413 24.5 14.2044 24.5 15C24.5 15.7956 24.8161 16.5587 25.3787 17.1213C25.9413 17.6839 26.7044 18 27.5 18ZM31.82 24H9.18C10.0046 26.344 11.5364 28.3742 13.5641 29.8103C15.5917 31.2465 18.0152 32.0178 20.5 32.0178C22.9848 32.0178 25.4083 31.2465 27.4359 29.8103C29.4636 28.3742 30.9954 26.344 31.82 24Z" fill="#F6F7F7"/>
<path d="M9.17969 24H31.8197C30.9951 26.344 29.4633 28.3742 27.4356 29.8103C25.4079 31.2465 22.9845 32.0178 20.4997 32.0178C18.0149 32.0178 15.5914 31.2465 13.5638 29.8103C11.5361 28.3742 10.0042 26.344 9.17969 24Z" fill="#FFC935"/>
</g>
<defs>
<clipPath id="clip0_160_5305">
<rect width="40" height="40" fill="white" transform="translate(0.5)"/>
</clipPath>
</defs>
</svg>
