<svg width="32" height="32" viewBox="0 0 32 32" fill="none" xmlns="http://www.w3.org/2000/svg">
<path d="M15.9998 2.66602C2.6665 2.66602 2.6665 2.66602 2.6665 15.9993C2.6665 29.3327 2.6665 29.3327 15.9998 29.3327C29.3332 29.3327 29.3332 29.3327 29.3332 15.9993C29.3332 2.66602 29.3332 2.66602 15.9998 2.66602ZM22.5487 11.8005L20.3598 22.1116C20.1987 22.8427 19.7632 23.0205 19.1554 22.676L15.8221 20.2205L14.2154 21.7694C14.0598 21.9694 13.8187 22.0971 13.5487 22.0971C13.5465 22.0971 13.5454 22.0971 13.5432 22.0971L13.7798 18.7038L19.9576 13.1238C20.2243 12.8871 19.8976 12.7527 19.5432 12.9893L11.9109 17.796L8.62206 16.7693C7.91095 16.5438 7.89095 16.0582 8.77206 15.7093L21.6232 10.756C22.221 10.5382 22.7409 10.8982 22.5476 11.8016L22.5487 11.8005Z" fill="#F6F7F7"/>
</svg>
