<svg width="32" height="32" viewBox="0 0 32 32" fill="none" xmlns="http://www.w3.org/2000/svg">
<path fill-rule="evenodd" clip-rule="evenodd" d="M4.33341 4.33268C2.66675 5.99935 2.66675 9.33268 2.66675 15.9993C2.66675 22.666 2.66675 25.9993 4.33341 27.666C6.00008 29.3327 9.33342 29.3327 16.0001 29.3327C22.6667 29.3327 26.0001 29.3327 27.6667 27.666C29.3334 25.9993 29.3334 22.666 29.3334 15.9993C29.3334 9.33268 29.3334 5.99935 27.6667 4.33268C26.0001 2.66602 22.6667 2.66602 16.0001 2.66602C9.33342 2.66602 6.00008 2.66602 4.33341 4.33268ZM18.0739 7.11461C17.4955 7.1155 16.9161 7.11639 16.334 7.12528C16.3201 8.98629 16.3207 10.8473 16.3212 12.7101C16.3216 13.8279 16.3219 14.9464 16.3192 16.0659C16.3172 16.4149 16.3178 16.7633 16.3184 17.1116C16.3202 18.0864 16.3219 19.0593 16.2673 20.0362C16.2603 20.3082 16.122 20.5474 15.9884 20.7784C15.9801 20.7928 15.9718 20.8071 15.9636 20.8214C15.534 21.5251 14.7414 22.0066 13.9118 22.014C12.6674 22.1251 11.497 21.1029 11.3192 19.8881C11.3181 19.826 11.316 19.7635 11.314 19.7008C11.3028 19.3601 11.2915 19.0146 11.4229 18.6955C11.6081 18.1696 11.9637 17.7029 12.4303 17.3992C13.0748 16.9548 13.934 16.8881 14.6673 17.1251C14.6673 16.6553 14.6755 16.1855 14.6837 15.7156C14.6945 15.0892 14.7054 14.4628 14.697 13.8363C13.0896 13.5326 11.3711 14.0437 10.1415 15.1104C9.06 16.0289 8.36371 17.377 8.23038 18.7844C8.21556 19.1473 8.22297 19.5177 8.23779 19.8881C8.39334 21.6214 9.44518 23.2362 10.9415 24.1177C11.8451 24.651 12.9044 24.9399 13.9636 24.8806C15.6895 24.851 17.371 23.9251 18.3414 22.5029C18.9414 21.651 19.2821 20.6214 19.3414 19.5844C19.3552 18.2372 19.3547 16.8871 19.3541 15.5359C19.3537 14.7252 19.3534 13.9141 19.3562 13.103C19.7413 13.3548 20.1339 13.5993 20.5561 13.7919C21.5265 14.2511 22.6006 14.4733 23.6672 14.5104V11.5252C22.5265 11.3993 21.3561 11.0215 20.5265 10.1993C19.6969 9.39932 19.2895 8.24378 19.2302 7.11046C18.8449 7.11342 18.4597 7.11402 18.0739 7.11461Z" fill="#F6F7F7"/>
</svg>
