<svg width="32" height="32" viewBox="0 0 32 32" fill="none" xmlns="http://www.w3.org/2000/svg">
<path d="M19.9914 8.83098C17.343 8.32717 14.6572 8.32717 12.0083 8.83098C10.8497 9.08903 9.39215 10.4858 9.10718 11.6092C8.63322 13.783 8.63322 15.9867 9.10718 18.1605C9.39215 19.2839 10.8497 20.6807 12.0083 20.9387C12.0086 20.9388 12.0089 20.9388 12.0092 20.9389C12.0608 20.949 12.0984 20.9937 12.0984 21.0463V24.2308C12.0984 24.3899 12.2927 24.4683 12.4033 24.3531L13.9159 22.8007C13.9159 22.8007 15.1212 21.5633 15.3379 21.3409C15.3591 21.3191 15.3884 21.3073 15.4187 21.3082C16.9458 21.3505 18.4746 21.2271 19.9914 20.9388C21.15 20.6807 22.6081 19.284 22.8925 18.1605C23.3671 15.9867 23.3671 13.7831 22.8925 11.6093C22.6081 10.4858 21.1505 9.08903 19.9914 8.83098ZM20.0318 18.3226C19.8 18.8146 19.4629 19.2239 18.9765 19.4852C18.8393 19.5589 18.6753 19.5827 18.5204 19.6304C18.3423 19.5763 18.1725 19.54 18.0149 19.4746C16.3814 18.7969 14.8781 17.9225 13.6873 16.5823C13.0101 15.8201 12.48 14.9597 12.032 14.0491C11.8195 13.6173 11.6405 13.1685 11.458 12.7227C11.2915 12.3161 11.5367 11.8961 11.7948 11.5898C12.037 11.3023 12.3486 11.0823 12.6861 10.9202C12.9496 10.7936 13.2094 10.8666 13.4018 11.0899C13.8177 11.5726 14.1998 12.08 14.5091 12.6396C14.6994 12.9838 14.6472 13.4045 14.3024 13.6387C14.2186 13.6957 14.1423 13.7625 14.0642 13.8268C13.9957 13.8831 13.9313 13.9401 13.8844 14.0164C13.7986 14.1559 13.7945 14.3207 13.8497 14.4724C14.2749 15.6408 14.9915 16.5494 16.1675 17.0387C16.3558 17.117 16.5447 17.2082 16.7615 17.1829C17.1246 17.1405 17.2422 16.7423 17.4966 16.5342C17.7453 16.3308 18.0631 16.3282 18.3309 16.4977C18.5989 16.6672 18.8586 16.8493 19.1168 17.0332C19.3702 17.2138 19.6225 17.3905 19.8563 17.5963C20.0809 17.7942 20.1583 18.0539 20.0318 18.3226ZM17.9227 14.5152C17.8213 14.517 17.8611 14.515 17.8997 14.5139C17.7363 14.5081 17.6474 14.4119 17.6298 14.2555C17.617 14.1412 17.6069 14.0254 17.5796 13.9143C17.5259 13.6953 17.4095 13.4924 17.2254 13.3582C17.1384 13.2948 17.0399 13.2486 16.9367 13.2189C16.8055 13.181 16.6694 13.1914 16.5385 13.1594C16.3965 13.1246 16.3179 13.0095 16.3402 12.8762C16.3605 12.7549 16.4785 12.6603 16.611 12.6699C17.4394 12.7297 18.0315 13.1579 18.1159 14.1332C18.1219 14.202 18.1289 14.2747 18.1137 14.3405C18.0889 14.4475 18.0124 14.5032 17.9351 14.5133C17.9414 14.5135 17.9402 14.514 17.9227 14.5152ZM17.4076 12.2847C17.1534 12.1602 16.8785 12.0828 16.5998 12.0367C16.4781 12.0166 16.355 12.0044 16.2327 11.9873C16.0844 11.9667 16.0053 11.8722 16.0122 11.7261C16.0188 11.5892 16.1189 11.4907 16.2681 11.4992C16.7584 11.527 17.232 11.633 17.668 11.8638C18.5545 12.3333 19.0608 13.0743 19.2086 14.0638C19.2154 14.1086 19.2261 14.153 19.2295 14.198C19.2379 14.3091 19.2431 14.4203 19.2516 14.5668C19.2481 14.5934 19.2463 14.6562 19.2307 14.7153C19.174 14.9298 18.8488 14.9566 18.7739 14.7401C18.7517 14.6759 18.7484 14.6028 18.7482 14.5336C18.7475 14.0811 18.6491 13.629 18.4209 13.2353C18.1863 12.8307 17.8279 12.4905 17.4076 12.2847ZM20.1467 15.3427C19.9755 15.3447 19.8984 15.2014 19.8873 15.0478C19.8653 14.7438 19.8501 14.4384 19.8081 14.1369C19.5869 12.5452 18.3178 11.2284 16.7336 10.9459C16.4952 10.9033 16.2511 10.8921 16.0097 10.8668C15.857 10.8508 15.6571 10.8415 15.6232 10.6518C15.5949 10.4927 15.7292 10.366 15.8807 10.3578C15.9218 10.3556 15.9633 10.3575 16.0046 10.3577C18.0564 10.4152 16.1299 10.3621 16.0101 10.358C18.1443 10.4202 19.8965 11.8374 20.2722 13.9479C20.3363 14.3078 20.3591 14.6758 20.3876 15.0411C20.3996 15.1947 20.3126 15.3407 20.1467 15.3427Z" fill="#F6F7F7"/>
<path d="M2.66675 15.9994C2.66675 29.3327 2.66675 29.3327 16.0001 29.3327C29.3334 29.3327 29.3334 29.3327 29.3334 15.9994C29.3334 2.66602 29.3334 2.66602 16.0001 2.66602C2.66675 2.66602 2.66675 2.66602 2.66675 15.9994ZM24.4337 18.5105L24.4285 18.5316C24.0025 20.2536 22.0821 22.1015 20.3185 22.486L20.2986 22.4901C18.8726 22.7621 17.436 22.8979 16.0001 22.8979C15.5775 22.8979 15.1548 22.8847 14.7324 22.8611L12.7848 24.8856C12.3026 25.3877 11.4547 25.0459 11.4547 24.3502V22.4279C9.75696 21.9431 7.97953 20.1802 7.57116 18.5315L7.56648 18.5105C7.03985 16.1055 7.03985 13.6667 7.56648 11.2617L7.57116 11.2407C7.99773 9.5186 9.91816 7.67073 11.6812 7.28629L11.7017 7.28219C14.5536 6.73801 17.446 6.73801 20.2986 7.28219L20.3185 7.28629C22.0821 7.67073 24.0025 9.5186 24.4285 11.2407L24.4337 11.2617C24.9604 13.6667 24.9604 16.1056 24.4337 18.5105Z" fill="#F6F7F7"/>
</svg>
