<svg width="24" height="24" viewBox="0 0 24 24" fill="none" xmlns="http://www.w3.org/2000/svg">
<path d="M5 15.9997L4 19.9997L8 18.9997L18 8.9997L15 5.9997L5 15.9997Z" fill="#F6F7F7"/>
<path d="M18 8.9997L19.586 7.4137C19.9609 7.03864 20.1716 6.53003 20.1716 5.9997C20.1716 5.46937 19.9609 4.96075 19.586 4.5857L19.414 4.4137C19.0389 4.03876 18.5303 3.82812 18 3.82812C17.4697 3.82813 16.9611 4.03876 16.586 4.4137L15 5.9997L18 8.9997Z" fill="#F6F7F7"/>
<path d="M5 15.9997L4 19.9997L8 18.9997M5 15.9997L16.586 4.4137M5 15.9997L15 5.9997M8 18.9997L19.586 7.4137M8 18.9997L18 8.9997M19.586 7.4137C19.9609 7.03864 20.1716 6.53003 20.1716 5.9997C20.1716 5.46937 19.9609 4.96075 19.586 4.5857L19.414 4.4137C19.0389 4.03876 18.5303 3.82812 18 3.82812C17.4697 3.82813 16.9611 4.03876 16.586 4.4137M19.586 7.4137L18 8.9997M16.586 4.4137L15 5.9997M15 5.9997L18 8.9997M13 19.9997H21" stroke="#F6F7F7" stroke-width="2" stroke-linecap="round" stroke-linejoin="round"/>
</svg>
