<svg width="24" height="24" viewBox="0 0 24 24" fill="none" xmlns="http://www.w3.org/2000/svg">
<path fill-rule="evenodd" clip-rule="evenodd" d="M9 4.46004C10.1315 4.10719 10.9822 3.9973 12 4.00004C16.182 4.00004 19.028 6.50004 20.725 8.70404L20.7281 8.70807C21.576 9.81138 22 10.363 22 12C22 13.6385 21.5758 14.19 20.7273 15.293L20.725 15.296C19.028 17.5 16.182 20 12 20C7.818 20 4.972 17.5 3.275 15.296C2.425 14.192 2 13.639 2 12C2 10.3615 2.42422 9.81004 3.27267 8.70706L3.275 8.70404C3.79336 8.02674 4.37061 7.39662 5 6.82104C6.4646 5.60125 7.26833 5.00003 9 4.46004ZM15.5355 15.5355C16.4732 14.5979 17 13.3261 17 12C17 10.6739 16.4732 9.40215 15.5355 8.46447C14.5979 7.52678 13.3261 7 12 7C10.6739 7 9.40215 7.52678 8.46447 8.46447C7.52678 9.40215 7 10.6739 7 12C7 13.3261 7.52678 14.5979 8.46447 15.5355C9.40215 16.4732 10.6739 17 12 17C13.3261 17 14.5979 16.4732 15.5355 15.5355Z" fill="#F6F7F7"/>
<path d="M20.725 8.70404C19.028 6.50004 16.182 4.00004 12 4.00004C10.9822 3.9973 10.1315 4.10719 9 4.46004C7.26833 5.00003 6.4646 5.60125 5 6.82104C4.37061 7.39662 3.79336 8.02674 3.275 8.70404M20.725 8.70404L20.7281 8.70807M20.725 8.70404C20.726 8.70538 20.7271 8.70673 20.7281 8.70807M20.725 15.296C19.028 17.5 16.182 20 12 20C7.818 20 4.972 17.5 3.275 15.296C2.425 14.192 2 13.639 2 12C2 10.3615 2.42422 9.81004 3.27267 8.70706M20.725 15.296L20.7273 15.293M20.725 15.296C20.7258 15.295 20.7266 15.294 20.7273 15.293M3.275 8.70404L3.27267 8.70706M3.275 8.70404C3.27422 8.70505 3.27345 8.70606 3.27267 8.70706M20.7281 8.70807C21.576 9.81138 22 10.363 22 12C22 13.6385 21.5758 14.19 20.7273 15.293M17 12C17 13.3261 16.4732 14.5979 15.5355 15.5355C14.5979 16.4732 13.3261 17 12 17C10.6739 17 9.40215 16.4732 8.46447 15.5355C7.52678 14.5979 7 13.3261 7 12C7 10.6739 7.52678 9.40215 8.46447 8.46447C9.40215 7.52678 10.6739 7 12 7C13.3261 7 14.5979 7.52678 15.5355 8.46447C16.4732 9.40215 17 10.6739 17 12Z" stroke="#F6F7F7" stroke-width="2" stroke-linecap="round"/>
</svg>
