<svg width="24" height="24" viewBox="0 0 24 24" fill="none" xmlns="http://www.w3.org/2000/svg">
<path d="M12.0001 2.125H12C10.0469 2.125 8.13768 2.70416 6.51375 3.78924C4.88981 4.87432 3.62411 6.41658 2.87669 8.221C2.12928 10.0254 1.93372 12.011 2.31475 13.9265C2.69578 15.8421 3.63628 17.6016 5.01732 18.9827C6.39837 20.3637 8.15793 21.3042 10.0735 21.6853C11.9891 22.0663 13.9746 21.8707 15.779 21.1233C17.5834 20.3759 19.1257 19.1102 20.2108 17.4863C21.2958 15.8623 21.875 13.9531 21.875 12V11.9999C21.8722 9.38174 20.831 6.87163 18.9797 5.02034C17.1284 3.16904 14.6183 2.12776 12.0001 2.125ZM11.9999 20.125C10.3929 20.125 8.82211 19.6485 7.486 18.7557C6.14985 17.8629 5.10845 16.594 4.49348 15.1093C3.87852 13.6247 3.71762 11.991 4.03112 10.4149C4.34463 8.8388 5.11846 7.39106 6.25476 6.25476C7.39106 5.11846 8.8388 4.34462 10.4149 4.03112C11.991 3.71761 13.6247 3.87852 15.1093 4.49348C16.594 5.10844 17.8629 6.14984 18.7557 7.48599C19.6485 8.8221 20.125 10.3929 20.125 11.9999C20.1226 14.154 19.2657 16.2193 17.7425 17.7425C16.2193 19.2657 14.154 20.1226 11.9999 20.125ZM13.3687 17.1187C13.5328 16.9546 13.625 16.7321 13.625 16.5C13.625 16.2679 13.5328 16.0454 13.3687 15.8813C13.2344 15.7469 13.0609 15.6608 12.875 15.634V12C12.875 11.569 12.7038 11.1557 12.3991 10.851C12.0943 10.5462 11.681 10.375 11.25 10.375C11.0179 10.375 10.7954 10.4672 10.6313 10.6313C10.4672 10.7954 10.375 11.0179 10.375 11.25C10.375 11.4821 10.4672 11.7046 10.6313 11.8687C10.7656 12.0031 10.9392 12.0892 11.125 12.116V15.75C11.125 16.181 11.2962 16.5943 11.601 16.899C11.9057 17.2038 12.319 17.375 12.75 17.375C12.9821 17.375 13.2046 17.2828 13.3687 17.1187ZM10.5857 7.18054C10.4483 7.3861 10.375 7.62777 10.375 7.875C10.375 8.20652 10.5067 8.52446 10.7411 8.75888C10.9755 8.9933 11.2935 9.125 11.625 9.125C11.8722 9.125 12.1139 9.05169 12.3195 8.91434C12.525 8.77699 12.6852 8.58176 12.7799 8.35335C12.8745 8.12495 12.8992 7.87361 12.851 7.63114C12.8028 7.38866 12.6837 7.16593 12.5089 6.99112C12.3341 6.8163 12.1113 6.69725 11.8689 6.64902C11.6264 6.60079 11.3751 6.62554 11.1467 6.72015C10.9182 6.81476 10.723 6.97498 10.5857 7.18054Z" fill="#F6F7F7" stroke="#F6F7F7" stroke-width="0.25"/>
</svg>
