<svg width="24" height="24" viewBox="0 0 24 24" fill="none" xmlns="http://www.w3.org/2000/svg">
<path fill-rule="evenodd" clip-rule="evenodd" d="M3.25 3.25C2 4.5 2 7 2 12C2 17 2 19.5 3.25 20.75C4.5 22 7 22 12 22C17 22 19.5 22 20.75 20.75C22 19.5 22 17 22 12C22 7 22 4.5 20.75 3.25C19.5 2 17 2 12 2C7 2 4.5 2 3.25 3.25ZM13.5553 5.33644C13.1216 5.33711 12.687 5.33778 12.2504 5.34444C12.24 6.74021 12.2404 8.13598 12.2409 9.5331C12.2411 10.3715 12.2414 11.2103 12.2393 12.0499C12.2379 12.3116 12.2383 12.573 12.2388 12.8342C12.2401 13.5653 12.2414 14.295 12.2004 15.0277C12.1952 15.2316 12.0915 15.411 11.9913 15.5843C11.985 15.5951 11.9788 15.6058 11.9726 15.6165C11.6504 16.1443 11.056 16.5054 10.4338 16.511C9.50046 16.5943 8.62269 15.8276 8.48936 14.9165C8.4885 14.87 8.48696 14.8231 8.48543 14.7761C8.47707 14.5206 8.46859 14.2614 8.56714 14.0221C8.70602 13.6277 8.97269 13.2777 9.32268 13.0499C9.80601 12.7166 10.4504 12.6666 11.0004 12.8443C11.0004 12.492 11.0066 12.1396 11.0127 11.7872C11.0208 11.3174 11.029 10.8476 11.0227 10.3777C9.81712 10.1499 8.52825 10.5333 7.60604 11.3333C6.79494 12.0221 6.27272 13.0332 6.17272 14.0888C6.16161 14.361 6.16717 14.6388 6.17828 14.9165C6.29494 16.2165 7.08382 17.4276 8.20603 18.0887C8.8838 18.4887 9.67823 18.7054 10.4727 18.6609C11.7671 18.6387 13.0282 17.9443 13.756 16.8776C14.206 16.2388 14.4615 15.4665 14.506 14.6888C14.5164 13.6784 14.5159 12.6658 14.5155 11.6525C14.5152 11.0444 14.515 10.4361 14.5171 9.82772C14.8059 10.0166 15.1004 10.1999 15.4171 10.3444C16.1448 10.6888 16.9504 10.8555 17.7504 10.8833V8.6444C16.8948 8.54996 16.017 8.26663 15.3948 7.64997C14.7726 7.04998 14.4671 6.18332 14.4226 5.33333C14.1336 5.33556 13.8447 5.336 13.5553 5.33644Z" fill="#F6F7F7"/>
</svg>
