<svg width="24" height="24" viewBox="0 0 24 24" fill="none" xmlns="http://www.w3.org/2000/svg">
<path d="M14.9932 6.62421C13.007 6.24636 10.9926 6.24636 9.00593 6.62421C8.13699 6.81775 7.0438 7.86529 6.83008 8.7079C6.47461 10.3382 6.47461 11.991 6.83008 13.6213C7.0438 14.4639 8.13699 15.5115 9.00593 15.705C9.00615 15.7051 9.00636 15.7051 9.00658 15.7051C9.04529 15.7127 9.07351 15.7463 9.07351 15.7857V18.1741C9.07351 18.2934 9.21921 18.3522 9.30215 18.2658L10.4366 17.1015C10.4366 17.1015 11.3406 16.1735 11.5031 16.0066C11.519 15.9903 11.541 15.9815 11.5637 15.9821C12.7091 16.0138 13.8557 15.9213 14.9932 15.7051C15.8622 15.5115 16.9558 14.464 17.1691 13.6214C17.525 11.991 17.525 10.3383 17.1691 8.70794C16.9557 7.86529 15.8626 6.81775 14.9932 6.62421ZM15.0235 13.7429C14.8497 14.1119 14.5969 14.4189 14.2321 14.6148C14.1292 14.6701 14.0062 14.688 13.89 14.7238C13.7564 14.6832 13.6291 14.656 13.5109 14.6069C12.2858 14.0986 11.1582 13.4429 10.2651 12.4377C9.75725 11.8661 9.35969 11.2207 9.0237 10.5378C8.86435 10.2139 8.73006 9.87736 8.59318 9.54299C8.46833 9.23808 8.65221 8.92307 8.84579 8.69333C9.02743 8.47772 9.26116 8.31271 9.5143 8.1911C9.71187 8.09618 9.90676 8.1509 10.0511 8.31837C10.363 8.68042 10.6495 9.061 10.8815 9.48068C11.0242 9.73881 10.9851 10.0543 10.7265 10.23C10.6637 10.2727 10.6064 10.3228 10.5478 10.3711C10.4965 10.4133 10.4482 10.456 10.413 10.5133C10.3486 10.6179 10.3456 10.7415 10.387 10.8553C10.7059 11.7316 11.2433 12.413 12.1254 12.78C12.2665 12.8388 12.4082 12.9071 12.5708 12.8882C12.8431 12.8564 12.9313 12.5577 13.1221 12.4016C13.3086 12.2491 13.547 12.2471 13.7479 12.3742C13.9488 12.5014 14.1437 12.6379 14.3373 12.7759C14.5273 12.9113 14.7166 13.0438 14.8919 13.1982C15.0604 13.3466 15.1184 13.5414 15.0235 13.7429ZM13.4417 10.8873C13.3656 10.8887 13.3955 10.8872 13.4245 10.8864C13.3019 10.8821 13.2352 10.8099 13.2221 10.6926C13.2124 10.6069 13.2049 10.5201 13.1844 10.4367C13.1441 10.2725 13.0568 10.1203 12.9187 10.0196C12.8535 9.97211 12.7796 9.93744 12.7022 9.91514C12.6038 9.88675 12.5017 9.89456 12.4036 9.87051C12.297 9.84444 12.2381 9.75812 12.2548 9.65815C12.27 9.56718 12.3586 9.49617 12.458 9.50337C13.0793 9.54822 13.5233 9.86942 13.5867 10.6009C13.5911 10.6525 13.5964 10.707 13.5849 10.7563C13.5663 10.8366 13.509 10.8784 13.451 10.886C13.4557 10.8861 13.4548 10.8865 13.4417 10.8873ZM13.0554 9.21447C12.8647 9.12112 12.6586 9.06311 12.4496 9.02853C12.3583 9.01343 12.266 9.00426 12.1742 8.99149C12.063 8.97604 12.0037 8.90516 12.0089 8.79558C12.0138 8.69289 12.0888 8.61903 12.2008 8.62535C12.5685 8.64624 12.9237 8.72571 13.2507 8.89884C13.9155 9.25094 14.2953 9.8067 14.4062 10.5488C14.4112 10.5824 14.4193 10.6157 14.4218 10.6495C14.4281 10.7328 14.432 10.8162 14.4384 10.926C14.4358 10.9461 14.4344 10.9931 14.4227 11.0374C14.3802 11.1983 14.1363 11.2185 14.0801 11.0561C14.0635 11.0079 14.061 10.9531 14.0609 10.9012C14.0603 10.5618 13.9865 10.2227 13.8154 9.92743C13.6394 9.62401 13.3706 9.36886 13.0554 9.21447ZM15.1097 11.508C14.9813 11.5095 14.9235 11.402 14.9152 11.2868C14.8987 11.0588 14.8872 10.8298 14.8558 10.6036C14.6899 9.40989 13.738 8.42229 12.5499 8.21037C12.3711 8.17846 12.188 8.17008 12.007 8.15108C11.8925 8.13905 11.7425 8.13212 11.7171 7.9898C11.6958 7.87047 11.7966 7.77546 11.9102 7.76936C11.9411 7.76769 11.9721 7.7691 12.0032 7.76923C13.542 7.81237 12.0971 7.77256 12.0073 7.76945C13.6079 7.8161 14.922 8.87901 15.2039 10.4619C15.2519 10.7318 15.2691 11.0078 15.2904 11.2818C15.2994 11.397 15.2341 11.5065 15.1097 11.508Z" fill="#F6F7F7"/>
<path d="M2 12C2 22 2 22 12 22C22 22 22 22 22 12C22 2 22 2 12 2C2 2 2 2 2 12ZM18.3252 13.8834L18.3213 13.8992C18.0018 15.1907 16.5615 16.5766 15.2388 16.865L15.2239 16.868C14.1544 17.0721 13.077 17.1739 12 17.1739C11.683 17.1739 11.3661 17.164 11.0492 17.1463L9.58851 18.6647C9.2269 19.0412 8.59099 18.7849 8.59099 18.2631V16.8214C7.31766 16.4578 5.98459 15.1356 5.67831 13.8991L5.6748 13.8833C5.27983 12.0796 5.27983 10.2505 5.6748 8.44679L5.67831 8.43099C5.99824 7.13944 7.43856 5.75353 8.76083 5.4652L8.77619 5.46213C10.9152 5.054 13.0844 5.054 15.2239 5.46213L15.2388 5.4652C16.5615 5.75353 18.0018 7.13944 18.3213 8.43099L18.3252 8.44679C18.7202 10.2505 18.7202 12.0797 18.3252 13.8834Z" fill="#F6F7F7"/>
</svg>
