<svg width="22" height="22" viewBox="0 0 22 22" fill="none" xmlns="http://www.w3.org/2000/svg">
<path fill-rule="evenodd" clip-rule="evenodd" d="M12.8603 3.79393L19.8811 16.0809C20.6969 17.5091 19.6657 19.2865 18.0212 19.2865H3.97968C2.33427 19.2865 1.30302 17.5091 2.11977 16.0809L9.14052 3.79393C9.96277 2.35385 12.0381 2.35385 12.8603 3.79393ZM11.0006 7.59827C11.5529 7.59827 12.0006 8.04598 12.0006 8.59827V12.0266C12.0006 12.5789 11.5529 13.0266 11.0006 13.0266C10.4483 13.0266 10.0006 12.5789 10.0006 12.0266V8.59827C10.0006 8.04598 10.4483 7.59827 11.0006 7.59827ZM10.9965 13.9999C10.4445 13.9999 9.9965 14.4479 10.0005 14.9999C10.0005 15.5519 10.4485 15.9999 11.0005 15.9999C11.5525 15.9999 12.0005 15.5519 12.0005 14.9999C12.0005 14.4479 11.5525 13.9999 10.9965 13.9999Z" fill="#F6F7F7"/>
</svg>
