<svg aria-hidden="true" style="position: absolute; width: 0; height: 0; overflow: hidden;" version="1.1" xmlns="http://www.w3.org/2000/svg" xmlns:xlink="http://www.w3.org/1999/xlink">
<defs>
<symbol id="arrow-up" viewBox="0 0 32 32">
<path  stroke-linejoin="round" stroke-linecap="round" stroke-miterlimit="4" stroke-width="2.6667" d="M8 20l7.057-7.057c0.521-0.521 1.365-0.521 1.886 0l7.057 7.057"></path>
</symbol>
<symbol id="arrow-right" viewBox="0 0 32 32">
<path fill="none" stroke="#f6f7f7" style="stroke: var(--color1, #f6f7f7)" stroke-linejoin="round" stroke-linecap="round" stroke-miterlimit="4" stroke-width="2.6667" d="M12 24l7.057-7.057c0.521-0.521 0.521-1.365 0-1.886l-7.057-7.057"></path>
</symbol>
<symbol id="arrow-down" viewBox="0 0 32 32">
<path fill="none" stroke="#f6f7f7" style="stroke: var(--color1, #f6f7f7)" stroke-linejoin="round" stroke-linecap="round" stroke-miterlimit="4" stroke-width="2.6667" d="M8 12l7.057 7.057c0.521 0.521 1.365 0.521 1.886 0l7.057-7.057"></path>
</symbol>
<symbol id="arrow-left" viewBox="0 0 32 32">
<path fill="none" stroke="#f6f7f7" style="stroke: var(--color1, #f6f7f7)" stroke-linejoin="round" stroke-linecap="round" stroke-miterlimit="4" stroke-width="2.6667" d="M20 8l-7.057 7.057c-0.521 0.521-0.521 1.365 0 1.886l7.057 7.057"></path>
</symbol>
<symbol id="check" viewBox="0 0 32 32">
<path fill="none" stroke="#f6f7f7" style="stroke: var(--color1, #f6f7f7)" stroke-linejoin="round" stroke-linecap="round" stroke-miterlimit="4" stroke-width="2.6667" d="M26.061 9.333l-13.333 13.333-6.061-6.061"></path>
</symbol>
<symbol id="close" viewBox="0 0 32 32">
<path  stroke-linejoin="round" stroke-linecap="round" stroke-miterlimit="4" stroke-width="2.6667" d="M8 8l16 16"></path>
<path  stroke-linejoin="round" stroke-linecap="round" stroke-miterlimit="4" stroke-width="2.6667" d="M24 8l-16 16"></path>
</symbol>
<symbol id="edit" viewBox="0 0 32 32">
<path fill="#f6f7f7" style="fill: var(--color1, #f6f7f7)" d="M6.667 21.333l-1.333 5.333 5.333-1.333 13.333-13.333-4-4-13.333 13.333z"></path>
<path fill="#f6f7f7" style="fill: var(--color1, #f6f7f7)" d="M24 12l2.115-2.115c0.5-0.5 0.781-1.178 0.781-1.885s-0.281-1.385-0.781-1.885l-0.229-0.229c-0.5-0.5-1.178-0.781-1.885-0.781s-1.385 0.281-1.885 0.781l-2.115 2.115 4 4z"></path>
<path fill="none" stroke="#f6f7f7" style="stroke: var(--color1, #f6f7f7)" stroke-linejoin="round" stroke-linecap="round" stroke-miterlimit="4" stroke-width="2.6667" d="M6.667 21.333l-1.333 5.333 5.333-1.333M6.667 21.333l15.448-15.448M6.667 21.333l13.333-13.333M10.667 25.333l15.448-15.448M10.667 25.333l13.333-13.333M26.115 9.885c0.5-0.5 0.781-1.178 0.781-1.885s-0.281-1.385-0.781-1.885l-0.229-0.229c-0.5-0.5-1.178-0.781-1.885-0.781s-1.385 0.281-1.885 0.781M26.115 9.885l-2.115 2.115M22.115 5.885l-2.115 2.115M20 8l4 4M17.333 26.666h10.667"></path>
</symbol>
<symbol id="eye" viewBox="0 0 32 32">
<path fill="#f6f7f7" style="fill: var(--color1, #f6f7f7)" d="M12 5.947c1.509-0.47 2.643-0.617 4-0.613 5.576 0 9.371 3.333 11.633 6.272l0.004 0.005c1.131 1.471 1.696 2.207 1.696 4.389 0 2.185-0.566 2.92-1.697 4.391l-0.003 0.004c-2.263 2.939-6.057 6.272-11.633 6.272s-9.371-3.333-11.633-6.272c-1.133-1.472-1.7-2.209-1.7-4.395s0.566-2.92 1.697-4.391l0.003-0.004c0.691-0.903 1.461-1.743 2.3-2.511 1.953-1.626 3.024-2.428 5.333-3.148zM20.714 20.714c1.25-1.25 1.953-2.946 1.953-4.714s-0.702-3.464-1.953-4.714c-1.25-1.25-2.946-1.953-4.714-1.953s-3.464 0.702-4.714 1.953c-1.25 1.25-1.953 2.946-1.953 4.714s0.702 3.464 1.953 4.714c1.25 1.25 2.946 1.953 4.714 1.953s3.464-0.702 4.714-1.953z"></path>
<path fill="none" stroke="#f6f7f7" style="stroke: var(--color1, #f6f7f7)" stroke-linejoin="miter" stroke-linecap="round" stroke-miterlimit="4" stroke-width="2.6667" d="M27.633 11.605c-2.263-2.939-6.057-6.272-11.633-6.272-1.357-0.004-2.491 0.143-4 0.613-2.309 0.72-3.381 1.522-5.333 3.148-0.839 0.767-1.609 1.608-2.3 2.511M27.633 11.605l0.004 0.005M27.633 11.605c0.001 0.002 0.003 0.004 0.004 0.005M27.633 20.395c-2.263 2.939-6.057 6.272-11.633 6.272s-9.371-3.333-11.633-6.272c-1.133-1.472-1.7-2.209-1.7-4.395s0.566-2.92 1.697-4.391M27.633 20.395l0.003-0.004M27.633 20.395c0.001-0.001 0.002-0.003 0.003-0.004M4.367 11.605l-0.003 0.004M4.367 11.605c-0.001 0.001-0.002 0.003-0.003 0.004M27.637 11.611c1.131 1.471 1.696 2.207 1.696 4.389 0 2.185-0.566 2.92-1.697 4.391M22.667 16c0 1.768-0.702 3.464-1.953 4.714s-2.946 1.953-4.714 1.953-3.464-0.702-4.714-1.953c-1.25-1.25-1.953-2.946-1.953-4.714s0.702-3.464 1.953-4.714c1.25-1.25 2.946-1.953 4.714-1.953s3.464 0.702 4.714 1.953c1.25 1.25 1.953 2.946 1.953 4.714z"></path>
</symbol>
<symbol id="filter" viewBox="0 0 32 32">
<path fill="none" stroke="#f6f7f7" style="stroke: var(--color1, #f6f7f7)" stroke-linejoin="round" stroke-linecap="round" stroke-miterlimit="4" stroke-width="2.6667" d="M4 10.667h24"></path>
<path fill="none" stroke="#f6f7f7" style="stroke: var(--color1, #f6f7f7)" stroke-linejoin="round" stroke-linecap="round" stroke-miterlimit="4" stroke-width="2.6667" d="M8 16.667h16"></path>
<path fill="none" stroke="#f6f7f7" style="stroke: var(--color1, #f6f7f7)" stroke-linejoin="round" stroke-linecap="round" stroke-miterlimit="4" stroke-width="2.6667" d="M12 22.667h8"></path>
</symbol>
<symbol id="info" viewBox="0 0 32 32">
<path fill="#f6f7f7" style="fill: var(--color1, #f6f7f7); stroke: var(--color1, #f6f7f7)" stroke="#f6f7f7" stroke-linejoin="miter" stroke-linecap="butt" stroke-miterlimit="4" stroke-width="0.3333" d="M16 2.833h-0c-2.604 0-5.15 0.772-7.315 2.219s-3.853 3.503-4.849 5.909c-0.997 2.406-1.257 5.053-0.749 7.607s1.762 4.9 3.603 6.742c1.841 1.841 4.187 3.095 6.742 3.603s5.201 0.247 7.607-0.749 4.462-2.684 5.909-4.849c1.447-2.165 2.219-4.711 2.219-7.315v-0c-0.004-3.491-1.392-6.838-3.86-9.306s-5.815-3.857-9.306-3.86zM16 26.833c-2.143 0-4.237-0.635-6.019-1.826s-3.17-2.882-3.99-4.862c-0.82-1.979-1.034-4.158-0.616-6.259s1.45-4.032 2.965-5.547c1.515-1.515 3.445-2.547 5.547-2.965s4.28-0.203 6.259 0.616c1.98 0.82 3.671 2.208 4.862 3.99s1.826 3.876 1.826 6.019c-0.003 2.872-1.146 5.626-3.177 7.657s-4.785 3.173-7.657 3.177zM17.825 22.825c0.219-0.219 0.342-0.515 0.342-0.825s-0.123-0.606-0.342-0.825c-0.179-0.179-0.41-0.294-0.658-0.33v-4.845c0-0.575-0.228-1.126-0.635-1.532s-0.957-0.635-1.532-0.635c-0.309 0-0.606 0.123-0.825 0.342s-0.342 0.515-0.342 0.825c0 0.309 0.123 0.606 0.342 0.825 0.179 0.179 0.411 0.294 0.658 0.33v4.845c0 0.575 0.228 1.126 0.635 1.532s0.957 0.635 1.532 0.635c0.309 0 0.606-0.123 0.825-0.342zM14.114 9.574c-0.183 0.274-0.281 0.596-0.281 0.926 0 0.442 0.176 0.866 0.488 1.178s0.737 0.488 1.179 0.488c0.33 0 0.652-0.098 0.926-0.281s0.488-0.443 0.614-0.748c0.126-0.305 0.159-0.64 0.095-0.963s-0.223-0.62-0.456-0.853c-0.233-0.233-0.53-0.392-0.853-0.456s-0.658-0.031-0.963 0.095c-0.305 0.126-0.565 0.34-0.748 0.614z"></path>
</symbol>
<symbol id="menu-burger" viewBox="0 0 32 32">
<path  stroke-linejoin="round" stroke-linecap="round" stroke-miterlimit="4" stroke-width="2.6667" d="M6.667 15.334h18.667"></path>
<path  stroke-linejoin="round" stroke-linecap="round" stroke-miterlimit="4" stroke-width="2.6667" d="M6.667 22.002h18.667"></path>
<path  stroke-linejoin="round" stroke-linecap="round" stroke-miterlimit="4" stroke-width="2.6667" d="M6.667 8.667h18.667"></path>
</symbol>
<symbol id="phone" viewBox="0 0 32 32">
<path  d="M22.666 1.347l-13.333-0.013c-1.467 0-2.653 1.2-2.653 2.667v24c0 1.467 1.187 2.667 2.653 2.667h13.333c1.467 0 2.667-1.2 2.667-2.667v-24c0-1.467-1.2-2.653-2.667-2.653zM22.666 25.333h-13.333v-18.667h13.333v18.667z"></path>
</symbol>
<symbol id="pin-location" viewBox="0 0 32 32">
<path  d="M24 10.667c0-4.413-3.587-8-8-8s-8 3.587-8 8c0 6 8 14.667 8 14.667s8-8.667 8-14.667zM13.333 10.667c0-1.467 1.2-2.667 2.667-2.667s2.667 1.2 2.667 2.667c0 1.467-1.187 2.667-2.667 2.667-1.467 0-2.667-1.2-2.667-2.667zM8 26.667c-0.736 0-1.333 0.597-1.333 1.333s0.597 1.333 1.333 1.333h16c0.736 0 1.333-0.597 1.333-1.333s-0.597-1.333-1.333-1.333h-16z"></path>
</symbol>
<symbol id="plus" viewBox="0 0 32 32">
<path fill="#f6f7f7" style="fill: var(--color1, #f6f7f7)" d="M17.867 15.201v-6.667c0-0.354-0.141-0.693-0.391-0.943s-0.589-0.391-0.943-0.391c-0.354 0-0.693 0.14-0.943 0.391s-0.391 0.589-0.391 0.943v6.667h-6.667c-0.354 0-0.693 0.14-0.943 0.391s-0.391 0.589-0.391 0.943 0.14 0.693 0.391 0.943c0.25 0.25 0.589 0.391 0.943 0.391h6.667v6.667c0 0.354 0.14 0.693 0.391 0.943s0.589 0.391 0.943 0.391 0.693-0.141 0.943-0.391c0.25-0.25 0.391-0.589 0.391-0.943v-6.667h6.667c0.354 0 0.693-0.141 0.943-0.391s0.391-0.589 0.391-0.943c0-0.354-0.141-0.693-0.391-0.943s-0.589-0.391-0.943-0.391h-6.667z"></path>
</symbol>
<symbol id="search" viewBox="0 0 32 32">
<path fill="none" stroke="#f6f7f7" style="stroke: var(--color1, #f6f7f7)" stroke-linejoin="round" stroke-linecap="round" stroke-miterlimit="4" stroke-width="2.6667" d="M25.245 15.289v0c0 5.499-4.457 9.956-9.956 9.956v0c-5.499 0-9.956-4.457-9.956-9.956v0c0-5.499 4.457-9.956 9.956-9.956v0c5.499 0 9.956 4.457 9.956 9.956z"></path>
<path fill="none" stroke="#f6f7f7" style="stroke: var(--color1, #f6f7f7)" stroke-linejoin="round" stroke-linecap="round" stroke-miterlimit="4" stroke-width="2.6667" d="M26.667 26.667l-4-4"></path>
</symbol>
<symbol id="user" viewBox="0 0 32 32">
<path  d="M26.667 26.667v-1c0-3.13-2.537-5.667-5.667-5.667h-10c-3.13 0-5.667 2.537-5.667 5.667v1z"></path>
<path  stroke-linejoin="round" stroke-linecap="round" stroke-miterlimit="4" stroke-width="2" d="M26.667 26.667v-1c0-3.13-2.537-5.667-5.667-5.667h-10c-3.13 0-5.667 2.537-5.667 5.667v1h21.333z"></path>
<path  stroke-linejoin="round" stroke-linecap="round" stroke-miterlimit="4" stroke-width="2" d="M21.333 9.333c0 2.946-2.388 5.333-5.333 5.333s-5.333-2.388-5.333-5.333c0-2.946 2.388-5.333 5.333-5.333s5.333 2.388 5.333 5.333z"></path>
</symbol>
<symbol id="telegram" viewBox="0 0 32 32">
<path  d="M16 2.667c-13.333 0-13.333 0-13.333 13.333s0 13.333 13.333 13.333 13.333 0 13.333-13.333 0-13.333-13.333-13.333zM22.549 11.801l-2.189 10.311c-0.161 0.731-0.597 0.909-1.204 0.564l-3.333-2.456-1.607 1.549c-0.156 0.2-0.397 0.328-0.667 0.328-0.002 0-0.003 0-0.006 0l0.237-3.393 6.178-5.58c0.267-0.237-0.060-0.371-0.414-0.134l-7.632 4.807-3.289-1.027c-0.711-0.226-0.731-0.711 0.15-1.060l12.851-4.953c0.598-0.218 1.118 0.142 0.924 1.046l0.001-0.001z"></path>
</symbol>
<symbol id="tiktok" viewBox="0 0 32 32">
<path  d="M4.333 4.333c1.667-1.667 5-1.667 11.667-1.667s10 0 11.667 1.667c1.667 1.667 1.667 5 1.667 11.667s0 10-1.667 11.667c-1.667 1.667-5 1.667-11.667 1.667s-10 0-11.667-1.667c-1.667-1.667-1.667-5-1.667-11.667s0-10 1.667-11.667zM18.074 7.115c-0.578 0.001-1.158 0.002-1.74 0.011-0.014 1.861-0.013 3.722-0.013 5.585 0 1.118 0.001 2.236-0.002 3.356-0.002 0.349-0.001 0.697-0.001 1.046 0.002 0.975 0.003 1.948-0.051 2.925-0.007 0.272-0.145 0.511-0.279 0.742-0.008 0.014-0.017 0.029-0.025 0.043-0.43 0.704-1.222 1.185-2.052 1.193-1.244 0.111-2.415-0.911-2.593-2.126-0.001-0.062-0.003-0.125-0.005-0.187-0.011-0.341-0.022-0.686 0.109-1.005 0.185-0.526 0.541-0.993 1.007-1.296 0.644-0.444 1.504-0.511 2.237-0.274 0-0.47 0.008-0.94 0.016-1.409 0.011-0.626 0.022-1.253 0.013-1.879-1.607-0.304-3.326 0.207-4.556 1.274-1.081 0.918-1.778 2.267-1.911 3.674-0.015 0.363-0.007 0.733 0.007 1.104 0.156 1.733 1.207 3.348 2.704 4.23 0.904 0.533 1.963 0.822 3.022 0.763 1.726-0.030 3.407-0.955 4.378-2.378 0.6-0.852 0.941-1.881 1-2.918 0.014-1.347 0.013-2.697 0.013-4.048-0-0.811-0.001-1.622 0.002-2.433 0.385 0.252 0.778 0.496 1.2 0.689 0.97 0.459 2.044 0.681 3.111 0.719v-2.985c-1.141-0.126-2.311-0.504-3.141-1.326-0.83-0.8-1.237-1.956-1.296-3.089-0.385 0.003-0.771 0.004-1.156 0.004z"></path>
</symbol>
<symbol id="viber" viewBox="0 0 32 32">
<path  d="M19.991 8.832c-2.648-0.504-5.334-0.504-7.983 0-1.159 0.258-2.616 1.655-2.901 2.778-0.474 2.174-0.474 4.377 0 6.551 0.285 1.123 1.743 2.52 2.901 2.778 0 0 0.001 0 0.001 0 0.052 0.010 0.089 0.055 0.089 0.107v3.185c0 0.159 0.194 0.237 0.305 0.122l1.513-1.552c0 0 1.205-1.237 1.422-1.46 0.021-0.022 0.051-0.033 0.081-0.033 1.527 0.042 3.056-0.081 4.573-0.369 1.159-0.258 2.617-1.655 2.901-2.778 0.475-2.174 0.475-4.377 0-6.551-0.285-1.124-1.742-2.52-2.901-2.778zM20.031 18.324c-0.232 0.492-0.569 0.901-1.055 1.163-0.137 0.074-0.301 0.098-0.456 0.145-0.178-0.054-0.348-0.090-0.505-0.156-1.633-0.678-3.137-1.552-4.328-2.892-0.677-0.762-1.207-1.623-1.655-2.533-0.212-0.432-0.392-0.881-0.574-1.326-0.166-0.407 0.079-0.827 0.337-1.133 0.242-0.287 0.554-0.508 0.891-0.67 0.263-0.127 0.523-0.054 0.716 0.17 0.416 0.483 0.798 0.99 1.107 1.55 0.19 0.344 0.138 0.765-0.207 0.999-0.084 0.057-0.16 0.124-0.238 0.188-0.068 0.056-0.133 0.113-0.18 0.19-0.086 0.139-0.090 0.304-0.035 0.456 0.425 1.168 1.142 2.077 2.318 2.566 0.188 0.078 0.377 0.169 0.594 0.144 0.363-0.042 0.481-0.441 0.735-0.649 0.249-0.203 0.567-0.206 0.834-0.037s0.528 0.352 0.786 0.536c0.253 0.181 0.506 0.357 0.739 0.563 0.225 0.198 0.302 0.458 0.175 0.726zM17.922 14.516c-0.101 0.002-0.062-0-0.023-0.001-0.163-0.006-0.252-0.102-0.27-0.258-0.013-0.114-0.023-0.23-0.050-0.341-0.054-0.219-0.17-0.422-0.354-0.556-0.087-0.063-0.185-0.11-0.289-0.139-0.131-0.038-0.267-0.027-0.398-0.059-0.142-0.035-0.221-0.15-0.198-0.283 0.020-0.121 0.138-0.216 0.271-0.206 0.828 0.060 1.42 0.488 1.505 1.463 0.006 0.069 0.013 0.141-0.002 0.207-0.025 0.107-0.101 0.163-0.179 0.173 0.006 0 0.005 0.001-0.012 0.002zM17.407 12.286c-0.254-0.124-0.529-0.202-0.808-0.248-0.122-0.020-0.245-0.032-0.367-0.049-0.148-0.021-0.227-0.115-0.22-0.261 0.007-0.137 0.107-0.235 0.256-0.227 0.49 0.028 0.964 0.134 1.4 0.365 0.886 0.469 1.393 1.21 1.541 2.2 0.007 0.045 0.017 0.089 0.021 0.134 0.008 0.111 0.014 0.222 0.022 0.369-0.003 0.027-0.005 0.089-0.021 0.149-0.057 0.215-0.382 0.241-0.457 0.025-0.022-0.064-0.025-0.137-0.026-0.207-0.001-0.453-0.099-0.905-0.327-1.298-0.235-0.405-0.593-0.745-1.013-0.951zM20.146 15.344c-0.171 0.002-0.248-0.141-0.259-0.295-0.022-0.304-0.037-0.609-0.079-0.911-0.221-1.592-1.49-2.908-3.075-3.191-0.238-0.043-0.483-0.054-0.724-0.079-0.153-0.016-0.353-0.025-0.387-0.215-0.028-0.159 0.106-0.286 0.257-0.294 0.041-0.002 0.083-0 0.124-0 2.052 0.058 0.125 0.004 0.005 0 2.134 0.062 3.886 1.479 4.262 3.59 0.064 0.36 0.087 0.728 0.115 1.093 0.012 0.154-0.075 0.3-0.241 0.302z"></path>
<path  d="M2.667 16c0 13.333 0 13.333 13.333 13.333s13.333 0 13.333-13.333 0-13.333-13.333-13.333-13.333 0-13.333 13.333zM24.434 18.511l-0.005 0.021c-0.426 1.722-2.346 3.57-4.11 3.954l-0.020 0.004c-1.426 0.272-2.863 0.408-4.299 0.408-0.423 0-0.845-0.013-1.268-0.037l-1.948 2.025c-0.482 0.502-1.33 0.16-1.33-0.535v-1.922c-1.698-0.485-3.475-2.248-3.884-3.896l-0.005-0.021c-0.527-2.405-0.527-4.844 0-7.249l0.005-0.021c0.427-1.722 2.347-3.57 4.11-3.954l0.020-0.004c2.852-0.544 5.744-0.544 8.597 0l0.020 0.004c1.764 0.384 3.684 2.232 4.11 3.954l0.005 0.021c0.527 2.405 0.527 4.844 0 7.249z"></path>
</symbol>
<symbol id="warning" viewBox="0 0 32 32">
<path fill="#f6f7f7" style="fill: var(--color1, #f6f7f7)" d="M18.706 5.518l10.212 17.872c1.187 2.077-0.313 4.663-2.705 4.663h-20.424c-2.393 0-3.893-2.585-2.705-4.663l10.212-17.872c1.196-2.095 4.215-2.095 5.411 0zM16.001 11.052c0.803 0 1.455 0.651 1.455 1.455v4.987c0 0.803-0.651 1.455-1.455 1.455s-1.455-0.651-1.455-1.455v-4.987c0-0.803 0.651-1.455 1.455-1.455zM15.995 20.363c-0.803 0-1.455 0.652-1.449 1.455 0 0.803 0.652 1.455 1.455 1.455s1.455-0.652 1.455-1.455c0-0.803-0.652-1.455-1.46-1.455z"></path>
</symbol>
<symbol id="logo" viewBox="0 0 65 32">
<path fill="#f6f7f7" style="fill: var(--color1, #f6f7f7)" d="M3.714 0l14.878 16.126c2.905-3.149 3.998-4.463 6.265-6.92v5.243l-6.265 6.716-12.078-13.102v23.937h-2.801v-32z"></path>
<path fill="#ffc935" style="fill: var(--color2, #ffc935)" d="M32.171 32h-2.057v-8h6.229v1.6h-4.171v6.4z"></path>
<path fill="#ffc935" style="fill: var(--color2, #ffc935)" d="M37.145 24h4.8c0.8 0 1.379 0.183 1.737 0.549 0.366 0.358 0.549 0.937 0.549 1.737v1.143c0 0.8-0.183 1.383-0.549 1.749-0.358 0.358-0.937 0.537-1.737 0.537h-2.743v2.286h-2.057v-8zM42.174 26.286c0-0.457-0.229-0.686-0.686-0.686h-2.286v2.514h2.286c0.457 0 0.686-0.229 0.686-0.686v-1.143z"></path>
<path fill="#ffc935" style="fill: var(--color2, #ffc935)" d="M46.956 32.114c-0.381 0-0.773-0.038-1.177-0.114v-1.543h1.029c0.221 0 0.373-0.088 0.457-0.263 0.038-0.076 0.057-0.156 0.057-0.24 0-0.091-0.019-0.171-0.057-0.24l-3.143-5.714h2.286l2.057 4.057 1.714-4.057h2.286l-2.914 6.286c-0.267 0.602-0.587 1.051-0.96 1.349-0.411 0.32-0.956 0.48-1.634 0.48z"></path>
<path fill="#ffc935" style="fill: var(--color2, #ffc935)" d="M59.898 32h-2.057v-6.4h-2.857v6.4h-2.057v-8h6.971v8z"></path>
<path fill="#ffd74a" style="fill: var(--color3, #ffd74a)" d="M47.913 8.123l-0.184 1.248h-20.014v22.63h-3.126l0-1.275-0-4.724 0.001-0.001v-16.629l-6.876-0 6.876-6.956-0-2.414h3.126v2.204l20.198 5.919zM20.741 8.096h3.849v-3.873l-3.849 3.873zM25.865 30.725h0.576v-21.355h-0.576v21.355zM25.865 8.096h0.576v-4.781h-0.576v4.781zM25.865 2.040h0.576v-0.765h-0.576v0.765zM31.049 4.368l-3.333-0.833v3.595l3.333-2.762zM32.112 5.109l-3.558 2.987h6.545l-2.987-2.987zM34.092 5.286l2.45 2.45 1.314-1.315-3.764-1.135zM39.242 6.839l-1.256 1.256h5.423l-4.166-1.256z"></path>
<path fill="#ffd74a" style="fill: var(--color3, #ffd74a)" d="M24.59 30.725l-0 1.275v-5.999l0 4.724zM27.716 25.93v6.070l0-1.275-0-4.795z"></path>
<path fill="#ffd74a" style="fill: var(--color3, #ffd74a)" d="M26.441 30.725h-0.576v-21.355h0.576v21.355z"></path>
<path fill="#ffd74a" style="fill: var(--color3, #ffd74a)" d="M26.441 8.096h-0.576v-4.781h0.576v4.781z"></path>
<path fill="#ffd74a" style="fill: var(--color3, #ffd74a)" d="M26.441 2.040h-0.576v-0.765h0.576v0.765z"></path>
<path fill="#ffc935" style="fill: var(--color2, #ffc935)" d="M46.056 16.612v-0.558h0.97c0 0 0-0.281 0-0.627v-2.257c0-0.346 0-0.627 0-0.627h-0.844v-2.257c0 0-0.281 0-0.627 0s-0.586 0-0.586 0l-0.041 2.257h-0.405c-0.346 0-0.627 0-0.627 0v2.884c0 0.346 0 0.627 0 0.627h0.907v1.066c0 0.346 0.281 0.627 0.627 0.627 0.254 0 0.46 0.206 0.46 0.46s-0.206 0.46-0.46 0.46c-0.172 0-0.46-0.314-0.46-0.314h-1.254c0 0.908 0.721 1.567 1.714 1.567 0.945 0 1.714-0.769 1.714-1.714-0-0.724-0.451-1.345-1.087-1.595zM45.771 14.8h-0.622v-1.003h0.622v1.003z"></path>
</symbol>

</defs>
</svg>
