<svg aria-hidden="true" style="position:absolute;width:0;height:0;overflow:hidden" xmlns="http://www.w3.org/2000/svg"><defs><symbol id="arrow-up" viewBox="0 0 32 32"><path stroke-linejoin="round" stroke-linecap="round" stroke-width="2.667" d="m8 20 7.057-7.057a1.333 1.333 0 0 1 1.886 0L24 20"/></symbol><symbol id="arrow-right" viewBox="0 0 32 32"><path fill="none" stroke="#f6f7f7" style="stroke:var(--color1, #f6f7f7)" stroke-linejoin="round" stroke-linecap="round" stroke-width="2.667" d="m12 24 7.057-7.057a1.333 1.333 0 0 0 0-1.886L12 8"/></symbol><symbol id="arrow-down" viewBox="0 0 32 32"><path stroke-linejoin="round" stroke-linecap="round" stroke-width="2.667" d="m8 12 7.057 7.057a1.333 1.333 0 0 0 1.886 0L24 12"/></symbol><symbol id="arrow-left" viewBox="0 0 32 32"><path fill="none" stroke="#f6f7f7" style="stroke:var(--color1, #f6f7f7)" stroke-linejoin="round" stroke-linecap="round" stroke-width="2.667" d="m20 8-7.057 7.057a1.333 1.333 0 0 0 0 1.886L20 24"/></symbol><symbol id="check" viewBox="0 0 32 32"><path fill="none" stroke="#f6f7f7" style="stroke:var(--color1, #f6f7f7)" stroke-linejoin="round" stroke-linecap="round" stroke-width="2.667" d="M26.061 9.333 12.728 22.666l-6.061-6.061"/></symbol><symbol id="close" viewBox="0 0 32 32"><path stroke-linejoin="round" stroke-linecap="round" stroke-width="2.667" d="m8 8 16 16m0-16L8 24"/></symbol><symbol id="edit" viewBox="0 0 32 32"><path fill="#f6f7f7" style="fill:var(--color1, #f6f7f7)" d="m6.667 21.333-1.333 5.333 5.333-1.333L24 12l-4-4L6.667 21.333zM24 12l2.115-2.115a2.666 2.666 0 0 0 0-3.77l-.229-.229a2.666 2.666 0 0 0-3.77 0l-2.115 2.115 4 4z"/><path fill="none" stroke="#f6f7f7" style="stroke:var(--color1, #f6f7f7)" stroke-linejoin="round" stroke-linecap="round" stroke-width="2.667" d="m6.667 21.333-1.333 5.333 5.333-1.333m-4-4L22.115 5.885M6.667 21.333 20 8m-9.333 17.333L26.115 9.885M10.667 25.333 24 12m2.115-2.115a2.666 2.666 0 0 0 0-3.77l-.229-.229a2.666 2.666 0 0 0-3.77 0m3.999 3.999L24 12m-1.885-6.115L20 8m0 0 4 4m-6.667 14.666H28"/></symbol><symbol id="eye" viewBox="0 0 32 32"><path fill="#f6f7f7" style="fill:var(--color1, #f6f7f7)" d="M12 5.947c1.509-.47 2.643-.617 4-.613 5.576 0 9.371 3.333 11.633 6.272l.004.005c1.131 1.471 1.696 2.207 1.696 4.389 0 2.185-.566 2.92-1.697 4.391l-.003.004C25.37 23.334 21.576 26.667 16 26.667s-9.371-3.333-11.633-6.272c-1.133-1.472-1.7-2.209-1.7-4.395s.566-2.92 1.697-4.391l.003-.004a19.332 19.332 0 0 1 2.3-2.511C8.62 7.468 9.691 6.666 12 5.946zm8.714 14.767a6.668 6.668 0 1 0-9.43-9.43 6.668 6.668 0 0 0 9.43 9.43z"/><path fill="none" stroke="#f6f7f7" style="stroke:var(--color1, #f6f7f7)" stroke-linecap="round" stroke-width="2.667" d="M27.633 11.605C25.37 8.666 21.576 5.333 16 5.333c-1.357-.004-2.491.143-4 .613-2.309.72-3.381 1.522-5.333 3.148a19.267 19.267 0 0 0-2.3 2.511m23.266 0 .004.005m-.004-.005a.022.022 0 0 0 .004.005m-.004 8.785C25.37 23.334 21.576 26.667 16 26.667s-9.371-3.333-11.633-6.272c-1.133-1.472-1.7-2.209-1.7-4.395s.566-2.92 1.697-4.391m23.269 8.786.003-.004m-.003.004.003-.004M4.367 11.605l-.003.004m.003-.004-.003.004m23.273.002c1.131 1.471 1.696 2.207 1.696 4.389 0 2.185-.566 2.92-1.697 4.391M22.667 16a6.67 6.67 0 0 1-11.381 4.714A6.668 6.668 0 1 1 22.667 16z"/></symbol><symbol id="filter" viewBox="0 0 32 32"><path fill="none" stroke="#f6f7f7" style="stroke:var(--color1, #f6f7f7)" stroke-linejoin="round" stroke-linecap="round" stroke-width="2.667" d="M4 10.667h24m-20 6h16m-12 6h8"/></symbol><symbol id="info" viewBox="0 0 32 32"><path fill="#f6f7f7" style="fill:var(--color1, #f6f7f7);stroke:var(--color1, #f6f7f7)" stroke="#f6f7f7" stroke-width=".333" d="M16 2.833A13.165 13.165 0 0 0 3.087 18.568a13.165 13.165 0 0 0 17.952 9.596A13.164 13.164 0 0 0 29.167 16 13.182 13.182 0 0 0 16.001 2.834zm0 24a10.83 10.83 0 0 1-10.009-6.688 10.832 10.832 0 0 1 7.896-14.771A10.84 10.84 0 0 1 25.008 9.98a10.83 10.83 0 0 1 1.826 6.019A10.846 10.846 0 0 1 16 26.833zm1.825-4.008a1.166 1.166 0 0 0-.658-1.98V16A2.169 2.169 0 0 0 15 13.833a1.167 1.167 0 0 0-.167 2.322V21A2.169 2.169 0 0 0 17 23.167c.309 0 .606-.123.825-.342zM14.114 9.574a1.667 1.667 0 1 0 2.77 1.852 1.667 1.667 0 0 0-2.769-1.852z"/></symbol><symbol id="menu-burger" viewBox="0 0 32 32"><path stroke-linejoin="round" stroke-linecap="round" stroke-width="2.667" d="M6.667 15.334h18.667M6.667 22.002h18.667M6.667 8.667h18.667"/></symbol><symbol id="phone" viewBox="0 0 32 32"><path d="M22.666 1.347 9.333 1.334A2.663 2.663 0 0 0 6.68 4.001v24a2.663 2.663 0 0 0 2.653 2.667h13.333c1.467 0 2.667-1.2 2.667-2.667v-24c0-1.467-1.2-2.653-2.667-2.653zm0 23.986H9.333V6.666h13.333v18.667z"/></symbol><symbol id="pin-location" viewBox="0 0 32 32"><path d="M24 10.667c0-4.413-3.587-8-8-8s-8 3.587-8 8c0 6 8 14.667 8 14.667s8-8.667 8-14.667zm-10.667 0C13.333 9.2 14.533 8 16 8s2.667 1.2 2.667 2.667a2.666 2.666 0 1 1-5.334 0zM8 26.667a1.333 1.333 0 0 0 0 2.666h16a1.333 1.333 0 0 0 0-2.666H8z"/></symbol><symbol id="plus" viewBox="0 0 32 32"><path fill="#f6f7f7" style="fill:var(--color1, #f6f7f7)" d="M17.867 15.201V8.534a1.334 1.334 0 0 0-2.668 0v6.667H8.532a1.335 1.335 0 0 0-.943 2.277c.25.25.589.391.943.391h6.667v6.667a1.335 1.335 0 0 0 2.277.943c.25-.25.391-.589.391-.943v-6.667h6.667a1.334 1.334 0 0 0 0-2.668h-6.667z"/></symbol><symbol id="search" viewBox="0 0 32 32"><path fill="none" stroke="#f6f7f7" style="stroke:var(--color1, #f6f7f7)" stroke-linejoin="round" stroke-linecap="round" stroke-width="2.667" d="M25.245 15.289v0c0 5.499-4.457 9.956-9.956 9.956v0c-5.499 0-9.956-4.457-9.956-9.956v0c0-5.499 4.457-9.956 9.956-9.956v0c5.499 0 9.956 4.457 9.956 9.956zm1.422 11.378-4-4"/></symbol><symbol id="user" viewBox="0 0 32 32"><path d="M26.667 26.667v-1A5.667 5.667 0 0 0 21 20H11a5.667 5.667 0 0 0-5.667 5.667v1z"/><path stroke-linejoin="round" stroke-linecap="round" stroke-width="2" d="M26.667 26.667v-1A5.667 5.667 0 0 0 21 20H11a5.667 5.667 0 0 0-5.667 5.667v1h21.333zM21.333 9.333a5.333 5.333 0 1 1-10.666 0 5.333 5.333 0 0 1 10.666 0z"/></symbol><symbol id="telegram" viewBox="0 0 32 32"><path d="M16 2.667c-13.333 0-13.333 0-13.333 13.333s0 13.333 13.333 13.333 13.333 0 13.333-13.333S29.333 2.667 16 2.667zm6.549 9.134L20.36 22.112c-.161.731-.597.909-1.204.564l-3.333-2.456-1.607 1.549a.844.844 0 0 1-.667.328h-.006l.237-3.393 6.178-5.58c.267-.237-.06-.371-.414-.134l-7.632 4.807-3.289-1.027c-.711-.226-.731-.711.15-1.06l12.851-4.953c.598-.218 1.118.142.924 1.046l.001-.001z"/></symbol><symbol id="tiktok" viewBox="0 0 32 32"><path d="M4.333 4.333C6 2.666 9.333 2.666 16 2.666s10 0 11.667 1.667C29.334 6 29.334 9.333 29.334 16s0 10-1.667 11.667c-1.667 1.667-5 1.667-11.667 1.667s-10 0-11.667-1.667C2.666 26 2.666 22.667 2.666 16s0-10 1.667-11.667zm13.741 2.782c-.578.001-1.158.002-1.74.011-.014 1.861-.013 3.722-.013 5.585 0 1.118.001 2.236-.002 3.356-.002.349-.001.697-.001 1.046.002.975.003 1.948-.051 2.925-.007.272-.145.511-.279.742l-.025.043c-.43.704-1.222 1.185-2.052 1.193-1.244.111-2.415-.911-2.593-2.126a11.669 11.669 0 0 0-.005-.187c-.011-.341-.022-.686.109-1.005a2.57 2.57 0 0 1 1.007-1.296c.644-.444 1.504-.511 2.237-.274 0-.47.008-.94.016-1.409.011-.626.022-1.253.013-1.879-1.607-.304-3.326.207-4.556 1.274a5.56 5.56 0 0 0-1.911 3.674c-.015.363-.007.733.007 1.104.156 1.733 1.207 3.348 2.704 4.23.904.533 1.963.822 3.022.763 1.726-.03 3.407-.955 4.378-2.378.6-.852.941-1.881 1-2.918.014-1.347.013-2.697.013-4.048 0-.811-.001-1.622.002-2.433.385.252.778.496 1.2.689.97.459 2.044.681 3.111.719v-2.985c-1.141-.126-2.311-.504-3.141-1.326-.83-.8-1.237-1.956-1.296-3.089-.385.003-.771.004-1.156.004z"/></symbol><symbol id="viber" viewBox="0 0 32 32"><path d="M19.991 8.832a21.263 21.263 0 0 0-7.983 0c-1.159.258-2.616 1.655-2.901 2.778a15.268 15.268 0 0 0 0 6.551c.285 1.123 1.743 2.52 2.901 2.778h.001a.11.11 0 0 1 .089.107v3.185c0 .159.194.237.305.122l1.513-1.552 1.422-1.46a.112.112 0 0 1 .081-.033 21.34 21.34 0 0 0 4.573-.369c1.159-.258 2.617-1.655 2.901-2.778a15.236 15.236 0 0 0 0-6.551c-.285-1.124-1.742-2.52-2.901-2.778zm.04 9.492c-.232.492-.569.901-1.055 1.163-.137.074-.301.098-.456.145-.178-.054-.348-.09-.505-.156-1.633-.678-3.137-1.552-4.328-2.892-.677-.762-1.207-1.623-1.655-2.533-.212-.432-.392-.881-.574-1.326-.166-.407.079-.827.337-1.133.242-.287.554-.508.891-.67.263-.127.523-.054.716.17.416.483.798.99 1.107 1.55.19.344.138.765-.207.999-.084.057-.16.124-.238.188a.775.775 0 0 0-.18.19.519.519 0 0 0-.035.456c.425 1.168 1.142 2.077 2.318 2.566.188.078.377.169.594.144.363-.042.481-.441.735-.649.249-.203.567-.206.834-.037s.528.352.786.536c.253.181.506.357.739.563.225.198.302.458.175.726zm-2.109-3.808a.386.386 0 0 1-.023-.001c-.163-.006-.252-.102-.27-.258-.013-.114-.023-.23-.05-.341a.962.962 0 0 0-.354-.556.909.909 0 0 0-.289-.139c-.131-.038-.267-.027-.398-.059-.142-.035-.221-.15-.198-.283a.256.256 0 0 1 .271-.206c.828.06 1.42.488 1.505 1.463.006.069.013.141-.002.207-.025.107-.101.163-.179.173.006 0 .005.001-.012.002zm-.515-2.23a2.923 2.923 0 0 0-.808-.248c-.122-.02-.245-.032-.367-.049-.148-.021-.227-.115-.22-.261.007-.137.107-.235.256-.227.49.028.964.134 1.4.365.886.469 1.393 1.21 1.541 2.2.007.045.017.089.021.134.008.111.014.222.022.369-.003.027-.005.089-.021.149-.057.215-.382.241-.457.025a.676.676 0 0 1-.026-.207 2.588 2.588 0 0 0-.327-1.298 2.42 2.42 0 0 0-1.013-.951zm2.739 3.058c-.171.002-.248-.141-.259-.295-.022-.304-.037-.609-.079-.911-.221-1.592-1.49-2.908-3.075-3.191-.238-.043-.483-.054-.724-.079-.153-.016-.353-.025-.387-.215-.028-.159.106-.286.257-.294.041-.002.083 0 .124 0 2.052.058.125.004.005 0 2.134.062 3.886 1.479 4.262 3.59.064.36.087.728.115 1.093.012.154-.075.3-.241.302z"/><path d="M2.667 16c0 13.333 0 13.333 13.333 13.333s13.333 0 13.333-13.333S29.333 2.667 16 2.667 2.667 2.667 2.667 16zm21.767 2.511-.005.021c-.426 1.722-2.346 3.57-4.11 3.954l-.02.004a22.926 22.926 0 0 1-5.567.371l-1.948 2.025c-.482.502-1.33.16-1.33-.535v-1.922c-1.698-.485-3.475-2.248-3.884-3.896l-.005-.021a16.816 16.816 0 0 1 0-7.249l.005-.021c.427-1.722 2.347-3.57 4.11-3.954l.02-.004a22.848 22.848 0 0 1 8.597 0l.02.004c1.764.384 3.684 2.232 4.11 3.954l.005.021a16.816 16.816 0 0 1 0 7.249z"/></symbol><symbol id="warning" viewBox="0 0 32 32"><path d="M28.359 23.597 17.575 6.147c-.869-1.403-2.281-1.406-3.15 0L3.641 23.597C2.475 25.481 3.322 27 5.529 27h20.944c2.203 0 3.05-1.522 1.887-3.403zM16 24a1 1 0 1 1 0-2 1 1 0 1 1 0 2zm1-4.997c0 .544-.447.997-1 .997-.556 0-1-.447-1-.997v-6.006c0-.544.447-.997 1-.997.556 0 1 .447 1 .997v6.006z"/></symbol><symbol id="logo" viewBox="0 0 40 20"><path fill="#f6f7f7" style="fill:var(--color1, #f6f7f7)" d="m0 0 9.299 10.079c1.816-1.968 2.498-2.789 3.915-4.325v3.277l-3.915 4.198L1.75 5.04v14.961H0v-20z"/><path fill="#ffc935" style="fill:var(--color2, #ffc935)" d="M17.786 16.929H19.5c.5 0 .862.114 1.086.343.229.224.343.586.343 1.086v.214c0 .5-.114.864-.343 1.093-.224.224-.586.336-1.086.336h-3v-5h3.964v1h-2.679v.929zm1.857 1.428c0-.286-.143-.429-.429-.429h-1.429v1.071h1.429c.286 0 .429-.143.429-.429v-.214zM25.178 20h-3.964v-5h3.964v1h-2.679v.964h2.107v1h-2.107V19h2.679v1zm3.121 0h-1.286v-4h-1.5v-1h4.286v1h-1.5v4zm5.227-3.571c0-.286-.143-.429-.429-.429h-1.214c-.286 0-.429.143-.429.429v2.143c0 .286.143.429.429.429h1.214c.286 0 .429-.143.429-.429v-2.143zm1.285 2.142c0 .5-.114.864-.343 1.093-.224.224-.586.336-1.086.336h-1.786c-.5 0-.864-.112-1.093-.336-.224-.229-.336-.593-.336-1.093v-2.143c0-.429.023-.771.336-1.086.223-.225.414-.343 1.093-.343h1.786c.5 0 .862.114 1.086.343.229.224.343.586.343 1.086v2.143zM39.529 20h-1.286v-2.107h-1.786V20h-1.286v-5h1.286v1.893h1.786V15h1.286v5z"/><path fill="#ffd74a" style="fill:var(--color3, #ffd74a)" d="m27.624 5.077-.115.78H15.001V20h-1.954V5.856H9.263l3.784-4.348V-.001h1.954v1.377l12.623 3.699zM11.155 5.06h1.892V2.98l-1.892 2.08zm2.689 14.143h.36V5.856h-.36v13.347zm0-14.143h.36V2.072h-.36V5.06zm0-3.785h.36V.797h-.36v.478zm3.24 1.455-2.083-.521v2.247l2.083-1.726zm.664.463L15.524 5.06h4.091l-1.867-1.867zm1.238.111 1.531 1.531.822-.822-2.353-.71zm3.219.97-.785.785h3.389l-2.604-.785zm-9.158 14.929V20v-3.75 2.953zm1.954-2.997V20v-3.794z"/><path fill="#ffd74a" style="fill:var(--color3, #ffd74a)" d="M14.204 19.203h-.36V5.856h.36v13.347zm0-14.143h-.36V2.072h.36V5.06zm0-3.785h-.36V.797h.36v.478z"/><path fill="#ffc935" style="fill:var(--color2, #ffc935)" d="M26.441 10.17v-.348h.606V7.627h-.528V6.216h-.758l-.026 1.411h-.645v2.195h.567v.666c0 .216.175.392.392.392a.288.288 0 0 1 0 .576c-.107 0-.288-.196-.288-.196h-.784c0 .568.451.98 1.071.98a1.072 1.072 0 0 0 .391-2.068zm-.178-1.132h-.389v-.627h.389v.627z"/></symbol><symbol id="mobile-arrow-in-calculator" viewBox="0 0 28 32"><path d="M4.843.308A2.208 2.208 0 0 0 3.72 0C1.478 0 .665 2.963 2.592 4.109c6.52 3.879 15.435 9.216 16.452 9.989 1.623 1.235.956 3.075-.001 3.803-.605.46-9.796 5.978-16.47 9.972C.64 29.03 1.463 32 3.716 32c.398 0 .788-.107 1.13-.31l18.741-11.102c3.487-2.066 3.487-7.112 0-9.177L4.843.307z"/></symbol><symbol id="arrow-correct" viewBox="0 0 32 32"><path stroke-linejoin="round" stroke-linecap="round" stroke-width="2.667" d="M26.061 9.333 12.728 22.666l-6.061-6.061"/></symbol></defs></svg>