<svg aria-hidden="true" style="position:absolute;width:0;height:0;overflow:hidden" xmlns="http://www.w3.org/2000/svg"><defs><symbol id="architecture" viewBox="0 0 32 32"><path fill="none" stroke="#f6f7f7" style="stroke:var(--color1, #f6f7f7)" stroke-linejoin="round" stroke-linecap="square" stroke-width="2.133" d="m12.854 1.595 17.812 8.539m-16.082.896L1.6 17.066"/><path fill="#f6f7f7" style="fill:var(--color1, #f6f7f7)" d="M29.527 29.886V10.678L14.192 2.675v28.012h14.483c.226 0 .443-.084.602-.234s.25-.354.25-.566zm-4.482-13.22a3.087 3.087 0 0 0 .594-1.81c.009-.43-.077-.857-.251-1.256s-.434-.761-.763-1.065c-.329-.304-.721-.544-1.153-.705s-.894-.24-1.36-.232c-.698 0-1.379.191-1.959.549s-1.032.867-1.299 1.462c-.267.595-.337 1.25-.201 1.882s.472 1.212.965 1.668c.493.455 1.122.766 1.806.891s1.393.061 2.038-.185a3.489 3.489 0 0 0 1.583-1.2zm-6.341 3.601h6.933v10.4h-2.133V22.4h-2.667v8.267h-2.133v-10.4z"/><path fill="#ffc935" style="fill:var(--color2, #ffc935)" d="M25.044 16.666a3.086 3.086 0 0 0 .594-1.809c.009-.43-.077-.857-.251-1.256s-.434-.761-.763-1.065c-.329-.304-.721-.544-1.153-.704s-.894-.24-1.36-.232c-.698 0-1.379.191-1.959.549s-1.032.867-1.299 1.462c-.267.595-.337 1.25-.201 1.882s.472 1.212.965 1.668c.493.456 1.122.766 1.806.891s1.393.061 2.038-.185a3.489 3.489 0 0 0 1.583-1.2z"/><path fill="#f6f7f7" style="fill:var(--color1, #f6f7f7);stroke:var(--color1, #f6f7f7)" stroke="#f6f7f7" stroke-width="2.133" d="M27.733 1.6v7.467l-4.267-2.133V1.601h4.267z"/><path fill="none" stroke="#f6f7f7" style="stroke:var(--color1, #f6f7f7)" stroke-linejoin="round" stroke-linecap="square" stroke-width="2.133" d="M1.06 30.686h29.878"/><path fill="#f6f7f7" style="fill:var(--color1, #f6f7f7)" d="M2.668 30.029V16.482l12.799-5.815v20.265H3.468c-.107.007-.214-.011-.314-.054s-.191-.109-.266-.194c-.076-.085-.134-.188-.172-.301s-.054-.233-.048-.354zm10.186-9.63h-6.4v6.4h6.4v-6.4z"/></symbol><symbol id="bricks_wall" viewBox="0 0 32 32"><path fill="#f6f7f7" style="fill:var(--color1, #f6f7f7)" d="M9 17.933v-5H0v6h9v-1z"/><path fill="#ffc935" style="fill:var(--color2, #ffc935)" d="M31 12.933h-8v6h9v-6h-1z"/><path fill="#f6f7f7" style="fill:var(--color1, #f6f7f7)" d="M12 12.933h-1v6h10v-6h-9zm-7-1.999h10v-6H5v6zm12-.001h10v-6H17v6z"/><path fill="#ffc935" style="fill:var(--color2, #ffc935)" d="m14 20.933-9 .047v5.953h10v-6h-1z"/><path fill="#f6f7f7" style="fill:var(--color1, #f6f7f7)" d="M26 20.933h-9v6h10v-6h-1z"/></symbol><symbol id="calendar-reserved" viewBox="0 0 32 32"><path fill="#f6f7f7" style="fill:var(--color1, #f6f7f7)" d="M30.524 8.62H.942V6.341c0-.426.501-.76 1.138-.76h3.413v1.52h2.276v-1.52h15.929l.036 1.544h2.24V5.581h3.413c.637 0 1.138.334 1.138.76V8.62zM13.458 22.616 5.835 17.51l1.593-1.064 6.03 4.012 10.581-7.051 1.593 1.064-12.174 8.145zM29.387 4.061h-3.413v-1.52h-2.276v1.52H7.769v-1.52H5.493v1.52H2.08c-1.889 0-3.413 1.018-3.413 2.279v22.034H32.8V6.34c0-1.261-1.525-2.279-3.413-2.279z"/><path fill="#ffc935" style="fill:var(--color2, #ffc935)" d="M5.494 7.101V2.542H7.77v4.559H5.494zm18.2 0V2.542h2.276v4.559h-2.276z"/></symbol><symbol id="computer_construction" viewBox="0 0 32 32"><path fill="#ffc935" style="fill:var(--color2, #ffc935)" d="M24.888 28.761s-3.684-1.033-4.13-2.388c0-.123 0-.246-.112-.246h-9.938c0 .123 0 .246-.112.246-.335 1.355-4.03 2.51-4.03 2.51v2.172l18.321.101v-2.395z"/><path fill="#f6f7f7" style="fill:var(--color1, #f6f7f7)" d="M28.016.907H.101v23.449h31.264V.907h-3.35zm-3.35 17.866H6.801c-.67 0-1.117-.447-1.117-1.117s.447-1.117 1.117-1.117h.223v-.223c0-2.01.67-3.796 1.787-5.36l1.34 3.858 1.869-.721-1.534-5.481c0-.335.223-.67.558-.893a10.404 10.404 0 0 1 9.268 0c.335.223.558.558.558.893l-1.569 5.481 1.955.721 1.289-3.858c1.117 1.563 1.787 3.35 1.787 5.36v.223h.335c.67 0 1.117.447 1.117 1.117s-.447 1.117-1.117 1.117z"/></symbol><symbol id="concrete-truck" viewBox="0 0 32 32"><path fill="#f6f7f7" style="fill:var(--color1, #f6f7f7)" d="M30 17.848 25.47 11H19v9.4c-.8.3-1.5.9-2 1.6h-2l-.07-2.72c.1-.1.23-.15.33-.25l2.64-6.53c.1-.3.1-.7-.1-1-1.3-1.8-3.4-3.4-5.9-4.4-.9-.3-1.8-.5-2.6-.7L4 19.2V21c-1.2.9-2 2.3-2 4 0 2.8 2.2 5 5 5s5-2.2 5-5c0-.3 0-.7-.1-1h4.2c-.1.3-.1.7-.1 1 0 2.8 2.2 5 5 5s5-2.2 5-5h4v-7.152zM7 28c-1.7 0-3-1.3-3-3s1.3-3 3-3 3 1.3 3 3-1.3 3-3 3zm14-15h3.5l2.7 4h-.9c-1 0-1.9-.6-2.3-1.4-.3-.4-.6-.6-1-.6h-2v-2zm0 15c-1.7 0-3-1.3-3-3s1.3-3 3-3 3 1.3 3 3-1.3 3-3 3z"/><path fill="#ffc935" style="fill:var(--color2, #ffc935)" d="M7.44 6.1c-.9-.1-1.8-.1-2.6.1-.4 0-.7.3-.8.6l-2.7 6.7c-.1.3-.1.7.1 1 .5.7 1.1 1.3 1.8 1.9 3.247 2.032 5.183 2.641 8.8 3.034.9.1 1.8.1 2.6-.1.4 0 .7-.3.8-.6l2.7-6.7c.1-.3.1-.7-.1-1-.5-.7-.946-1.338-1.8-1.9-3.18-2.094-5.141-2.645-8.8-3.034z"/></symbol><symbol id="construction-design" viewBox="0 0 32 32"><path fill="#f6f7f7" style="fill:var(--color1, #f6f7f7)" d="m24.607 9.108 4.379 5.313c.042.05.068.113.075.178l.011.1.227 2.06.043.388.01.094.013.12.008.07a.338.338 0 0 1-.054.224.333.333 0 0 1-.126.205l-.266.205 1.03 1.658-.535.43-.059-.061a12.192 12.192 0 0 1-.406-.455l-.89-.908-.135.104a.337.337 0 0 1-.47-.054l-5.654-6.944-.174.218a.34.34 0 0 1-.53 0l-.174-.218-5.654 6.944a.34.34 0 0 1-.47.054l-.135-.104-1.162 1.186-.019.018-.183.213-.513-.411.012-.02 1.008-1.648-.268-.207a.341.341 0 0 1-.127-.212.344.344 0 0 1-.05-.216l.031-.284.043-.388.226-2.06.011-.1a.337.337 0 0 1 .075-.178l4.692-5.692-.056-.07a.34.34 0 0 1-.074-.212v-.017a.346.346 0 0 1-.017-.106V6.074H8.625V27.75l-.881-.046-.121-.005a24.977 24.977 0 0 0-1.888 0c-.551.022-1.119.066-1.612.148-.519.086-.853.198-1.008.297a1.21 1.21 0 0 0-.329.28c-.077.098-.17.253-.27.526 1.079.798 3.65.901 4.596.867l.012.339v-.339h24.76V6.073h-7.442v2.251a.338.338 0 0 1-.02.114v.009a.34.34 0 0 1-.074.212l-.054.068.314.381z"/><path fill="#f6f7f7" style="fill:var(--color1, #f6f7f7);stroke:var(--color2, #ffc935)" stroke="#ffc935" stroke-width="6.667" d="M3.448 6.245c.2-.056.429-.102.681-.137v17.09c-.254.031-.522.072-.795.125V6.279l.115-.034z"/><path fill="#f6f7f7" style="fill:var(--color1, #f6f7f7)" d="M23.789 5.764v2.339a.259.259 0 0 1-.058.162l-2.137 2.599a.273.273 0 0 1-.418 0l-2.137-2.599a.255.255 0 0 1-.058-.162V3.684h1.602V2.125h1.602v1.559h1.602v2.08zm-1.51 1.764c.007-.487-.406-.877-.893-.87-.48.007-.876.366-.869.87.007.498.395.84.869.846a.869.869 0 0 0 .893-.846z"/></symbol><symbol id="construction-worker" viewBox="0 0 32 32"><path fill="#f6f7f7" style="fill:var(--color1, #f6f7f7)" d="M14.573 20.599c-1.491-.213-3.645-1.262-3.645-1.262-4.323 1.054-9.364 3.527-9.364 6.761v5.534h7.999v-8.799h1.6v8.799h9.599v-8.799h1.6v8.799h7.999v-5.534c0-3.235-4.733-5.707-9.055-6.761 0 0-2.292 1.056-3.867 1.262-1.109.145-1.757.158-2.865 0z"/><path fill="#ffc935" style="fill:var(--color2, #ffc935)" d="M16.762.368c.854.11 1.663.39 2.4.785v3.283h1.6V2.277c.987.881 1.728 1.951 2.11 2.972a4.95 4.95 0 0 1-.1 1.14 7.609 7.609 0 0 1-.545 1.68l-.011.023-.21.383s.189.104.406.212.343.165.343.165.184-.276.285-.477c.084-.167.137-.282.202-.454a8.47 8.47 0 0 0 .443-1.654c.685.896 1.075 1.825 1.075 2.627 0 2.551-3.939 2.86-8.799 2.86s-8.799-.308-8.799-2.86c0-.752.453-1.711 1.06-2.554-.026.717.229 1.812.712 2.477l.629-.462c-.906-.989-.645-2.133-.356-3.087a7.56 7.56 0 0 1 .71-1.604l.013-.022.003-.005.011-.018a8.598 8.598 0 0 1 1.218-1.344v2.226h1.6v-3.35a6.975 6.975 0 0 1 2.4-.785v2.468h1.6V.366z"/><path fill="#f6f7f7" style="fill:var(--color1, #f6f7f7)" d="M10.408 12.034a5.6 5.6 0 0 0 5.582 5.152c3.092 0 5.525-2.358 5.749-5.237l1.45-.362a7.199 7.199 0 1 1-14.398 0l1.617.447z"/></symbol><symbol id="contract-line" viewBox="0 0 32 32"><path fill="#f6f7f7" style="fill:var(--color1, #f6f7f7)" d="M25.747 15.834v14.658H0V1.067h25.747v7.515l-9.974 9.94-1.182 4.407a.327.327 0 0 0 .236.421.336.336 0 0 0 .178-.007l4.394-1.18 6.348-6.327zM4.414 4.767v-.859h17.862v1.718H4.414v-.859zm0 8.588v-.859h9.366v1.718H4.414v-.859zM19.536 9.92l1.499-1.718H4.414V9.92h15.122zm-9.291 16.395a2.658 2.658 0 0 0 2.357.885h8.377a.75.75 0 0 0 0-1.502h-8.377c-.978-.017-.804-.866-.667-1.129a4.24 4.24 0 0 0 .415-.982 1.272 1.272 0 0 0-.661-1.42 2.041 2.041 0 0 0-2.405.555c-.369.381-.882.964-1.374 1.531.304-1.191.698-2.718 1.084-4.208a1.411 1.411 0 0 0-.811-1.745 1.527 1.527 0 0 0-1.905.851c-.424.816-3.53 6.029-4.087 6.964l-.085.143a.743.743 0 0 0-.083.569.745.745 0 0 0 .344.462.756.756 0 0 0 1.031-.259l.054-.091c.428-.718 3.07-5.148 3.938-6.689-.696 2.684-1.462 5.67-1.507 5.939a.932.932 0 0 0 .437 1.041.988.988 0 0 0 1.187-.241c.135-.122.389-.413 1.027-1.155.595-.7 1.205-1.388 1.828-2.062.234-.247.376-.137.238.105a2.455 2.455 0 0 0-.355 2.441z"/><path fill="#ffc935" style="fill:var(--color2, #ffc935)" d="m30.83 10.318-.481-.481 1.116-1.236-2.379-2.19-12.884 12.862-.77 2.889a.22.22 0 0 0 .053.219.216.216 0 0 0 .219.052l2.879-.779 10.751-10.751.454.455a.332.332 0 0 1 .1.242.348.348 0 0 1-.1.242l-3.649 3.651 1.041 1.04 3.649-3.651a1.813 1.813 0 0 0 0-2.564v.001z"/></symbol><symbol id="crane" viewBox="0 0 32 32"><path fill="none" stroke="#ffc935" style="stroke:var(--color2, #ffc935)" stroke-linejoin="round" stroke-linecap="square" stroke-width="1.6" d="M25.362 24.547a2.543 2.543 0 0 0 .879 1.925 2.51 2.51 0 0 0 2.026.579c.527-.097 1.008-.363 1.372-.758s.591-.898.647-1.434-.062-1.075-.336-1.538a2.48 2.48 0 0 0-1.185-1.029 1.574 1.574 0 0 1-.912-1.502V9.507"/><path fill="#f6f7f7" style="fill:var(--color1, #f6f7f7)" d="M1.295 10.355c-.111.007-.831 0-.831 0s-.006-.723.001-.835v-.918a1.106 1.106 0 0 1 .747-1.085l5.892-2.17V.232l4.149.774a1.078 1.078 0 0 1 .829 1.002v3.339l19.087 2.337a.967.967 0 0 1 .83.919v1.753H12.082v21.621H7.103V10.356H1.294z"/></symbol><symbol id="diamond-drill" viewBox="0 0 44 32"><path fill="#f6f7f7" style="fill:var(--color1, #f6f7f7)" d="M23.27 13.731c.092-.121.169-.255.235-.387.187-.377.339-.87.462-1.424.247-1.112.391-2.548.417-3.986s-.065-2.902-.299-4.07c-.117-.583-.273-1.11-.478-1.528-.098-.2-.375-.572-.516-.734l17.279.181c2.891.553 5.264 7.022 1.178 11.559l-18.277.387z"/><path fill="#f6f7f7" style="fill:var(--color1, #f6f7f7)" d="M22.443 13.554s-2.125-1.563-2.125-6.159c0-5.057 1.879-5.791 1.879-5.791.375.077.611.574.737 1.058.155.594.228.818.338 1.365.219 1.09.309 2.491.283 3.893s-.166 2.779-.398 3.822c-.116.524-.251.944-.396 1.236-.158.32-.319.576-.319.576z"/><path fill="#ffd74a" style="fill:var(--color3, #ffd74a)" d="M.033 20.903h39.56l-.414-4.543H.033v4.543zM22.469 5.682l-4.242.258.181 4.336 4.268-.232s.499-1.648.362-2.684c-.091-.689-.569-1.678-.569-1.678z"/><path fill="#f6f7f7" style="fill:var(--color1, #f6f7f7)" d="M19.511 4.758S5.332 4.89 3.353 5.832c-.672.32-1.294.732-1.621.961a.773.773 0 0 0-.308.464C1.141 8.505.366 12.6.366 12.6l3.2 5.867 4.867 1.3 2.7-4.3 5.433-3.233 2.944-.601V4.759zM38.248 22.31v6.311l4.139 2.375.983-.981V14.271h-4.811l-.033 1.532a16.43 16.43 0 0 0-1.364.456l.552 4.646h-1.691v.585l1.798.827v-.005h.427z"/><path fill="#ffd74a" style="fill:var(--color3, #ffd74a)" d="M38.662 26.684H32.79v1.11s5.872-.041 5.872 0v-1.11z"/><path fill="#ffd74a" style="fill:var(--color3, #ffd74a)" d="m39.735 26.027-1.367.383c-.249.637-.159.882 0 1.555l1.583.359c.329-.949.185-1.832-.216-2.297z"/></symbol><symbol id="foundation-Stone" viewBox="0 0 32 32"><path fill="#f6f7f7" style="fill:var(--color1, #f6f7f7)" d="M16.525 19.775V15.75l6.45-3.225v4.025l-6.45 3.225z"/><path fill="#f6f7f7" style="fill:var(--color1, #f6f7f7)" d="M24.05 11.975v3.95L30 13.1V9.65c.007-.452-.035-.646-.325-.775L16.025 1.85s-13.223 6.623-13.6 6.9-.424.495-.4.925v3.375l6 3v-4.1l-3.975-2L16.025 4l12.05 5.975-4.025 2z"/><path fill="#f6f7f7" style="fill:var(--color1, #f6f7f7)" d="M9 16.55v-4.025l6.55 3.225v4.025L9 16.55zm-4 2.975v-4l5.975 2.95v4.05l-5.975-3zm-.95-4.5-2.025-1v4.05l2.025.975v-4.025zM2.025 19.05l6 2.975v4.05l-5.6-2.8c-.294-.137-.4-.372-.4-.75V19.05zM9 26.55v-4.025l6.55 3.25v4.3L9 26.55zM12 23v-3.95l3.55 1.75v4L12 23zm4.525 1.8v-4L20 19.05V23l-3.475 1.8zm0 5.275v-4.3l6.45-3.25v4.025l-6.45 3.525zm4.525-11.6v4.05l5.925-2.95v-4.05l-5.925 2.95zM30 18.1l-2.013.95v-4.038L30 14v4.1zM24.05 26v-4L30 19.05v3.35c0 .464-.078.699-.575.925L24.05 26z"/><path fill="#ffc935" style="fill:var(--color2, #ffc935)" d="M16.023 5.312 6.69 10.049l9.333 4.69 9.309-4.69-9.309-4.737z"/></symbol><symbol id="grinding-machine" viewBox="0 0 32 32"><path fill="#f6f7f7" style="fill:var(--color1, #f6f7f7)" d="M16.394 23.356H5.867c-.849 0-1.539-.703-1.539-1.566V10.823c0-.864.69-1.566 1.539-1.566h10.527c.848 0 1.539.702 1.539 1.566v1.494a.88.88 0 0 0-.332-.05h-6.935a.524.524 0 0 0-.532.516v6.968c0 .285.238.516.532.516h6.935a.544.544 0 0 0 .332-.112v1.635c0 .864-.69 1.566-1.539 1.566z"/><path fill="#f6f7f7" style="fill:var(--color1, #f6f7f7)" d="M18.134 12.8v1.6l8.164-11.508h.328a.516.516 0 0 0 .511-.52V.806a.516.516 0 0 0-.511-.52h-1.598a.507.507 0 0 0-.41.21l-7.606 10.448a.528.528 0 0 0-.1.309s-1.222 1.012 0 1.012 1.222.267 1.222.533z"/><path fill="#ffc935" style="fill:var(--color2, #ffc935)" d="M17.422 17.243a.52.52 0 0 1-.112-1.027c1.192-.274 2.067-.872 2.6-1.777 1.146-1.945.416-4.716.409-4.744-.041-.152-.012-.316.079-.443s.234-.207.389-.214c1.237-.059 2.088-.423 2.527-1.083.698-1.048.194-2.571.189-2.587-.052-.153-.031-.322.056-.456s.231-.221.389-.233c3.3-.245 3.756-2.054 3.774-2.131.064-.277.336-.454.608-.392s.447.331.39.61c-.021.102-.53 2.393-4.099 2.886.127.71.194 1.895-.458 2.879-.546.825-1.464 1.325-2.732 1.492.181 1.038.38 3.203-.643 4.945-.682 1.161-1.777 1.922-3.254 2.262a.49.49 0 0 1-.113.013z"/><path fill="#f6f7f7" style="fill:var(--color1, #f6f7f7)" d="M15.474 26.03H6.786a.516.516 0 0 1-.511-.52v-2.675c0-.287.229-.52.511-.52h8.688c.282 0 .511.233.511.52v2.675c0 .287-.229.52-.511.52zm-8.177-1.039h7.666v-1.635H7.297v1.635zM29.774 30.4H.511c-.282 0-.511-.233-.511-.52s.229-.52.511-.52h29.263c.282 0 .511.233.511.52s-.229.52-.511.52z"/><path fill="#f6f7f7" style="fill:var(--color1, #f6f7f7)" d="M3.487 28.8h15.289c1.032 0 1.871-.854 1.871-1.904s-.839-1.905-1.871-1.905H3.487c-1.032 0-1.871.854-1.871 1.905S2.455 28.8 3.487 28.8z"/><path fill="#ffc935" style="fill:var(--color2, #ffc935)" d="M11.541 19.733h5.184c.483 0 .875-.588.875-1.313v-4.308c0-.725-.392-1.313-.875-1.313h-5.184c-.483 0-.875.588-.875 1.313v4.308c0 .725.392 1.313.875 1.313zm-4.283 1.369h-.73c-.282 0-.511-.233-.511-.52s.229-.52.511-.52h.73c.282 0 .511.233.511.52s-.229.52-.511.52z"/><path fill="#f6f7f7" style="fill:var(--color1, #f6f7f7)" d="M31.489 3.179h-4.864a.516.516 0 0 1-.511-.52V.519c0-.287.229-.52.511-.52h4.864c.282 0 .511.233.511.52v2.14c0 .287-.229.52-.511.52zM19.587 24.19a.504.504 0 0 1-.363-.155.526.526 0 0 1 .005-.735l1.128-1.133c.201-.202.524-.2.722.005s.196.533-.005.735l-1.128 1.133c-.1.1-.229.15-.359.15zm2.118.724a.51.51 0 0 1-.445-.264.525.525 0 0 1 .193-.708l2.705-1.558c.246-.141.557-.053.696.196s.052.567-.193.708l-2.705 1.558a.5.5 0 0 1-.251.067zm.787 1.966a.522.522 0 0 1-.15-1.017l1.608-.504c.269-.084.555.069.638.344s-.068.565-.338.65l-1.608.504a.488.488 0 0 1-.15.023z"/></symbol><symbol id="handshake" viewBox="0 0 32 32"><path fill="#f6f7f7" style="fill:var(--color1, #f6f7f7)" d="m20.8 6.95-5.643-1.436c-2.374-.745-3.918.555-4.334.972-.243.243-.429.499-.524.722l-2.644 6.22c-.151.356-.1.83.138 1.303.34.675.952 1.162 1.685 1.337.82.196 1.669-.07 2.335-.735a2.42 2.42 0 0 0 .409-.528l.889-1.649c.146-.273.358-.556.582-.78.327-.327.85-.635.85-.635l8.733 8.656c.248.248.196.718-.114 1.028s-.78.362-1.028.115l-2.403-2.429-.876.855 2.366 2.487c.247.247.196.717-.114 1.026-.31.31-.781.362-1.027.115l-2.446-2.387-.808.842 2.341 2.458c.247.247.194.718-.115 1.027s-.779.362-1.027.114l-2.432-2.358-.833.783 2.352 2.488c.248.248.195.718-.114 1.028-.311.31-.781.362-1.028.114l-2.385-2.387c.341-.512.248-1.255-.257-1.762-.566-.566-1.437-.618-1.941-.112.504-.505.454-1.375-.113-1.941s-1.437-.618-1.941-.114c.504-.504.453-1.373-.115-1.939-.566-.568-1.435-.619-1.941-.115.505-.504.453-1.373-.114-1.941-.53-.53-1.321-.603-1.835-.198l-4.295-4.327s-.228.212-.48.464-.385.392-.385.392l4.237 4.373-1.142 1.142c-.504.503-.453 1.372.115 1.941.566.566 1.435.618 1.94.114-.505.505-.453 1.373.114 1.941.566.566 1.436.619 1.941.114-.505.505-.454 1.373.114 1.94s1.437.619 1.941.115c-.504.503-.453 1.372.114 1.94.567.566 1.435.618 1.941.114l1.206-1.206 2.369 2.368c.756.756 2.035.703 2.853-.114.399-.399.612-.908.642-1.412a2.178 2.178 0 0 0 1.412-.643c.399-.399.614-.908.644-1.412a2.19 2.19 0 0 0 1.412-.642c.399-.4.613-.908.642-1.413a2.17 2.17 0 0 0 1.413-.643c.818-.818.868-2.098.114-2.853l-.999-.999 4.634-4.52-7.024-7.017z"/><path fill="#ffc935" style="fill:var(--color2, #ffc935)" d="M31.074 8.979s-3.191-3.189-5.226-5.226c-.328-.328-.937-.901-.937-.901s-.453.466-.89.901l-1.827 1.826c-.455.451-.898.92-.898.92s.425.436.898.906l5.227 5.227c.251.251.91.926.91.926s.664-.673.917-.926l1.826-1.826c.245-.245.925-.935.925-.935s-.666-.633-.925-.892zm-2.743 2.661a1.06 1.06 0 1 1 0-2.12 1.06 1.06 0 0 1 0 2.12z"/></symbol><symbol id="house-plumbing-water" viewBox="0 0 32 32"><path fill="#f6f7f7" style="fill:var(--color1, #f6f7f7)" d="M24.38 9.129V3.153h-3.854v2.946l-4.479-3.497L1 14.113l2.288 2.204 2.32-1.79v14.871H26.37V14.637l2.283 1.79 2.348-2.148-6.62-5.15zM12.022 24.464c-1.678 0-3.033-.966-3.033-2.155 0-.282.112-.564.189-.774.05-.133 2.873-4.231 2.873-4.231v-.036l2.738 4.231s.239.354.267.81c0 1.194-1.355 2.155-3.033 2.155zm8.879-6.774c.007.049.011.099.011.15v8.558c0 .347-.167.663-.434.891a1.614 1.614 0 0 1-1.043.371c-.813 0-1.478-.567-1.478-1.262V17.84c0-.051.004-.101.011-.15-1.077-.46-1.816-1.411-1.816-2.51 0-1.188.864-2.203 2.084-2.612v2.612h2.399v-2.612c1.218.409 2.082 1.424 2.082 2.612 0 1.099-.74 2.05-1.816 2.51z"/><path fill="#ffc935" style="fill:var(--color2, #ffc935)" d="M8.989 22.309c0 1.189 1.355 2.155 3.033 2.155s3.033-.961 3.033-2.155c-.03-.321-.105-.497-.267-.81l-2.738-4.231s-2.823 4.134-2.873 4.267a1.748 1.748 0 0 0-.189.774z"/></symbol><symbol id="local" viewBox="0 0 32 32"><path fill="#ffc935" style="fill:var(--color2, #ffc935)" d="M22.651 31.17c.879-.307 1.348-.668 1.348-1.037.02-.246-.174-.491-.569-.72s-.984-.436-1.73-.61-1.636-.312-2.616-.404A32.018 32.018 0 0 0 16 28.266c-1.582 0-3.129.109-4.444.315s-2.341.497-2.946.838-.764.716-.455 1.078c.309.362 1.071.695 2.189.956s2.544.439 4.096.511c1.552.072 3.16.035 4.622-.106s2.711-.38 3.59-.687z"/><path fill="#f6f7f7" style="fill:var(--color1, #f6f7f7);stroke:var(--color1, #f6f7f7)" stroke="#f6f7f7" stroke-linejoin="round" stroke-width="2.133" d="M25.867 12.667c0-5.523-4.477-10-10-10s-10 4.477-10 10c0 8.667 10 16.667 10 16.667s10-8 10-16.667zm-3.536.133a6.465 6.465 0 1 1-12.93 0 6.465 6.465 0 0 1 12.93 0z"/></symbol><symbol id="modern-building" viewBox="0 0 32 32"><path fill="#f6f7f7" style="fill:var(--color1, #f6f7f7)" d="M23.083 12.562V9.74l.935.11V7.735L12.729 6.007 0 8.43v2.473l1.18-.164v6.872h3.423v6.414l16.25 1.969 2.875-.348v-8.232l5.107.016v7.596l2.373-.287V14.701l.792.039v-1.504l-8.917-.674zm-1.149-1.845v2.475l-3.401.063v-2.884l3.401.346zm-18.986.404 7.719-.979v5.51l-7.719.256v-4.787zm3.171 11.444V17.61h3.182v5.244l-3.182-.289zm3.991.344v-5.301h2.618v-.01h1.063v5.645l-3.681-.334zm4.457.437V17.6l4.287.001v6.137l-4.287-.392z"/><path fill="#ffc935" style="fill:var(--color2, #ffc935)" d="m10.667 10.142-7.719.979v4.787l7.719-.256v-5.51z"/></symbol><symbol id="mood_happy_solid" viewBox="0 0 32 32"><path fill="#f6f7f7" style="fill:var(--color1, #f6f7f7)" d="M16 32A15.997 15.997 0 0 1 0 16 15.997 15.997 0 0 1 16 0a15.997 15.997 0 0 1 16 16 15.997 15.997 0 0 1-16 16zm-5.6-17.6a2.4 2.4 0 1 0 0-4.799 2.4 2.4 0 0 0 0 4.799zm11.2 0a2.4 2.4 0 1 0 0-4.799 2.4 2.4 0 0 0 0 4.799zm3.456 4.8H6.944A9.603 9.603 0 0 0 16 25.614a9.6 9.6 0 0 0 9.056-6.414z"/><path fill="#ffc935" style="fill:var(--color2, #ffc935)" d="M6.944 19.2h18.112A9.603 9.603 0 0 1 16 25.614 9.6 9.6 0 0 1 6.944 19.2z"/></symbol><symbol id="paint-brush" viewBox="0 0 32 32"><path fill="#f6f7f7" style="fill:var(--color1, #f6f7f7)" d="M26.667 4h-1.579V1.333s-2.93.003-3.755 0H1.335l-.001 8h19.999c.824-.003 3.755 0 3.755 0V6.666h1.579A1.33 1.33 0 0 1 28 8v4a1.333 1.333 0 0 1-1.333 1.333h-8a4.003 4.003 0 0 0-4 4h-2.666v13.333H20V17.333h-2.666A1.333 1.333 0 0 1 18.667 16h8a4.003 4.003 0 0 0 4-4V8a4.003 4.003 0 0 0-4-4z"/><path fill="#ffc935" style="fill:var(--color2, #ffc935)" d="M5.615 12.43c-.106-.153-.968-1.271-.968-1.271s-.823 1.118-.929 1.271L1.86 15.498a3.66 3.66 0 0 0-.521 1.905 3.203 3.203 0 0 0 2.996 3.37h.666a3.202 3.202 0 0 0 2.996-3.37 3.68 3.68 0 0 0-.52-1.905l-1.86-3.068z"/></symbol><symbol id="plan" viewBox="0 0 32 32"><path fill="#f6f7f7" style="fill:var(--color1, #f6f7f7)" d="M-1.6 25.363V5.896h35.199v19.467H21.868l8.43-3.336.128-.053.983-.406c.698-.289 1.196-.8 1.309-1.491.105-.648-.165-1.25-.531-1.685-.726-.866-2.137-1.452-3.55-.9l-.033.013V9.501a.533.533 0 0 0-.533-.533H3.763a.533.533 0 0 0-.533.533v11.874c0 .295.239.533.533.533h13.8l-4.71 1.883-.122.13c-.346.369-.845.936-1.284 1.443H-1.601zm19.119 0h-2.43l-.461-.559 7.245-2.896h4.378l-8.732 3.456zm11.086-4.387.048-.019-.048-.057v.076zm-1.6-2.843v-.093h-3.211v1.377l3.211-1.284zm-2.375 2.673 2.374-.949v.949H24.63zm-2.436-.75v-6.01l-5.4-.054v-3.924H13.18V14H8.649v3.023h4.531v3.782h7.141l1.874-.749zM4.83 10.069v2.83h6.749v-2.83H4.83zm13.563 0v2.838l3.8.038v-2.876h-3.8zm8.612 0h-3.211v6.869h3.211v-6.869zM11.579 20.806v-2.68H4.83v2.68h6.749zM4.83 17.024h2.218v-3.023H4.83v3.023zm24.389 1.958-.102.04 1.098 1.309.582-.241c.327-.135.34-.261.341-.269.007-.045-.002-.192-.177-.4-.354-.421-1.062-.704-1.742-.438z"/><path fill="#ffc935" style="fill:var(--color2, #ffc935)" d="M11.084 27.069s1.513-1.784 2.258-2.579l14.473-5.786 1.14-.445c2.093-.817 4.238 1.738 2.175 2.592-1.116.462-1.125.464-1.125.464l-14.539 5.753h-4.382z"/></symbol><symbol id="shovel" viewBox="0 0 32 32"><path fill="#f6f7f7" style="fill:var(--color1, #f6f7f7)" d="M17.283 20.617c-.091-1.582-.406-3.115-.897-4.261-.101-.235-.456-.985-.456-.985l-2.996 1.318-1.384-3.158-1.15.491L6.661 5.29a3.764 3.764 0 0 0 1.112-1.518A3.756 3.756 0 0 0 7.739.88c-.11-.256-.519-.928-.519-.928L.4 2.822s.268.744.391 1.033A3.753 3.753 0 0 0 2.86 5.876a3.772 3.772 0 0 0 1.866.243l3.739 8.732-1.115.511 1.297 3.164-3.017 1.246s.283.766.393 1.022c.687 1.605 2.158 3.482 3.84 4.9l.214.177a6.976 6.976 0 0 1 4.312-2.307 8.096 8.096 0 0 1 2.894-2.946zM3.643 3.92a1.807 1.807 0 0 1-.161-.074l2.395-1.025a1.663 1.663 0 0 1-.952 1.085 1.666 1.666 0 0 1-1.282.015z"/><path fill="#ffc935" style="fill:var(--color2, #ffc935)" d="M31.379 30.823a4.343 4.343 0 0 0-4.064-3.145 6.015 6.015 0 0 0-5.999-6.34 5.998 5.998 0 0 0-5.68 4.048 4.877 4.877 0 0 0-5.319 4.851c0 .348.082 1.762.082 1.762h21.09s-.032-.898-.111-1.176z"/></symbol><symbol id="teenyicons_house" viewBox="0 0 32 32"><path fill="#f6f7f7" style="fill:var(--color1, #f6f7f7)" d="M16.619.198a1.065 1.065 0 0 0-1.238 0L.448 10.865a1.076 1.076 0 0 0-.448.868v19.2a1.066 1.066 0 0 0 1.066 1.066h3.2V17.066h10.667v14.933h16a1.066 1.066 0 0 0 1.066-1.066v-19.2a1.063 1.063 0 0 0-.448-.868L29.866 9.66V3.734h-3.733v3.87L16.618.199zM23.467 25.6v-8.533H25.6V25.6h-2.133z"/><path fill="#ffc935" style="fill:var(--color2, #ffc935)" d="M12.8 32v-6.4h-2.133v-2.133H12.8V19.2H6.4V32h6.4z"/></symbol><symbol id="theodolite" viewBox="0 0 32 32"><path fill="#f6f7f7" style="fill:var(--color1, #f6f7f7)" d="M12.48 0h-1.6v16h10.24V0h-8.64zm3.513 4.8h.006a3.2 3.2 0 1 1-.006 0zM8.377 6.48a1.54 1.54 0 0 0-1.429.954 1.562 1.562 0 0 0-.117.592v12.373h5.53v4.32h.669l-1.951 7.28h2.318l1.951-7.28h1.305l1.951 7.28h2.319l-1.951-7.28h.669v-4.32h5.53V8.026a1.54 1.54 0 0 0-.954-1.429 1.562 1.562 0 0 0-.592-.117h-1.222l-.01 10.795H9.602V6.48H8.38z"/><path fill="#ffc935" style="fill:var(--color2, #ffc935)" d="M12.48 0h8.64v16H10.88V0h1.6zM16 4.8h-.006a3.202 3.202 0 0 0-2.257 5.463A3.2 3.2 0 1 0 16 4.8z"/></symbol><symbol id="wheelbarrow" viewBox="0 0 32 32"><path fill="#f6f7f7" style="fill:var(--color1, #f6f7f7)" d="M29.5 13.1S18.808 7.084 11.9 3.2c-.435-.244-1.1-.65-1.1-.65s-.3.85-.4 1.15l-.3.8-4.417-2.766s-.207.325-.483.766-.508.8-.508.8L9.5 6.4 7 13.3l-4.233 6.734 1.5 1.067 9.533-2.6 5.3 3.2.2.8c-.7.3-1.3.9-1.7 1.5-1.1 1.9-.5 4.4 1.4 5.5.6.4 1.3.6 2.1.6.3 0 .6 0 1-.1 1-.3 1.9-.9 2.5-1.8 1.1-1.9.5-4.4-1.4-5.5-.6-.4-1.2-.5-1.9-.6l-.1-.6 8.6-6.6c.3-.2 1.208-.891 1.208-.891s-1.208-.709-1.508-.909zM6.2 18.4l2-3.3 3.2 1.9-5.2 1.4zM22 24.3c.9.6 1.3 1.8.7 2.8-.3.5-.7.8-1.2.9s-1 0-1.5-.2c-.9-.6-1.3-1.8-.7-2.8.1-.2.2-.3.4-.4l.4 1.7c.1.5.5.8 1 .8h.2c.5-.1.9-.6.8-1.2l-.4-1.7c.1 0 .2 0 .3.1z"/><path fill="#ffc935" style="fill:var(--color2, #ffc935)" d="M19.3 22.5c.719-.344 1.205-.445 2-.4.777.045 1.238.192 1.9.6a4.067 4.067 0 0 1 1.4 5.5c-.6.9-1.5 1.5-2.5 1.8-.4.1-.7.1-1 .1-.8 0-1.5-.2-2.1-.6-1.9-1.1-2.5-3.6-1.4-5.5.4-.6.901-1.118 1.7-1.5zm3.4 4.6c.6-1 .2-2.2-.7-2.8-.1-.1-.2-.1-.3-.1l.631 2.655-1.985.49L19.7 24.6c-.186.134-.313.256-.4.4-.542.9-.278 2.198.7 2.759.513.294 1 .341 1.5.241s.9-.4 1.2-.9z"/></symbol><symbol id="since" viewBox="0 0 107 32"><path fill="#f6f7f7" style="fill:var(--color1, #f6f7f7)" d="M16.347 26.9c0 2.384-1.165 3.576-3.495 3.576H3.018V24.34h2.763v3.373h7.314V24.34l-6.664-4.185c-.677-.433-1.26-.786-1.747-1.056s-.894-.542-1.219-.813c-.596-.542-.894-1.273-.894-2.194v-2.316c0-1.138.19-1.923.569-2.357.731-.84 1.815-1.26 3.251-1.26h9.468v6.095h-2.763v-3.332H5.782v3.413l6.908 4.307c.569.352 1.07.664 1.504.935.461.244.84.501 1.138.772.677.569 1.016 1.246 1.016 2.032V26.9zm14.037.813h2.641v2.763h-8.533v-2.763h2.56V12.922h-2.56v-2.763h5.892v17.554zM28.718 2.682c.569 0 1.043.217 1.422.65.406.406.61.908.61 1.503 0 .569-.203 1.056-.61 1.463-.379.379-.867.569-1.463.569-.569 0-1.056-.19-1.463-.569a2.07 2.07 0 0 1-.569-1.463c0-.596.203-1.097.61-1.503.406-.433.894-.65 1.463-.65zm25.673 7.07c2.113 0 3.17 1.043 3.17 3.129v14.832h2.601v2.763H52.32v-2.763h1.95V12.597l-8.086 5.079v10.037h1.991v2.763h-7.843v-2.763h2.56V12.881h-2.56v-2.723h5.851v4.226l6.745-4.226a2.7 2.7 0 0 1 1.463-.406zM81.55 30.476H71.432c-1.95 0-3.075-.731-3.373-2.194a5.702 5.702 0 0 1-.163-1.382V13.734c0-1.138.311-2.018.935-2.641.65-.65 1.625-.975 2.926-.975h9.793v5.161h-2.763v-2.357h-7.639v14.791h7.639v-2.357h2.763v5.12zm7.712-16.335c0-2.682 1.395-4.023 4.185-4.023h6.867c1.327 0 2.289.257 2.885.772s.894 1.463.894 2.844v3.779l-11.581 7.314v2.885h8.371v-2.357h3.21v2.154c0 .813-.257 1.517-.772 2.113-.488.569-1.314.853-2.479.853h-8.33c-1.165 0-2.005-.285-2.519-.853-.488-.596-.731-1.3-.731-2.113V14.14zm3.251 7.395 8.33-5.242v-3.373h-8.33v8.615z"/><path fill="none" stroke="#f6f7f7" style="stroke:var(--color1, #f6f7f7)" stroke-width="3.048" d="M16.347 26.9c0 2.384-1.165 3.576-3.495 3.576H3.018V24.34h2.763v3.373h7.314V24.34l-6.664-4.185c-.677-.433-1.26-.786-1.747-1.056s-.894-.542-1.219-.813c-.596-.542-.894-1.273-.894-2.194v-2.316c0-1.138.19-1.923.569-2.357.731-.84 1.815-1.26 3.251-1.26h9.468v6.095h-2.763v-3.332H5.782v3.413l6.908 4.307c.569.352 1.07.664 1.504.935.461.244.84.501 1.138.772.677.569 1.016 1.246 1.016 2.032V26.9zm14.037.813h2.641v2.763h-8.533v-2.763h2.56V12.922h-2.56v-2.763h5.892v17.554zM28.718 2.682c.569 0 1.043.217 1.422.65.406.406.61.908.61 1.503 0 .569-.203 1.056-.61 1.463-.379.379-.867.569-1.463.569-.569 0-1.056-.19-1.463-.569a2.07 2.07 0 0 1-.569-1.463c0-.596.203-1.097.61-1.503.406-.433.894-.65 1.463-.65zm25.673 7.07c2.113 0 3.17 1.043 3.17 3.129v14.832h2.601v2.763H52.32v-2.763h1.95V12.597l-8.086 5.079v10.037h1.991v2.763h-7.843v-2.763h2.56V12.881h-2.56v-2.723h5.851v4.226l6.745-4.226a2.7 2.7 0 0 1 1.463-.406zM81.55 30.476H71.432c-1.95 0-3.075-.731-3.373-2.194a5.702 5.702 0 0 1-.163-1.382V13.734c0-1.138.311-2.018.935-2.641.65-.65 1.625-.975 2.926-.975h9.793v5.161h-2.763v-2.357h-7.639v14.791h7.639v-2.357h2.763v5.12zm7.712-16.335c0-2.682 1.395-4.023 4.185-4.023h6.867c1.327 0 2.289.257 2.885.772s.894 1.463.894 2.844v3.779l-11.581 7.314v2.885h8.371v-2.357h3.21v2.154c0 .813-.257 1.517-.772 2.113-.488.569-1.314.853-2.479.853h-8.33c-1.165 0-2.005-.285-2.519-.853-.488-.596-.731-1.3-.731-2.113V14.14zm3.251 7.395 8.33-5.242v-3.373h-8.33v8.615z"/></symbol></defs></svg>