<svg width="100" height="100" viewBox="0 0 100 100" fill="none" xmlns="http://www.w3.org/2000/svg">
  <path d="M65.0119 45.0017V45.0517M15.8786 31.8922C13.6857 30.2068 12.0014 27.9478 11.0121 25.3651C10.0227 22.7823 9.76669 19.9763 10.2724 17.2571C10.778 14.5379 12.0257 12.0115 13.8774 9.9571C15.7292 7.90268 18.1129 6.40025 20.7651 5.61586C23.4173 4.83147 26.2348 4.79567 28.9061 5.51241C31.5774 6.22916 33.9985 7.67054 35.9018 9.67725C37.8052 11.684 39.1166 14.1778 39.6912 16.8833C40.2658 19.5887 40.0812 22.4004 39.1578 25.0074" stroke="black" stroke-width="4" stroke-linecap="round" stroke-linejoin="round" />
  <path d="M70.0076 10.0029V29.0172C76.1954 32.5977 80.9065 38.2641 83.2971 45.0017H90.0019C91.3279 45.0017 92.5996 45.5284 93.5373 46.4661C94.4749 47.4037 95.0017 48.6754 95.0017 50.0015V60.0011C95.0017 61.3272 94.4749 62.5989 93.5373 63.5365C92.5996 64.4742 91.3279 65.001 90.0019 65.001H83.2921C81.6122 69.7508 78.7573 74.0006 75.0024 77.3655V87.5002C75.0024 89.4892 74.2123 91.3968 72.8058 92.8033C71.3993 94.2098 69.4917 94.9999 67.5027 94.9999C65.5136 94.9999 63.606 94.2098 62.1995 92.8033C60.7931 91.3968 60.0029 89.4892 60.0029 87.5002V84.5853C58.3507 84.862 56.6783 85.0008 55.0031 85.0003H35.0038C33.3286 85.0008 31.6562 84.862 30.004 84.5853V87.5002C30.004 89.4892 29.2138 91.3968 27.8073 92.8033C26.4009 94.2098 24.4933 94.9999 22.5042 94.9999C20.5152 94.9999 18.6076 94.2098 17.2011 92.8033C15.7946 91.3968 15.0045 89.4892 15.0045 87.5002V77.3655C10.4745 73.3155 7.28114 67.9853 5.84722 62.0804C4.4133 56.1755 4.8064 49.9743 6.97447 44.2978C9.14255 38.6212 12.9834 33.7369 17.9886 30.2913C22.9937 26.8457 28.9273 25.0014 35.0038 25.0023H47.5034L70.0076 10.0029Z" stroke="black" stroke-width="4" stroke-linecap="round" stroke-linejoin="round" />
</svg>