<svg aria-hidden="true" style="position: absolute; width: 0; height: 0; overflow: hidden;" version="1.1" xmlns="http://www.w3.org/2000/svg" xmlns:xlink="http://www.w3.org/1999/xlink">
<defs>
<symbol id="icon-bricks-wall" viewBox="0 0 32 32">
<path fill="#f6f7f7" style="fill: var(--color1, #f6f7f7)" d="M9 17.933v-5c0 0-0.4 0-1 0h-7c-0.6 0-1 0-1 0v5c0 0.6 0 1 0 1h9c0 0 0-0.4 0-1z"></path>
<path fill="#ffc935" style="fill: var(--color2, #ffc935)" d="M31 12.933h-7c-0.6 0-1 0-1 0v5c0 0.6 0 1 0 1h9c0 0 0-0.4 0-1v-5c0 0-0.4 0-1 0z"></path>
<path fill="#f6f7f7" style="fill: var(--color1, #f6f7f7)" d="M12 12.933h-1v6c0 0 0.4 0 1 0h8c0.6 0 1 0 1 0v-5c0-0.6 0-1 0-1h-9z"></path>
<path fill="#f6f7f7" style="fill: var(--color1, #f6f7f7)" d="M5 10.934h10c0 0 0-0.4 0-1v-4c0-0.6 0-1 0-1l-9 0c-0.6 0-1 0-1 0v5c0 0.6-0 1-0 1z"></path>
<path fill="#f6f7f7" style="fill: var(--color1, #f6f7f7)" d="M17 10.933h10c0 0 0-0.4 0-1v-5c0 0-0.4 0-1 0h-8c-0.6 0-1 0-1 0v5c0 0.6 0 1 0 1z"></path>
<path fill="#ffc935" style="fill: var(--color2, #ffc935)" d="M14 20.933l-9 0.047c0 0 0 0.354 0 0.953v5c0 0 0.4 0 1 0h9c0 0 0-0.4 0-1v-5c0 0-0.4 0-1 0z"></path>
<path fill="#f6f7f7" style="fill: var(--color1, #f6f7f7)" d="M26 20.933h-8c-0.6 0-1 0-1 0v5c0 0.6 0 1 0 1h10c0 0 0-0.4 0-1v-5c0 0-0.4 0-1 0z"></path>
</symbol>
<symbol id="icon-building" viewBox="0 0 32 32">
<path fill="none" stroke="#f6f7f7" style="stroke: var(--color1, #f6f7f7)" stroke-linejoin="round" stroke-linecap="square" stroke-miterlimit="4" stroke-width="5.3333" d="M12.854 1.594l17.813 8.539"></path>
<path fill="none" stroke="#f6f7f7" style="stroke: var(--color1, #f6f7f7)" stroke-linejoin="round" stroke-linecap="square" stroke-miterlimit="4" stroke-width="5.3333" d="M14.584 11.029l-12.984 6.036"></path>
<path fill="#f6f7f7" style="fill: var(--color1, #f6f7f7)" d="M29.527 29.886v-19.208l-15.335-8.003v28.012h14.483c0.226 0 0.443-0.084 0.602-0.234s0.25-0.354 0.25-0.566zM25.045 16.666c0.387-0.536 0.594-1.165 0.594-1.809 0.009-0.43-0.077-0.857-0.251-1.256s-0.434-0.761-0.763-1.065-0.721-0.544-1.153-0.705c-0.432-0.161-0.894-0.24-1.36-0.232-0.697 0-1.379 0.191-1.959 0.549s-1.032 0.867-1.299 1.462c-0.267 0.595-0.337 1.25-0.201 1.882s0.472 1.212 0.965 1.668c0.493 0.455 1.121 0.766 1.806 0.891s1.393 0.061 2.037-0.185 1.195-0.664 1.583-1.2zM17.104 18.666h10.133v12h-10.133v-12z"></path>
<path fill="#ffc935" style="fill: var(--color2, #ffc935)" d="M25.044 16.666c0.387-0.536 0.594-1.165 0.594-1.809 0.009-0.43-0.077-0.857-0.251-1.256s-0.434-0.761-0.763-1.065-0.721-0.544-1.153-0.705c-0.432-0.161-0.894-0.24-1.36-0.232-0.697 0-1.379 0.191-1.959 0.549s-1.032 0.867-1.299 1.462c-0.267 0.595-0.337 1.25-0.201 1.882s0.472 1.212 0.965 1.668 1.121 0.766 1.806 0.891c0.684 0.126 1.393 0.061 2.037-0.185s1.195-0.664 1.583-1.2z"></path>
<path fill="#f6f7f7" style="fill: var(--color1, #f6f7f7); stroke: var(--color1, #f6f7f7)" stroke="#f6f7f7" stroke-linejoin="miter" stroke-linecap="butt" stroke-miterlimit="4" stroke-width="5.3333" d="M27.733 1.599v7.467l-4.267-2.133v-5.333h4.267z"></path>
<path fill="none" stroke="#f6f7f7" style="stroke: var(--color1, #f6f7f7)" stroke-linejoin="round" stroke-linecap="square" stroke-miterlimit="4" stroke-width="5.3333" d="M1.061 30.685h29.878"></path>
<path fill="#f6f7f7" style="fill: var(--color1, #f6f7f7)" d="M2.668 30.029v-13.547l12.799-5.815v20.265h-11.999c-0.107 0.007-0.214-0.011-0.314-0.054s-0.191-0.109-0.266-0.195-0.134-0.188-0.172-0.301c-0.038-0.113-0.054-0.233-0.048-0.354zM12.854 20.399h-6.4v6.4h6.4v-6.4z"></path>
</symbol>
<symbol id="icon-calendar" viewBox="0 0 32 32">
<path fill="#f6f7f7" style="fill: var(--color1, #f6f7f7)" d="M30.524 8.62h-29.582v-2.279c0-0.426 0.501-0.76 1.138-0.76h3.413v1.52c0 0 0.501 0 1.138 0s1.138 0 1.138 0v-1.52h15.929l0.036 1.544h2.24v-1.544h3.413c0.637 0 1.138 0.334 1.138 0.76v2.279zM13.458 22.616l-7.623-5.106 1.593-1.064 6.030 4.012 10.581-7.051 1.593 1.064-12.174 8.145zM29.387 4.061h-3.413v-1.52c0 0-0.501 0-1.138 0s-1.138 0-1.138 0v1.52h-15.929v-1.52c0 0-0.501 0-1.138 0s-1.138 0-1.138 0v1.52h-3.413c-1.889 0-3.413 1.018-3.413 2.279v22.034h34.133v-22.034c0-1.261-1.525-2.279-3.413-2.279z"></path>
<path fill="#ffc935" style="fill: var(--color2, #ffc935)" d="M5.494 7.1v-4.559h2.276v4.559h-2.276z"></path>
<path fill="#ffc935" style="fill: var(--color2, #ffc935)" d="M23.694 7.1v-4.559h2.276v4.559h-2.276z"></path>
</symbol>
<symbol id="icon-computer-construction" viewBox="0 0 32 32">
<path fill="#ffc935" style="fill: var(--color2, #ffc935)" d="M24.888 28.761c0 0-3.684-1.033-4.13-2.388 0-0.123 0-0.246-0.112-0.246h-9.938c0 0.123 0 0.246-0.112 0.246-0.335 1.355-4.030 2.51-4.030 2.51s0 0.152 0 0.891c0 0.739 0 1.281 0 1.281l18.321 0.101c0 0 0-0.587 0-1.326s0-1.069 0-1.069z"></path>
<path fill="#f6f7f7" style="fill: var(--color1, #f6f7f7)" d="M28.016 0.907h-24.565c-1.898 0-3.35 0-3.35 0v20.099c0 1.898 0 3.35 0 3.35h31.264c0 0 0-1.452 0-3.35v-20.099c0 0-1.452 0-3.35 0zM24.666 18.773h-17.865c-0.67 0-1.117-0.447-1.117-1.117s0.447-1.117 1.117-1.117h0.223v-0.223c0-2.010 0.67-3.796 1.786-5.36l1.34 3.858 1.869-0.721-1.534-5.481c0-0.335 0.223-0.67 0.558-0.893 2.903-1.452 6.365-1.452 9.268 0 0.335 0.223 0.558 0.558 0.558 0.893l-1.569 5.481 1.955 0.721 1.289-3.858c1.117 1.563 1.787 3.35 1.787 5.36v0.223h0.335c0.67 0 1.117 0.447 1.117 1.117s-0.447 1.117-1.117 1.117z"></path>
</symbol>
<symbol id="icon-worker" viewBox="0 0 32 32">
<path fill="#f6f7f7" style="fill: var(--color1, #f6f7f7)" d="M14.573 20.599c-1.491-0.213-3.645-1.262-3.645-1.262-4.323 1.054-9.364 3.527-9.364 6.761v5.534h7.999v-8.799c0 0 0.358 0 0.8 0s0.8 0 0.8 0v8.799h9.599v-8.799c0 0 0.358 0 0.8 0s0.8 0 0.8 0v8.799h7.999v-5.534c0-3.235-4.733-5.707-9.055-6.761 0 0-2.292 1.056-3.867 1.262-1.109 0.145-1.757 0.158-2.865 0z"></path>
<path fill="#ffc935" style="fill: var(--color2, #ffc935)" d="M16.762 0.368c0.854 0.11 1.663 0.39 2.4 0.785v3.283c0 0 0.358 0 0.8 0s0.8 0 0.8 0v-2.159c0.987 0.881 1.728 1.951 2.11 2.972 0.015 0.375-0.026 0.763-0.1 1.14-0.093 0.479-0.234 0.909-0.352 1.221-0.059 0.155-0.112 0.28-0.149 0.364-0.019 0.042-0.034 0.074-0.044 0.095l-0.011 0.023-0.21 0.383c0 0 0.189 0.104 0.406 0.212s0.344 0.165 0.344 0.165 0.184-0.276 0.285-0.477c0.084-0.167 0.137-0.282 0.202-0.454 0.13-0.344 0.288-0.823 0.393-1.365 0.018-0.094 0.035-0.19 0.050-0.289 0.685 0.896 1.075 1.825 1.075 2.627 0 2.551-3.939 2.86-8.799 2.86s-8.799-0.308-8.799-2.86c0-0.752 0.453-1.711 1.060-2.554-0.026 0.717 0.229 1.812 0.712 2.477l0.629-0.462c-0.906-0.989-0.645-2.133-0.356-3.087 0.141-0.464 0.324-0.875 0.472-1.17 0.074-0.147 0.139-0.264 0.185-0.344 0.023-0.040 0.041-0.070 0.053-0.090l0.013-0.022 0.003-0.005c0.004-0.006 0.007-0.012 0.011-0.018 0.344-0.473 0.754-0.929 1.218-1.344v2.226c0 0 0.353 0 0.795 0s0.805 0 0.805 0v-3.35c0.737-0.395 1.546-0.675 2.4-0.785v2.468c0 0 0.358 0 0.8 0s0.8 0 0.8 0v-2.468z"></path>
<path fill="#f6f7f7" style="fill: var(--color1, #f6f7f7)" d="M10.408 12.034c0.228 2.883 2.64 5.152 5.582 5.152 3.092 0 5.525-2.358 5.749-5.237l1.45-0.362c0 3.976-3.223 7.199-7.199 7.199s-7.199-3.223-7.199-7.199l1.617 0.447z"></path>
</symbol>
<symbol id="icon-drilling" viewBox="0 0 46 32">
<path fill="#c2cdc6" style="fill: var(--color3, #c2cdc6)" d="M24.429 12.937c0.097-0.127 0.178-0.267 0.246-0.404 0.196-0.393 0.356-0.908 0.485-1.485 0.259-1.16 0.41-2.658 0.438-4.159s-0.068-3.028-0.314-4.247c-0.123-0.608-0.286-1.158-0.502-1.594-0.103-0.209-0.393-0.597-0.542-0.766l18.14 0.189c3.036 0.577 5.527 7.328 1.236 12.062l-19.189 0.404z"></path>
<path fill="#c2cdc6" style="fill: var(--color3, #c2cdc6)" d="M23.562 12.752c0 0-2.231-1.631-2.231-6.427 0-5.277 1.973-6.043 1.973-6.043 0.394 0.081 0.641 0.599 0.774 1.104 0.163 0.619 0.24 0.854 0.355 1.424 0.229 1.138 0.324 2.599 0.297 4.062s-0.174 2.9-0.418 3.988c-0.122 0.546-0.264 0.985-0.416 1.29-0.166 0.334-0.334 0.601-0.334 0.601z"></path>
<path fill="#ffd74a" style="fill: var(--color4, #ffd74a)" d="M0.035 20.419h41.532l-0.434-4.74h-41.097v4.74z"></path>
<path fill="#ffd74a" style="fill: var(--color4, #ffd74a)" d="M23.588 4.538l-4.454 0.269 0.19 4.525 4.481-0.242c0 0 0.524-1.72 0.38-2.801-0.096-0.719-0.598-1.751-0.598-1.751z"></path>
<path fill="#c2cdc6" style="fill: var(--color3, #c2cdc6)" d="M20.483 3.573c0 0-14.886 0.138-16.963 1.121-0.706 0.334-1.358 0.763-1.702 1.003-0.166 0.115-0.278 0.288-0.323 0.484-0.297 1.303-1.111 5.575-1.111 5.575l3.359 6.122 5.109 1.357 2.835-4.487 5.704-3.374 3.091-0.627v-7.173z"></path>
<path fill="#c2cdc6" style="fill: var(--color3, #c2cdc6)" d="M40.154 21.889v6.585l4.345 2.478 1.032-1.023v-16.428h-5.051l-0.035 1.598c-0.509 0.142-1.049 0.33-1.432 0.476l0.58 4.848h-1.775v0.61l1.887 0.862v-0.005h0.448z"></path>
<path fill="#ffd74a" style="fill: var(--color4, #ffd74a)" d="M40.589 26.454h-6.164v1.158c0 0 6.164-0.043 6.164 0v-1.158z"></path>
<path fill="#ffd74a" style="fill: var(--color4, #ffd74a)" d="M41.715 25.766l-1.435 0.4c-0.262 0.664-0.167 0.92 0 1.623l1.662 0.375c0.345-0.99 0.194-1.912-0.227-2.397z"></path>
</symbol>
<symbol id="icon-house" viewBox="0 0 33 32">
<path fill="none" stroke="#f6f7f7" style="stroke: var(--color1, #f6f7f7)" stroke-linejoin="round" stroke-linecap="square" stroke-miterlimit="4" stroke-width="3.2" d="M13.254 1.595l17.813 8.539"></path>
<path fill="none" stroke="#f6f7f7" style="stroke: var(--color1, #f6f7f7)" stroke-linejoin="round" stroke-linecap="square" stroke-miterlimit="4" stroke-width="3.2" d="M14.984 11.031l-12.984 6.036"></path>
<path fill="#f6f7f7" style="fill: var(--color1, #f6f7f7)" d="M29.927 29.886v-19.208l-15.335-8.003v28.012h14.483c0.226 0 0.443-0.084 0.602-0.234s0.25-0.354 0.25-0.566zM25.445 16.666c0.388-0.536 0.594-1.165 0.594-1.81 0.009-0.43-0.077-0.857-0.251-1.256s-0.434-0.761-0.763-1.065c-0.329-0.304-0.721-0.544-1.153-0.704s-0.894-0.24-1.36-0.232c-0.697 0-1.379 0.191-1.959 0.549s-1.032 0.867-1.299 1.462c-0.267 0.595-0.337 1.25-0.201 1.882s0.472 1.212 0.965 1.668 1.122 0.766 1.806 0.891c0.684 0.126 1.393 0.061 2.038-0.185s1.195-0.664 1.583-1.2zM18.571 19.733h8v10.933h-3.2v-7.733h-1.6v7.733h-3.2v-10.933z"></path>
<path fill="#ffc935" style="fill: var(--color2, #ffc935)" d="M25.444 16.667c0.387-0.536 0.594-1.165 0.594-1.809 0.009-0.43-0.077-0.857-0.251-1.256s-0.434-0.761-0.763-1.065c-0.329-0.304-0.721-0.544-1.153-0.705s-0.894-0.24-1.36-0.232c-0.698 0-1.379 0.191-1.959 0.549s-1.032 0.867-1.299 1.462c-0.267 0.595-0.337 1.25-0.201 1.882s0.472 1.212 0.965 1.668 1.122 0.766 1.806 0.891c0.684 0.126 1.393 0.061 2.038-0.185s1.195-0.664 1.583-1.2z"></path>
<path fill="#f6f7f7" style="fill: var(--color1, #f6f7f7); stroke: var(--color1, #f6f7f7)" stroke="#f6f7f7" stroke-linejoin="miter" stroke-linecap="butt" stroke-miterlimit="4" stroke-width="3.2" d="M28.133 1.6v7.467l-4.267-2.133v-5.333h4.267z"></path>
<path fill="none" stroke="#f6f7f7" style="stroke: var(--color1, #f6f7f7)" stroke-linejoin="round" stroke-linecap="square" stroke-miterlimit="4" stroke-width="3.2" d="M1.46 30.688h29.878"></path>
<path fill="#f6f7f7" style="fill: var(--color1, #f6f7f7)" d="M3.068 30.029v-13.547l12.799-5.815v20.265h-11.999c-0.107 0.007-0.214-0.011-0.314-0.054s-0.191-0.109-0.266-0.194c-0.076-0.085-0.134-0.188-0.172-0.301s-0.054-0.234-0.048-0.354zM13.254 20.399h-6.4v6.4h6.4v-6.4z"></path>
</symbol>
<symbol id="icon-location" viewBox="0 0 33 32">
<path fill="#ffc935" style="fill: var(--color2, #ffc935)" d="M23.051 31.171c0.879-0.307 1.348-0.668 1.348-1.037 0.020-0.246-0.174-0.491-0.569-0.72s-0.984-0.436-1.73-0.61c-0.747-0.174-1.636-0.312-2.616-0.404s-2.028-0.137-3.084-0.133c-1.582 0-3.129 0.109-4.444 0.315s-2.341 0.497-2.946 0.838c-0.605 0.341-0.764 0.716-0.455 1.078s1.071 0.695 2.189 0.956 2.544 0.439 4.096 0.511c1.552 0.072 3.16 0.035 4.622-0.106s2.711-0.381 3.59-0.688z"></path>
<path fill="#f6f7f7" style="fill: var(--color1, #f6f7f7); stroke: var(--color1, #f6f7f7)" stroke="#f6f7f7" stroke-linejoin="round" stroke-linecap="butt" stroke-miterlimit="4" stroke-width="3.2" d="M26.267 12.667c0-5.523-4.477-10-10-10s-10 4.477-10 10c0 8.667 10 16.667 10 16.667s10-8 10-16.667zM22.731 12.801c0 3.57-2.894 6.465-6.465 6.465s-6.465-2.894-6.465-6.465c0-3.57 2.894-6.465 6.465-6.465s6.465 2.894 6.465 6.465z"></path>
</symbol>
<symbol id="icon-logo" viewBox="0 0 70 32">
<path fill="#f6f7f7" style="fill: var(--color1, #f6f7f7)" d="M6.4 0l14.878 16.126c2.905-3.149 3.998-4.463 6.265-6.92v5.243l-6.265 6.716-12.078-13.102v23.937h-2.801v-32z"></path>
<path fill="#ffc935" style="fill: var(--color2, #ffc935)" d="M34.857 32h-2.057v-8h6.229v1.6h-4.171v6.4z"></path>
<path fill="#ffc935" style="fill: var(--color2, #ffc935)" d="M39.831 24h4.8c0.8 0 1.379 0.183 1.737 0.549 0.366 0.358 0.549 0.937 0.549 1.737v1.143c0 0.8-0.183 1.383-0.549 1.749-0.358 0.358-0.937 0.537-1.737 0.537h-2.743v2.286h-2.057v-8zM44.86 26.286c0-0.457-0.229-0.686-0.686-0.686h-2.286v2.514h2.286c0.457 0 0.686-0.229 0.686-0.686v-1.143z"></path>
<path fill="#ffc935" style="fill: var(--color2, #ffc935)" d="M49.642 32.114c-0.381 0-0.773-0.038-1.177-0.114v-1.543h1.029c0.221 0 0.373-0.088 0.457-0.263 0.038-0.076 0.057-0.156 0.057-0.24 0-0.091-0.019-0.171-0.057-0.24l-3.143-5.714h2.286l2.057 4.057 1.714-4.057h2.286l-2.914 6.286c-0.267 0.602-0.587 1.051-0.96 1.349-0.411 0.32-0.956 0.48-1.634 0.48z"></path>
<path fill="#ffc935" style="fill: var(--color2, #ffc935)" d="M62.584 32h-2.057v-6.4h-2.857v6.4h-2.057v-8h6.971v8z"></path>
<path fill="#ffd74a" style="fill: var(--color4, #ffd74a)" d="M50.599 8.123l-0.184 1.248h-20.014v22.63h-3.126l0-1.275-0-4.724 0.001-0.001v-16.629l-6.876-0 6.876-6.956-0-2.414h3.126v2.204l20.198 5.919zM23.427 8.096h3.849v-3.873l-3.849 3.873zM28.55 30.725h0.576v-21.355h-0.576v21.355zM28.55 8.096h0.576v-4.781h-0.576v4.781zM28.55 2.040h0.576v-0.765h-0.576v0.765zM33.735 4.368l-3.333-0.833v3.595l3.333-2.762zM34.797 5.109l-3.558 2.987h6.545l-2.987-2.987zM36.778 5.286l2.45 2.45 1.314-1.315-3.764-1.135zM41.928 6.839l-1.257 1.256h5.423l-4.166-1.256z"></path>
<path fill="#ffd74a" style="fill: var(--color4, #ffd74a)" d="M27.276 30.725l-0 1.275v-5.999l0 4.724zM30.401 25.93v6.070l0-1.275-0-4.795z"></path>
<path fill="#ffd74a" style="fill: var(--color4, #ffd74a)" d="M29.126 30.725h-0.576v-21.355h0.576v21.355z"></path>
<path fill="#ffd74a" style="fill: var(--color4, #ffd74a)" d="M29.126 8.096h-0.576v-4.781h0.576v4.781z"></path>
<path fill="#ffd74a" style="fill: var(--color4, #ffd74a)" d="M29.126 2.040h-0.576v-0.765h0.576v0.765z"></path>
<path fill="#ffc935" style="fill: var(--color2, #ffc935)" d="M48.341 16.612v-0.558h0.97c0 0 0-0.281 0-0.627v-2.257c0-0.346 0-0.627 0-0.627h-0.844v-2.257c0 0-0.281 0-0.627 0s-0.586 0-0.586 0l-0.041 2.257h-0.405c-0.346 0-0.627 0-0.627 0v2.884c0 0.346 0 0.627 0 0.627h0.907v1.066c0 0.346 0.281 0.627 0.627 0.627 0.254 0 0.46 0.206 0.46 0.46s-0.206 0.46-0.46 0.46c-0.172 0-0.46-0.314-0.46-0.314h-1.254c0 0.908 0.721 1.567 1.714 1.567 0.945 0 1.714-0.769 1.714-1.714-0-0.724-0.451-1.345-1.087-1.596zM48.057 14.8h-0.622v-1.003h0.622v1.003z"></path>
</symbol>
<symbol id="icon-menu" viewBox="0 0 32 32">
<path fill="none" stroke="#f6f7f7" style="stroke: var(--color1, #f6f7f7)" stroke-linejoin="round" stroke-linecap="round" stroke-miterlimit="4" stroke-width="2" d="M6.667 15.335h18.667"></path>
<path fill="none" stroke="#f6f7f7" style="stroke: var(--color1, #f6f7f7)" stroke-linejoin="round" stroke-linecap="round" stroke-miterlimit="4" stroke-width="2" d="M6.667 22.001h18.667"></path>
<path fill="none" stroke="#f6f7f7" style="stroke: var(--color1, #f6f7f7)" stroke-linejoin="round" stroke-linecap="round" stroke-miterlimit="4" stroke-width="2" d="M6.667 8.667h18.667"></path>
</symbol>
<symbol id="icon-modern-building" viewBox="0 0 32 32">
<path fill="#f6f7f7" style="fill: var(--color1, #f6f7f7)" d="M23.083 12.562v-2.822l0.935 0.11v-2.115l-11.289-1.728-12.729 2.423v2.473l1.18-0.164v6.872h3.423v6.414l16.25 1.969 2.875-0.348v-8.232l5.107 0.016v7.596l2.373-0.287v-10.038l0.792 0.039v-1.504l-8.917-0.674zM21.934 10.717v2.475l-3.401 0.063v-2.884l3.401 0.346zM2.948 11.121l7.719-0.979v5.51l-7.719 0.256v-4.787zM6.119 22.565v-4.955h3.182v5.244l-3.182-0.289zM10.11 22.909v-5.301h2.618v-0.010h1.063v5.645l-3.681-0.334zM14.567 23.346v-5.746l4.287 0.001v6.137l-4.287-0.392z"></path>
<path fill="#ffc935" style="fill: var(--color2, #ffc935)" d="M10.667 10.143l-7.719 0.979v4.787l7.719-0.256v-5.51z"></path>
</symbol>
<symbol id="icon-phone" viewBox="0 0 32 32">
<path fill="#f6f7f7" style="fill: var(--color1, #f6f7f7)" d="M22.667 1.347l-13.333-0.013c-1.467 0-2.653 1.2-2.653 2.667v24c0 1.467 1.187 2.667 2.653 2.667h13.333c1.467 0 2.667-1.2 2.667-2.667v-24c0-1.467-1.2-2.653-2.667-2.653zM22.667 25.334h-13.333v-18.667h13.333v18.667z"></path>
</symbol>
<symbol id="icon-pin-location" viewBox="0 0 32 32">
<path fill="#f6f7f7" style="fill: var(--color1, #f6f7f7)" d="M24 10.666c0-4.413-3.587-8-8-8s-8 3.587-8 8c0 6 8 14.667 8 14.667s8-8.667 8-14.667zM13.333 10.666c0-1.467 1.2-2.667 2.667-2.667s2.667 1.2 2.667 2.667c0 1.467-1.187 2.667-2.667 2.667-1.467 0-2.667-1.2-2.667-2.667zM8 26.666c-0.736 0-1.333 0.597-1.333 1.333v0c0 0.736 0.597 1.333 1.333 1.333h16c0.736 0 1.333-0.597 1.333-1.333v0c0-0.736-0.597-1.333-1.333-1.333h-16z"></path>
</symbol>
<symbol id="icon-plan" viewBox="0 0 32 32">
<path fill="#f6f7f7" style="fill: var(--color1, #f6f7f7)" d="M-1.6 25.362v-19.467h35.199v19.467h-11.731l8.43-3.336c0.020-0.008 0.057-0.023 0.128-0.053 0.143-0.059 0.424-0.175 0.983-0.406 0.698-0.289 1.196-0.8 1.309-1.491 0.105-0.648-0.165-1.25-0.531-1.685-0.726-0.866-2.137-1.452-3.55-0.9l-0.033 0.013v-8.004c0-0.295-0.239-0.533-0.533-0.533h-24.308c-0.295 0-0.533 0.239-0.533 0.533v11.874c0 0.295 0.239 0.533 0.533 0.533h13.8l-4.71 1.883-0.122 0.13c-0.346 0.369-0.845 0.936-1.284 1.443h-13.048zM17.519 25.362h-2.43l-0.461-0.559 7.245-2.896h4.378l-8.732 3.455zM28.605 20.976l0.048-0.019-0.048-0.057v0.076zM27.005 18.133v-0.093h-3.211v1.377l3.211-1.284zM24.63 20.805l2.374-0.949v0.949h-2.374zM22.194 20.056v-6.010l-5.4-0.054v-3.924h-3.614v3.932h-4.531v3.023h4.531v3.782h7.141l1.874-0.749zM4.83 10.068v2.83h6.749v-2.83h-6.749zM18.393 10.068v2.838l3.8 0.038v-2.876h-3.8zM27.005 10.068h-3.211v6.869h3.211v-6.87zM11.579 20.805v-2.68h-6.749v2.68h6.749zM4.83 17.023h2.218v-3.023h-2.218v3.023zM29.219 18.982l-0.102 0.040 1.098 1.309c0.149-0.062 0.339-0.14 0.582-0.241 0.327-0.135 0.34-0.261 0.341-0.269l0-0c0.007-0.045-0.002-0.192-0.177-0.4-0.354-0.421-1.062-0.704-1.742-0.439z"></path>
<path fill="#ffc935" style="fill: var(--color2, #ffc935)" d="M11.084 27.069c0 0 1.513-1.784 2.258-2.579l14.473-5.786c0 0-0 0 1.14-0.445 2.093-0.817 4.238 1.738 2.175 2.592-1.116 0.462-1.125 0.464-1.125 0.464l-14.539 5.753h-4.382z"></path>
</symbol>
<symbol id="icon-since" viewBox="0 0 58 32">
<path fill="#f6f7f7" style="fill: var(--color1, #f6f7f7)" d="M9.382 22.122c0 1.252-0.612 1.877-1.835 1.877h-5.163v-3.221h1.451v1.771h3.84v-1.771l-3.499-2.197c-0.356-0.228-0.661-0.412-0.917-0.555s-0.469-0.284-0.64-0.427c-0.313-0.284-0.469-0.668-0.469-1.152v-1.216c0-0.597 0.1-1.010 0.299-1.237 0.384-0.441 0.953-0.661 1.707-0.661h4.971v3.2h-1.451v-1.749h-3.84v1.792l3.627 2.261c0.299 0.185 0.562 0.348 0.789 0.491 0.242 0.128 0.441 0.263 0.597 0.405 0.356 0.299 0.533 0.654 0.533 1.067v1.323z"></path>
<path fill="#f6f7f7" style="fill: var(--color1, #f6f7f7)" d="M16.752 22.549h1.387v1.451h-4.48v-1.451h1.344v-7.765h-1.344v-1.451h3.093v9.216zM15.877 9.408c0.299 0 0.548 0.114 0.747 0.341 0.213 0.213 0.32 0.476 0.32 0.789 0 0.299-0.107 0.555-0.32 0.768-0.199 0.199-0.455 0.299-0.768 0.299-0.299 0-0.555-0.1-0.768-0.299-0.199-0.213-0.299-0.469-0.299-0.768 0-0.313 0.107-0.576 0.32-0.789 0.213-0.228 0.469-0.341 0.768-0.341z"></path>
<path fill="#f6f7f7" style="fill: var(--color1, #f6f7f7)" d="M29.356 13.12c1.109 0 1.664 0.548 1.664 1.643v7.787h1.365v1.451h-4.117v-1.451h1.024v-7.936l-4.245 2.667v5.269h1.045v1.451h-4.117v-1.451h1.344v-7.787h-1.344v-1.429h3.072v2.219l3.541-2.219c0.228-0.142 0.484-0.213 0.768-0.213z"></path>
<path fill="#f6f7f7" style="fill: var(--color1, #f6f7f7)" d="M43.614 24h-5.312c-1.024 0-1.614-0.384-1.771-1.152-0.057-0.228-0.085-0.469-0.085-0.725v-6.912c0-0.597 0.164-1.060 0.491-1.387 0.341-0.341 0.853-0.512 1.536-0.512h5.141v2.709h-1.451v-1.237h-4.011v7.765h4.011v-1.237h1.451v2.688z"></path>
<path fill="#f6f7f7" style="fill: var(--color1, #f6f7f7)" d="M47.662 15.424c0-1.408 0.732-2.112 2.197-2.112h3.605c0.697 0 1.202 0.135 1.515 0.405s0.469 0.768 0.469 1.493v1.984l-6.080 3.84v1.515h4.395v-1.237h1.685v1.131c0 0.427-0.135 0.796-0.405 1.109-0.256 0.299-0.69 0.448-1.301 0.448h-4.373c-0.612 0-1.052-0.149-1.323-0.448-0.256-0.313-0.384-0.683-0.384-1.109v-7.019zM49.369 19.306l4.373-2.752v-1.771h-4.373v4.523z"></path>
<path fill="none" stroke="#f6f7f7" style="stroke: var(--color1, #f6f7f7)" stroke-linejoin="miter" stroke-linecap="butt" stroke-miterlimit="4" stroke-width="1.6" d="M9.382 22.122c0 1.252-0.612 1.877-1.835 1.877h-5.163v-3.221h1.451v1.771h3.84v-1.771l-3.499-2.197c-0.356-0.228-0.661-0.412-0.917-0.555s-0.469-0.284-0.64-0.427c-0.313-0.284-0.469-0.668-0.469-1.152v-1.216c0-0.597 0.1-1.010 0.299-1.237 0.384-0.441 0.953-0.661 1.707-0.661h4.971v3.2h-1.451v-1.749h-3.84v1.792l3.627 2.261c0.299 0.185 0.562 0.348 0.789 0.491 0.242 0.128 0.441 0.263 0.597 0.405 0.356 0.299 0.533 0.654 0.533 1.067v1.323z"></path>
<path fill="none" stroke="#f6f7f7" style="stroke: var(--color1, #f6f7f7)" stroke-linejoin="miter" stroke-linecap="butt" stroke-miterlimit="4" stroke-width="1.6" d="M16.752 22.549h1.387v1.451h-4.48v-1.451h1.344v-7.765h-1.344v-1.451h3.093v9.216zM15.877 9.408c0.299 0 0.548 0.114 0.747 0.341 0.213 0.213 0.32 0.476 0.32 0.789 0 0.299-0.107 0.555-0.32 0.768-0.199 0.199-0.455 0.299-0.768 0.299-0.299 0-0.555-0.1-0.768-0.299-0.199-0.213-0.299-0.469-0.299-0.768 0-0.313 0.107-0.576 0.32-0.789 0.213-0.228 0.469-0.341 0.768-0.341z"></path>
<path fill="none" stroke="#f6f7f7" style="stroke: var(--color1, #f6f7f7)" stroke-linejoin="miter" stroke-linecap="butt" stroke-miterlimit="4" stroke-width="1.6" d="M29.356 13.12c1.109 0 1.664 0.548 1.664 1.643v7.787h1.365v1.451h-4.117v-1.451h1.024v-7.936l-4.245 2.667v5.269h1.045v1.451h-4.117v-1.451h1.344v-7.787h-1.344v-1.429h3.072v2.219l3.541-2.219c0.228-0.142 0.484-0.213 0.768-0.213z"></path>
<path fill="none" stroke="#f6f7f7" style="stroke: var(--color1, #f6f7f7)" stroke-linejoin="miter" stroke-linecap="butt" stroke-miterlimit="4" stroke-width="1.6" d="M43.614 24h-5.312c-1.024 0-1.614-0.384-1.771-1.152-0.057-0.228-0.085-0.469-0.085-0.725v-6.912c0-0.597 0.164-1.060 0.491-1.387 0.341-0.341 0.853-0.512 1.536-0.512h5.141v2.709h-1.451v-1.237h-4.011v7.765h4.011v-1.237h1.451v2.688z"></path>
<path fill="none" stroke="#f6f7f7" style="stroke: var(--color1, #f6f7f7)" stroke-linejoin="miter" stroke-linecap="butt" stroke-miterlimit="4" stroke-width="1.6" d="M47.662 15.424c0-1.408 0.732-2.112 2.197-2.112h3.605c0.697 0 1.202 0.135 1.515 0.405s0.469 0.768 0.469 1.493v1.984l-6.080 3.84v1.515h4.395v-1.237h1.685v1.131c0 0.427-0.135 0.796-0.405 1.109-0.256 0.299-0.69 0.448-1.301 0.448h-4.373c-0.612 0-1.052-0.149-1.323-0.448-0.256-0.313-0.384-0.683-0.384-1.109v-7.019zM49.369 19.306l4.373-2.752v-1.771h-4.373v4.523z"></path>
</symbol>
<symbol id="icon-smile" viewBox="0 0 33 32">
<path fill="#f6f7f7" style="fill: var(--color1, #f6f7f7)" d="M16.4 32c-4.243 0-8.313-1.686-11.314-4.686s-4.686-7.070-4.686-11.314 1.686-8.313 4.686-11.314c3.001-3.001 7.070-4.686 11.314-4.686s8.313 1.686 11.314 4.686c3.001 3.001 4.686 7.070 4.686 11.314s-1.686 8.313-4.686 11.314c-3.001 3.001-7.070 4.686-11.314 4.686zM10.8 14.4c0.636 0 1.247-0.253 1.697-0.703s0.703-1.061 0.703-1.697c0-0.636-0.253-1.247-0.703-1.697s-1.061-0.703-1.697-0.703c-0.636 0-1.247 0.253-1.697 0.703s-0.703 1.061-0.703 1.697c0 0.636 0.253 1.247 0.703 1.697s1.061 0.703 1.697 0.703zM22 14.4c0.637 0 1.247-0.253 1.697-0.703s0.703-1.061 0.703-1.697c0-0.636-0.253-1.247-0.703-1.697s-1.060-0.703-1.697-0.703c-0.636 0-1.247 0.253-1.697 0.703s-0.703 1.061-0.703 1.697c0 0.636 0.253 1.247 0.703 1.697s1.061 0.703 1.697 0.703zM25.456 19.2h-18.112c0.66 1.875 1.885 3.499 3.507 4.648s3.561 1.766 5.549 1.766 3.927-0.617 5.549-1.766c1.622-1.149 2.848-2.773 3.507-4.648z"></path>
<path fill="#ffc935" style="fill: var(--color2, #ffc935)" d="M7.344 19.2h18.112c-0.66 1.875-1.885 3.499-3.507 4.648s-3.561 1.766-5.549 1.766-3.927-0.617-5.549-1.766c-1.622-1.149-2.848-2.773-3.507-4.648z"></path>
</symbol>
<symbol id="icon-telegram" viewBox="0 0 32 32">
<path fill="#f6f7f7" style="fill: var(--color1, #f6f7f7)" d="M16 2.666c-13.333 0-13.333 0-13.333 13.333s0 13.333 13.333 13.333 13.333 0 13.333-13.333 0-13.333-13.333-13.333zM22.549 11.8l-2.189 10.311c-0.161 0.731-0.597 0.909-1.204 0.564l-3.333-2.456-1.607 1.549c-0.156 0.2-0.397 0.328-0.667 0.328-0.002 0-0.003 0-0.005 0l0.237-3.393 6.178-5.58c0.267-0.237-0.060-0.371-0.414-0.134l-7.632 4.807-3.289-1.027c-0.711-0.226-0.731-0.711 0.15-1.060l12.851-4.953c0.598-0.218 1.118 0.142 0.924 1.046l0.001-0.001z"></path>
</symbol>
<symbol id="icon-tiktok" viewBox="0 0 32 32">
<path fill="#f6f7f7" style="fill: var(--color1, #f6f7f7)" d="M4.333 4.333c1.667-1.667 5-1.667 11.667-1.667s10 0 11.667 1.667c1.667 1.667 1.667 5 1.667 11.667s0 10-1.667 11.667c-1.667 1.667-5 1.667-11.667 1.667s-10 0-11.667-1.667-1.667-5-1.667-11.667c0-6.667 0-10 1.667-11.667zM18.074 7.115c-0.578 0.001-1.158 0.002-1.74 0.011-0.014 1.861-0.013 3.722-0.013 5.585 0 1.118 0.001 2.236-0.002 3.356-0.002 0.349-0.001 0.697-0.001 1.046 0.002 0.975 0.003 1.948-0.051 2.925-0.007 0.272-0.145 0.511-0.279 0.742-0.008 0.014-0.017 0.029-0.025 0.043-0.43 0.704-1.222 1.185-2.052 1.193-1.244 0.111-2.415-0.911-2.593-2.126-0.001-0.062-0.003-0.125-0.005-0.187-0.011-0.341-0.023-0.686 0.109-1.005 0.185-0.526 0.541-0.993 1.007-1.296 0.645-0.444 1.504-0.511 2.237-0.274 0-0.47 0.008-0.94 0.016-1.409 0.011-0.626 0.022-1.253 0.013-1.879-1.607-0.304-3.326 0.207-4.556 1.274-1.082 0.918-1.778 2.267-1.911 3.674-0.015 0.363-0.007 0.733 0.007 1.104 0.156 1.733 1.207 3.348 2.704 4.23 0.904 0.533 1.963 0.822 3.022 0.763 1.726-0.030 3.407-0.956 4.378-2.378 0.6-0.852 0.941-1.881 1-2.919 0.014-1.347 0.013-2.697 0.013-4.049-0-0.811-0.001-1.622 0.002-2.433 0.385 0.252 0.778 0.496 1.2 0.689 0.97 0.459 2.044 0.681 3.111 0.719v-2.985c-1.141-0.126-2.311-0.504-3.141-1.326-0.83-0.8-1.237-1.956-1.296-3.089-0.385 0.003-0.77 0.004-1.156 0.004z"></path>
</symbol>
<symbol id="icon-viber" viewBox="0 0 32 32">
<path fill="#f6f7f7" style="fill: var(--color1, #f6f7f7)" d="M19.991 8.831c-2.648-0.504-5.334-0.504-7.983 0-1.159 0.258-2.616 1.655-2.901 2.778-0.474 2.174-0.474 4.378 0 6.551 0.285 1.123 1.743 2.52 2.901 2.778 0 0 0.001 0 0.001 0 0.052 0.010 0.089 0.055 0.089 0.107v3.184c0 0.159 0.194 0.238 0.305 0.122l1.513-1.552c0 0 1.205-1.237 1.422-1.46 0.021-0.022 0.050-0.034 0.081-0.033 1.527 0.042 3.056-0.081 4.573-0.369 1.159-0.258 2.617-1.655 2.901-2.778 0.475-2.174 0.475-4.377 0-6.551-0.284-1.123-1.742-2.52-2.901-2.778zM20.032 18.323c-0.232 0.492-0.569 0.901-1.055 1.163-0.137 0.074-0.301 0.098-0.456 0.145-0.178-0.054-0.348-0.090-0.506-0.156-1.634-0.678-3.137-1.552-4.328-2.892-0.677-0.762-1.207-1.623-1.655-2.533-0.213-0.432-0.392-0.881-0.574-1.326-0.166-0.407 0.079-0.827 0.337-1.133 0.242-0.287 0.554-0.508 0.891-0.67 0.264-0.127 0.523-0.054 0.716 0.17 0.416 0.483 0.798 0.99 1.107 1.55 0.19 0.344 0.138 0.765-0.207 0.999-0.084 0.057-0.16 0.124-0.238 0.188-0.069 0.056-0.133 0.113-0.18 0.19-0.086 0.139-0.090 0.304-0.035 0.456 0.425 1.168 1.142 2.077 2.318 2.566 0.188 0.078 0.377 0.169 0.594 0.144 0.363-0.042 0.481-0.441 0.735-0.649 0.249-0.203 0.567-0.206 0.834-0.037s0.528 0.352 0.786 0.535c0.253 0.181 0.506 0.357 0.739 0.563 0.225 0.198 0.302 0.458 0.175 0.726zM17.923 14.515c-0.101 0.002-0.062-0-0.023-0.001-0.163-0.006-0.252-0.102-0.27-0.258-0.013-0.114-0.023-0.23-0.050-0.341-0.054-0.219-0.17-0.422-0.354-0.556-0.087-0.063-0.186-0.11-0.289-0.139-0.131-0.038-0.267-0.027-0.398-0.059-0.142-0.035-0.221-0.15-0.198-0.283 0.020-0.121 0.138-0.216 0.271-0.206 0.828 0.060 1.421 0.488 1.505 1.463 0.006 0.069 0.013 0.142-0.002 0.207-0.025 0.107-0.101 0.163-0.179 0.173 0.006 0 0.005 0.001-0.012 0.002zM17.408 12.285c-0.254-0.124-0.529-0.202-0.808-0.248-0.122-0.020-0.245-0.032-0.367-0.049-0.148-0.021-0.227-0.115-0.221-0.261 0.007-0.137 0.107-0.235 0.256-0.227 0.49 0.028 0.964 0.134 1.4 0.365 0.887 0.47 1.393 1.21 1.541 2.2 0.007 0.045 0.017 0.089 0.021 0.134 0.008 0.111 0.014 0.222 0.022 0.369-0.003 0.027-0.005 0.089-0.021 0.149-0.057 0.214-0.382 0.241-0.457 0.025-0.022-0.064-0.026-0.137-0.026-0.207-0.001-0.453-0.099-0.905-0.327-1.298-0.235-0.405-0.593-0.745-1.013-0.951zM20.147 15.343c-0.171 0.002-0.248-0.141-0.259-0.295-0.022-0.304-0.037-0.609-0.079-0.911-0.221-1.592-1.49-2.909-3.075-3.191-0.238-0.043-0.483-0.054-0.724-0.079-0.153-0.016-0.353-0.025-0.386-0.215-0.028-0.159 0.106-0.286 0.258-0.294 0.041-0.002 0.083-0 0.124-0 2.052 0.057 0.125 0.004 0.006 0 2.134 0.062 3.886 1.479 4.262 3.59 0.064 0.36 0.087 0.728 0.115 1.093 0.012 0.154-0.075 0.3-0.241 0.302z"></path>
<path fill="#f6f7f7" style="fill: var(--color1, #f6f7f7)" d="M2.667 15.999c0 13.333 0 13.333 13.333 13.333s13.333 0 13.333-13.333 0-13.333-13.333-13.333-13.333 0-13.333 13.333zM24.434 18.511l-0.005 0.021c-0.426 1.722-2.346 3.57-4.11 3.954l-0.020 0.004c-1.426 0.272-2.863 0.408-4.299 0.408-0.423 0-0.845-0.013-1.268-0.037l-1.948 2.024c-0.482 0.502-1.33 0.16-1.33-0.535v-1.922c-1.698-0.485-3.475-2.248-3.884-3.896l-0.005-0.021c-0.527-2.405-0.527-4.844 0-7.249l0.005-0.021c0.427-1.722 2.347-3.57 4.11-3.954l0.021-0.004c2.852-0.544 5.744-0.544 8.597 0l0.020 0.004c1.764 0.384 3.684 2.232 4.11 3.954l0.005 0.021c0.527 2.405 0.527 4.844 0 7.249z"></path>
</symbol>
</defs>
</svg>
